<?xml version="1.0" standalone="no"?>
<!DOCTYPE svg PUBLIC "-//W3C//DTD SVG 20010904//EN"
 "http://www.w3.org/TR/2001/REC-SVG-20010904/DTD/svg10.dtd">
<svg version="1.0" xmlns="http://www.w3.org/2000/svg"
 width="1224.000000pt" height="968.000000pt" viewBox="0 0 1224.000000 968.000000"
 preserveAspectRatio="xMidYMid meet">

<g transform="translate(0.000000,968.000000) scale(0.100000,-0.100000)"
fill="#000000" stroke="none">
<path d="M770 9628 c-84 -48 -184 -154 -222 -235 -31 -65 -33 -73 -32 -184 1
-86 5 -124 17 -149 24 -48 22 -58 -29 -134 -85 -126 -92 -171 -45 -294 17 -42
35 -99 42 -125 18 -73 6 -216 -27 -327 -40 -136 -39 -252 4 -417 18 -67 32
-133 32 -148 0 -14 10 -49 21 -76 35 -81 25 -121 -94 -384 -58 -126 -132 -288
-166 -360 -34 -71 -68 -152 -77 -180 -8 -29 -21 -135 -28 -237 -8 -103 -19
-196 -25 -207 -6 -11 -27 -32 -47 -47 -19 -15 -47 -50 -62 -78 -23 -45 -27
-62 -27 -151 0 -91 3 -105 30 -160 40 -80 65 -91 241 -110 183 -19 190 -28
123 -169 -27 -56 -29 -70 -29 -173 0 -61 4 -122 9 -135 5 -13 39 -59 75 -103
78 -92 96 -142 96 -257 0 -48 6 -93 16 -116 16 -40 61 -92 79 -92 6 0 40 -25
76 -56 35 -31 89 -67 119 -81 30 -13 75 -33 99 -44 26 -12 72 -50 114 -95 95
-102 129 -120 248 -132 115 -11 197 -45 293 -121 33 -26 87 -65 119 -85 32
-21 61 -45 64 -54 3 -9 23 -58 45 -108 44 -106 47 -144 16 -231 l-22 -62 21
-53 c28 -68 39 -122 48 -233 4 -49 14 -103 22 -118 8 -16 46 -63 85 -105 70
-76 70 -76 65 -125 -7 -76 -15 -80 -129 -52 -70 17 -106 21 -127 15 -65 -18
-173 -84 -215 -131 -49 -55 -65 -103 -73 -219 -6 -82 9 -137 60 -217 36 -56
39 -57 417 -103 52 -6 132 -20 176 -31 45 -10 110 -19 143 -19 47 0 76 -7 119
-27 38 -18 78 -28 127 -31 82 -5 117 8 200 77 27 23 53 41 57 41 3 0 9 -14 13
-31 8 -37 84 -119 110 -119 10 0 40 14 67 31 37 24 55 30 76 25 68 -17 84 -17
144 3 35 12 79 32 98 45 19 13 45 26 57 30 24 8 63 -8 63 -26 0 -34 215 -308
271 -345 27 -17 65 -29 130 -39 187 -28 433 -115 555 -196 41 -27 74 -53 74
-58 0 -18 -53 -58 -133 -100 -122 -64 -208 -116 -247 -149 -35 -29 -35 -29
-35 -112 l0 -84 -57 -81 c-74 -105 -84 -129 -62 -161 11 -18 19 -65 25 -160
10 -157 23 -241 49 -338 10 -38 24 -99 30 -135 14 -76 30 -111 66 -139 41 -32
75 -27 135 22 88 71 98 79 177 123 42 25 90 44 106 44 16 0 70 -19 119 -41
128 -59 156 -58 327 16 77 33 155 60 182 63 26 2 86 -3 134 -13 58 -11 140
-18 242 -19 150 -1 154 0 173 23 10 13 19 31 19 42 0 34 20 31 99 -15 91 -53
115 -56 316 -31 165 21 212 30 268 54 26 11 107 37 180 56 153 42 244 84 342
158 90 69 130 122 184 247 45 105 59 120 128 135 26 5 52 -2 130 -38 106 -48
162 -67 205 -67 19 0 45 -16 84 -51 68 -62 164 -109 219 -109 26 0 59 11 95
32 154 88 156 88 244 82 66 -5 98 -2 168 16 61 15 100 20 130 16 172 -27 232
-16 299 54 62 63 77 121 55 207 -9 34 -16 70 -16 80 0 11 23 67 51 124 48 98
52 110 60 214 10 127 17 165 29 165 13 0 80 -103 114 -172 38 -81 106 -135
267 -217 209 -105 268 -112 356 -42 71 55 90 64 132 56 52 -9 113 -48 195
-123 122 -113 206 -136 486 -137 155 0 183 3 248 23 40 13 94 26 120 29 44 5
53 2 112 -36 92 -60 140 -71 299 -71 157 0 256 13 291 39 34 24 90 111 90 139
0 28 -29 87 -86 172 -32 49 -45 81 -53 128 -6 37 -23 87 -42 120 -67 119 -79
149 -88 218 -10 82 -33 138 -89 221 -82 120 -171 176 -241 152 -39 -14 -99 -5
-150 21 -55 28 -65 43 -42 64 27 24 88 45 134 46 41 0 153 -51 204 -94 64 -54
97 -55 235 -10 131 43 197 101 253 226 45 102 41 185 -12 249 -38 45 -79 59
-177 59 -135 0 -137 7 -42 199 31 63 56 124 56 136 0 36 -50 123 -88 155 -40
32 -110 60 -154 60 -16 0 -28 5 -28 13 0 6 31 40 69 75 101 90 133 173 157
402 3 36 17 98 30 138 19 59 44 249 44 334 0 4 13 -6 29 -24 25 -28 35 -32 93
-36 82 -5 154 15 272 76 152 78 228 155 243 245 6 40 -10 68 -118 210 -38 50
-69 98 -69 107 0 8 -9 29 -19 47 -35 57 -52 135 -58 263 -3 69 -10 131 -16
139 -20 24 -21 201 -3 245 20 48 21 116 1 162 -14 33 -13 39 7 77 13 26 24 75
30 127 7 73 15 99 59 187 70 139 66 152 -79 260 -109 81 -114 94 -122 368 -6
163 -11 230 -23 257 -18 43 -154 157 -232 193 -211 100 -298 113 -392 61 -69
-38 -147 -108 -226 -205 -44 -52 -90 -94 -139 -126 -40 -27 -86 -60 -101 -74
-37 -34 -93 -134 -123 -219 -16 -46 -29 -68 -41 -70 -10 -1 -43 13 -73 33 -30
20 -73 40 -95 46 -79 22 -195 -26 -257 -105 -35 -44 -158 -257 -210 -363 -25
-52 -46 -83 -56 -84 -47 -4 -123 4 -169 17 -56 15 -103 60 -103 97 0 12 -15
47 -34 78 -18 30 -39 73 -46 95 -7 21 -18 46 -26 54 -7 9 -16 36 -20 60 -9 61
-36 100 -148 213 -126 127 -148 138 -306 148 -229 15 -430 59 -584 128 -35 16
-109 57 -166 91 -115 69 -152 84 -230 94 -139 18 -200 47 -380 180 -63 47
-141 100 -173 117 -47 25 -59 37 -64 62 -4 19 -23 46 -52 71 -57 51 -152 147
-257 258 -68 71 -96 93 -165 127 -132 64 -252 94 -357 89 -75 -3 -95 -8 -142
-35 -143 -82 -131 -79 -214 -59 -86 20 -204 74 -234 106 -12 13 -24 44 -28 69
-10 72 -40 120 -130 211 -256 258 -359 375 -403 458 -30 56 -55 89 -78 103
-42 26 -139 36 -307 29 l-128 -5 -52 -56 c-88 -94 -99 -188 -33 -282 l35 -50
-63 -93 c-62 -91 -89 -151 -101 -230 -11 -73 -10 -73 -150 -6 -90 42 -150 64
-199 72 -70 11 -168 6 -215 -12 -40 -15 -88 -67 -132 -143 -23 -38 -50 -82
-60 -97 l-19 -28 -37 24 c-20 13 -54 30 -75 37 l-39 14 9 80 c19 186 -2 245
-126 350 -101 85 -166 118 -236 118 -47 0 -66 -7 -132 -45 l-78 -46 -44 36
c-52 43 -122 72 -259 109 l-103 28 3 206 3 206 -30 58 c-46 88 -61 96 -222
111 -76 6 -151 15 -166 19 -15 4 -69 2 -120 -5 -80 -11 -97 -11 -130 3 -77 33
-147 89 -211 170 -77 99 -154 173 -201 193 -57 24 -144 28 -195 10 -59 -21
-98 -20 -211 3 -152 31 -313 51 -417 51 -90 0 -101 -2 -152 -32z"/>
</g>
</svg>
