<?xml version="1.0" standalone="no"?>
<!DOCTYPE svg PUBLIC "-//W3C//DTD SVG 20010904//EN"
 "http://www.w3.org/TR/2001/REC-SVG-20010904/DTD/svg10.dtd">
<svg version="1.0" xmlns="http://www.w3.org/2000/svg"
 width="1144.000000pt" height="1080.000000pt" viewBox="0 0 1144.000000 1080.000000"
 preserveAspectRatio="xMidYMid meet">

<g transform="translate(0.000000,1080.000000) scale(0.100000,-0.100000)"
fill="#000000" stroke="none">
<path d="M3105 10788 c-58 -32 -145 -141 -145 -183 0 -38 -22 -55 -80 -62 -73
-8 -119 -52 -143 -138 -10 -33 -26 -87 -37 -120 -32 -95 -27 -135 27 -243 43
-84 71 -119 131 -158 2 -1 -13 -23 -32 -48 -35 -46 -56 -100 -56 -143 0 -22
-1 -22 -65 9 -59 27 -79 31 -200 37 -74 4 -137 10 -140 13 -4 4 3 28 15 55 30
69 42 127 30 157 -12 31 -76 75 -121 82 -50 8 -114 -40 -130 -98 -6 -24 -20
-60 -30 -80 -10 -20 -19 -52 -19 -70 0 -43 -38 -166 -84 -273 -27 -64 -34
-143 -14 -163 9 -9 3 -12 -27 -12 -56 -1 -78 -16 -150 -105 -49 -60 -66 -89
-71 -121 -11 -77 15 -123 99 -173 49 -30 142 -140 157 -187 27 -79 0 -497 -38
-609 -33 -99 -52 -167 -52 -190 0 -15 14 -56 30 -91 29 -59 50 -85 132 -159
37 -35 59 -100 65 -201 l5 -62 -57 -67 c-31 -36 -68 -92 -81 -123 -45 -104
-51 -117 -64 -144 -7 -15 -43 -65 -81 -111 -67 -82 -70 -85 -211 -156 -123
-64 -224 -108 -291 -128 -10 -3 -35 2 -56 12 -36 16 -43 16 -100 1 -74 -19
-90 -13 -126 44 -57 90 -121 112 -334 114 l-144 1 -25 55 c-88 196 -120 240
-174 240 -74 0 -279 -200 -344 -334 -29 -59 -38 -137 -56 -441 -15 -270 -15
-275 6 -353 21 -83 37 -112 110 -204 67 -83 147 -227 166 -298 7 -25 16 -90
21 -145 5 -55 11 -116 15 -135 8 -52 -22 -112 -104 -207 -85 -99 -99 -123
-108 -194 -4 -34 -18 -72 -37 -102 -29 -47 -50 -121 -50 -182 0 -16 17 -70 38
-120 l39 -90 4 -172 4 -173 42 -47 c133 -148 346 -442 455 -627 135 -230 320
-648 364 -828 7 -25 15 -50 20 -54 4 -4 7 -19 7 -34 0 -15 7 -40 15 -56 19
-39 53 -250 64 -402 11 -133 4 -205 -30 -329 -29 -105 -50 -145 -96 -175 -48
-32 -102 -128 -110 -196 -4 -37 -1 -57 15 -88 11 -21 32 -77 46 -124 l27 -86
-35 -104 c-19 -58 -44 -127 -57 -155 -22 -49 -22 -52 -10 -223 6 -95 16 -184
21 -198 13 -33 13 -81 0 -89 -6 -3 -10 -16 -10 -28 0 -13 -7 -33 -16 -45 -14
-21 -14 -25 3 -54 26 -44 84 -88 125 -95 52 -8 126 30 233 119 50 41 116 94
148 117 32 23 80 73 108 112 28 38 59 74 69 79 41 22 110 -105 110 -204 0 -46
30 -119 63 -154 78 -84 212 -90 329 -17 45 29 60 45 78 88 23 52 23 52 6 134
-9 45 -20 115 -23 155 -4 55 -14 89 -38 138 -19 36 -43 97 -55 135 -13 39 -40
98 -61 133 -22 35 -39 69 -39 75 0 7 43 58 95 113 71 77 108 108 152 129 86
40 115 66 158 140 49 83 116 146 180 170 68 26 101 51 131 102 16 29 34 45 52
49 89 19 151 65 188 139 26 55 28 64 31 233 4 219 -6 262 -75 331 -56 55 -184
129 -255 148 -76 19 -167 90 -167 129 0 21 60 84 94 98 37 15 196 169 196 190
0 7 9 42 20 76 22 70 25 147 9 234 l-10 57 125 130 c69 71 126 134 126 140 0
6 23 56 50 111 53 107 61 153 39 228 -9 30 -8 43 4 67 36 69 31 180 -15 325
l-22 67 33 70 c44 95 33 135 -42 150 l-32 7 53 31 c46 26 66 31 150 36 71 4
113 12 157 30 33 14 78 28 100 32 22 4 72 21 110 39 65 29 78 31 182 31 101 0
114 -2 135 -22 29 -27 146 -83 174 -83 11 0 25 -5 32 -12 7 -7 52 -14 107 -16
l94 -4 -35 -46 c-19 -25 -37 -57 -41 -71 -8 -31 14 -71 47 -88 32 -16 144 -17
227 -1 48 9 81 9 139 0 52 -8 81 -9 95 -2 10 6 56 13 101 17 46 3 91 10 101
15 28 14 57 0 57 -28 0 -14 5 -35 12 -47 6 -12 15 -53 19 -92 17 -162 44 -216
249 -495 38 -52 76 -109 85 -126 16 -35 129 -144 148 -144 7 0 24 -6 38 -14
14 -7 36 -16 50 -19 13 -3 63 -30 109 -58 111 -68 151 -79 278 -79 72 0 114
-5 136 -15 17 -8 72 -52 121 -96 50 -45 124 -108 166 -139 80 -62 107 -90 181
-192 54 -75 103 -112 190 -143 35 -13 90 -33 123 -45 53 -20 72 -22 165 -16
83 5 115 11 155 31 l50 25 18 -23 c10 -12 34 -47 54 -77 43 -65 100 -135 164
-200 52 -53 116 -80 190 -80 63 0 82 8 163 74 110 88 251 154 301 142 35 -9
83 -53 105 -97 27 -52 25 -117 -5 -212 -31 -97 -31 -122 0 -220 24 -75 25 -81
10 -137 -19 -75 -19 -139 1 -191 15 -35 15 -48 4 -96 -28 -129 13 -202 208
-362 103 -85 182 -131 222 -131 30 0 96 44 128 85 12 15 29 53 38 84 8 31 20
70 25 87 5 17 9 37 9 46 0 32 41 68 96 83 30 8 80 22 112 31 53 14 66 24 173
134 124 127 168 160 212 160 15 0 41 7 56 15 94 48 241 301 241 414 0 30 6 44
22 55 33 23 116 21 153 -5 61 -41 149 -81 180 -81 17 0 63 12 101 28 61 24 81
27 170 26 58 0 128 -8 165 -17 97 -26 230 -17 299 18 29 15 61 25 71 22 9 -3
38 -31 64 -61 78 -91 154 -115 235 -74 28 14 42 30 50 56 10 30 22 40 64 59
89 40 134 108 120 184 -7 35 -49 83 -142 159 -70 58 -78 73 -101 178 -27 128
-49 199 -82 273 -35 77 -58 104 -120 138 l-46 26 -9 136 -9 137 -43 67 c-23
36 -42 69 -42 73 0 3 -11 19 -25 36 -30 36 -31 47 -5 98 37 73 28 100 -71 205
l-37 40 -4 105 -3 105 -47 63 c-26 34 -50 73 -53 85 -3 12 -21 56 -40 97 -30
66 -33 80 -25 115 5 22 10 77 10 121 0 100 2 103 130 187 78 51 101 72 128
117 41 68 42 120 6 236 -26 81 -26 86 -10 122 29 67 38 135 38 287 0 162 -9
207 -56 268 -14 18 -35 58 -47 90 -26 68 -81 123 -134 133 -42 8 -51 21 -58
96 -3 31 -19 106 -36 166 -18 60 -35 141 -40 178 l-8 69 130 135 c72 74 142
142 156 151 14 9 42 33 61 53 30 32 34 42 34 90 0 36 -8 71 -23 103 l-23 49
26 39 c14 21 26 43 26 49 1 6 9 29 20 51 11 22 19 48 20 58 1 61 -68 96 -187
97 -95 0 -122 8 -181 57 l-43 35 -92 -7 c-51 -3 -120 -13 -155 -22 -34 -8 -70
-11 -80 -7 -9 4 -51 8 -92 8 -74 1 -76 2 -155 57 -49 33 -109 64 -152 78 -72
23 -96 24 -318 9 -39 -3 -41 -1 -70 50 -125 219 -162 250 -308 259 -165 11
-336 -31 -383 -92 -42 -56 -41 -89 5 -192 48 -106 52 -154 20 -238 -25 -67
-58 -92 -133 -99 -28 -3 -99 -10 -157 -17 -92 -10 -109 -10 -130 4 -36 23
-139 57 -175 57 -17 0 -51 7 -75 16 -29 10 -80 16 -151 16 -98 1 -112 -2 -165
-27 -62 -31 -193 -153 -193 -181 0 -17 -26 -68 -50 -98 -21 -26 -77 -52 -129
-61 -24 -4 -59 -14 -78 -21 -18 -8 -63 -21 -100 -30 l-66 -15 -91 44 c-50 25
-108 50 -130 57 -55 18 -129 8 -219 -28 -56 -23 -95 -32 -135 -32 -66 0 -107
-10 -214 -52 l-77 -31 -88 28 c-48 15 -94 29 -100 31 -9 2 -13 29 -13 88 0 96
-3 92 125 196 183 149 222 228 167 337 -12 23 -22 50 -22 59 0 32 -48 81 -95
98 -26 8 -68 31 -94 50 -57 42 -166 90 -253 112 -35 9 -67 20 -72 25 -6 5 -20
9 -31 9 -30 0 -107 38 -128 64 -9 11 -38 57 -64 101 -53 91 -129 176 -178 199
-46 22 -122 20 -168 -4 -20 -11 -41 -20 -45 -20 -5 0 -37 22 -71 50 -77 62
-148 85 -236 77 -33 -3 -69 -9 -79 -13 -16 -6 -17 -4 -7 14 6 11 11 41 11 65
0 57 -39 112 -117 165 -33 22 -64 46 -70 54 -32 39 -42 142 -28 287 9 81 -5
130 -54 196 -21 28 -49 70 -64 95 -36 63 -93 128 -131 147 -17 9 -51 33 -76
54 -25 20 -95 62 -157 93 -99 50 -117 63 -155 113 -44 58 -106 103 -143 103
-27 0 -114 61 -121 85 -11 37 -66 140 -86 162 l-20 21 26 38 c22 33 26 49 26
116 0 42 -4 80 -10 83 -5 3 -10 17 -10 29 0 13 -7 40 -15 59 -8 20 -15 56 -15
79 0 56 -21 85 -84 114 -52 24 -130 32 -141 14 -12 -20 -48 -9 -107 30 -62 41
-89 47 -123 28z m-175 -6262 c0 -7 -67 -46 -79 -46 -23 0 -10 21 22 35 32 14
57 19 57 11z"/>
</g>
</svg>
