<?xml version="1.0" standalone="no"?>
<!DOCTYPE svg PUBLIC "-//W3C//DTD SVG 20010904//EN"
 "http://www.w3.org/TR/2001/REC-SVG-20010904/DTD/svg10.dtd">
<svg version="1.0" xmlns="http://www.w3.org/2000/svg"
 width="1132.000000pt" height="1080.000000pt" viewBox="0 0 1132.000000 1080.000000"
 preserveAspectRatio="xMidYMid meet">

<g transform="translate(0.000000,1080.000000) scale(0.100000,-0.100000)"
fill="#000000" stroke="none">
<path d="M2965 10768 c-55 -29 -71 -32 -185 -38 -108 -5 -133 -9 -182 -33 -31
-15 -63 -27 -70 -27 -7 0 -30 -6 -53 -14 -141 -49 -360 -86 -490 -83 -108 2
-111 1 -180 -34 -51 -26 -78 -47 -99 -78 -30 -45 -45 -113 -29 -133 27 -36 22
-47 -41 -92 -35 -25 -82 -66 -104 -91 -67 -77 -67 -123 1 -229 23 -36 55 -87
71 -112 18 -28 42 -52 62 -60 43 -18 119 -17 169 2 56 22 85 28 85 18 0 -5
-16 -34 -35 -64 -41 -63 -46 -119 -19 -205 9 -29 14 -64 11 -77 -9 -36 -131
-164 -164 -173 -16 -3 -50 -20 -77 -38 -62 -39 -94 -105 -103 -206 -5 -60 -2
-83 21 -151 16 -46 25 -88 21 -100 -17 -53 -90 -109 -162 -125 -39 -8 -66 -39
-89 -103 -9 -26 -32 -85 -51 -132 -60 -146 -67 -182 -49 -244 18 -60 60 -105
142 -151 27 -15 74 -42 104 -61 31 -18 87 -40 125 -49 73 -17 145 -57 145 -82
0 -8 -5 -24 -11 -35 -7 -12 -14 -44 -18 -72 -5 -46 -10 -52 -45 -72 -56 -32
-126 -103 -133 -136 -7 -36 -47 -70 -133 -113 -73 -37 -84 -48 -164 -170 -42
-64 -63 -86 -111 -114 -70 -41 -199 -171 -301 -305 -56 -73 -112 -189 -120
-244 l-6 -49 -67 -29 c-56 -24 -85 -47 -185 -147 -65 -65 -138 -131 -162 -145
-80 -51 -264 -289 -264 -343 0 -37 63 -92 122 -107 l45 -12 6 -97 c3 -54 12
-123 20 -153 8 -31 20 -98 26 -150 7 -52 25 -133 41 -180 16 -47 36 -136 44
-198 18 -134 28 -157 218 -534 75 -146 148 -302 163 -345 16 -43 57 -143 93
-223 35 -80 83 -194 107 -255 23 -60 72 -177 109 -260 36 -82 66 -157 66 -167
0 -9 11 -40 25 -70 14 -29 25 -62 25 -74 0 -11 4 -24 9 -30 5 -5 18 -43 30
-86 11 -42 32 -102 46 -133 14 -32 25 -70 25 -84 0 -15 4 -31 8 -37 5 -5 28
-74 51 -154 23 -80 48 -161 55 -180 32 -86 51 -143 87 -264 21 -72 43 -141 49
-155 14 -36 29 -145 39 -286 7 -98 13 -130 35 -175 14 -30 29 -70 32 -88 6
-29 2 -36 -40 -73 l-46 -41 0 -75 c0 -49 6 -87 16 -109 23 -48 87 -101 183
-153 l82 -43 77 27 c43 15 116 53 165 86 49 32 96 59 105 59 29 0 119 58 145
92 13 18 38 60 56 93 17 33 59 92 92 130 61 69 98 133 99 168 0 23 10 22 56
-10 106 -72 195 -57 326 55 31 26 54 39 56 32 7 -19 -57 -135 -108 -195 -58
-69 -75 -121 -75 -240 0 -165 34 -227 160 -289 67 -32 122 -34 160 -4 24 19
27 26 21 65 l-6 43 64 0 c57 0 65 -3 80 -25 23 -35 59 -51 157 -70 46 -10 88
-21 94 -26 15 -15 107 -10 158 8 32 12 52 14 61 8 7 -6 32 -24 55 -42 28 -21
66 -37 119 -48 l77 -18 75 26 c41 14 98 29 125 32 28 4 65 13 84 21 48 20 56
18 70 -22 16 -43 64 -100 102 -120 21 -11 71 -14 212 -14 l183 0 53 -45 c63
-54 92 -70 144 -79 46 -8 77 -37 77 -70 0 -14 12 -38 26 -55 42 -50 66 -43
151 46 40 42 73 80 73 85 0 13 19 9 76 -17 30 -14 73 -27 97 -30 23 -3 59 -11
79 -17 42 -12 185 0 298 26 36 9 100 22 142 30 115 22 189 63 309 172 128 117
220 180 284 194 65 15 125 42 179 81 l44 31 52 -17 c51 -17 77 -39 170 -141
54 -60 133 -115 281 -194 102 -55 115 -60 174 -60 35 0 67 5 70 10 3 6 19 10
35 10 35 0 66 -36 81 -95 17 -67 184 -236 255 -259 31 -10 49 -34 68 -93 31
-94 79 -123 206 -123 36 0 97 -10 135 -21 206 -59 265 -30 367 178 60 123 65
167 33 286 -23 87 -45 106 -130 117 -68 8 -101 26 -87 46 4 6 33 27 65 48 70
46 110 95 171 204 l45 83 7 162 c7 191 14 210 106 313 81 92 104 145 112 262
4 61 13 110 27 141 17 41 20 62 15 132 -9 142 -23 281 -34 339 -6 30 -16 84
-22 120 -6 36 -23 92 -37 125 -22 51 -27 82 -34 210 -4 83 -11 173 -14 200 -5
36 -2 63 10 95 10 25 20 65 22 89 5 39 1 50 -38 104 -34 49 -45 76 -57 141
-18 98 -16 239 4 282 8 17 45 53 82 79 37 27 99 75 139 106 40 32 115 78 166
104 133 64 218 143 246 227 12 34 21 70 21 80 0 16 11 18 113 18 112 0 112 0
192 41 84 43 140 80 215 140 25 20 68 49 95 65 l50 29 270 1 c383 1 385 1 477
165 26 46 54 95 62 109 56 96 57 125 11 213 -28 53 -33 70 -26 91 11 28 96
131 187 227 75 78 89 120 80 227 -20 222 -123 404 -255 453 -77 28 -120 64
-177 152 -27 39 -75 100 -108 135 -64 67 -65 69 -85 232 -4 36 -13 83 -19 105
-32 115 -53 226 -67 342 -9 70 -21 160 -27 198 -19 109 -16 258 6 353 l20 83
-22 68 c-15 45 -41 93 -78 141 -30 41 -64 90 -74 110 -10 20 -26 42 -34 49 -9
7 -20 30 -26 50 -26 99 -114 176 -254 225 -53 19 -66 20 -92 9 -16 -6 -39 -12
-52 -13 -12 0 -48 -13 -79 -30 -60 -32 -86 -36 -129 -20 -15 6 -124 15 -243
21 -119 5 -243 14 -276 19 -33 5 -141 10 -240 10 l-180 0 -58 -39 c-32 -22
-70 -42 -86 -46 -51 -11 -82 -55 -92 -131 -4 -38 -8 -93 -9 -122 0 -80 -21
-116 -83 -142 -29 -12 -73 -38 -100 -57 -26 -19 -83 -50 -127 -68 -88 -37
-125 -62 -151 -104 -16 -27 -46 -43 -101 -55 -43 -10 -128 -86 -178 -159 -25
-36 -47 -67 -50 -67 -5 0 -68 161 -77 198 -3 15 3 42 18 70 34 68 31 138 -10
226 l-33 69 10 142 c11 173 3 243 -34 296 -43 62 -152 160 -234 209 -71 43
-79 45 -150 45 -66 0 -88 -5 -192 -47 -104 -43 -192 -89 -254 -134 -21 -14
-23 -13 -53 28 -17 23 -31 50 -31 61 0 10 -24 44 -53 75 -29 31 -74 82 -100
114 -94 113 -169 124 -329 48 l-106 -49 -58 15 c-117 30 -139 46 -178 121 -41
82 -84 124 -194 192 -49 30 -117 84 -165 133 -52 53 -112 101 -165 132 l-84
50 -136 7 -137 7 -98 51 c-54 28 -108 51 -121 51 -31 0 -70 44 -173 195 -45
66 -96 134 -112 151 -47 48 -60 91 -77 256 -19 196 -36 267 -82 352 -49 90
-75 109 -155 114 -52 3 -76 -1 -132 -23 -38 -16 -88 -30 -112 -33 -24 -2 -46
-9 -49 -13 -3 -5 -13 -9 -22 -9 -9 0 -30 -7 -45 -15 -20 -10 -33 -11 -45 -5
-9 6 -29 14 -44 19 -17 6 -39 31 -60 67 -18 31 -44 65 -58 75 -36 27 -225 54
-285 41 -48 -10 -107 -1 -135 21 -9 7 -28 38 -44 70 -49 101 -114 120 -221 65z"/>
</g>
</svg>
