<?xml version="1.0" standalone="no"?>
<!DOCTYPE svg PUBLIC "-//W3C//DTD SVG 20010904//EN"
 "http://www.w3.org/TR/2001/REC-SVG-20010904/DTD/svg10.dtd">
<svg version="1.0" xmlns="http://www.w3.org/2000/svg"
 width="1224.000000pt" height="1064.000000pt" viewBox="0 0 1224.000000 1064.000000"
 preserveAspectRatio="xMidYMid meet">

<g transform="translate(0.000000,1064.000000) scale(0.100000,-0.100000)"
fill="#000000" stroke="none">
<path d="M4290 10565 c-41 -41 -79 -75 -84 -75 -6 0 -37 13 -71 30 -226 112
-335 109 -473 -15 -70 -63 -99 -116 -111 -198 -10 -74 -28 -110 -126 -252 -34
-49 -73 -110 -87 -135 -44 -76 -79 -103 -148 -111 -45 -5 -70 -14 -96 -35
-123 -100 -110 -94 -184 -94 -61 0 -73 4 -117 34 -72 50 -148 86 -180 86 -77
0 -132 -79 -133 -188 0 -59 2 -65 39 -105 67 -73 90 -137 67 -190 -19 -47 -86
-101 -156 -126 -64 -24 -86 -46 -96 -98 -11 -59 4 -99 66 -175 l59 -72 -54
-51 c-73 -68 -73 -83 3 -184 l23 -30 -28 -7 c-83 -20 -139 -70 -177 -157 -31
-69 -32 -96 -6 -147 11 -22 20 -48 20 -59 0 -11 -36 -76 -81 -143 -88 -134
-129 -208 -129 -235 0 -40 -44 -105 -101 -149 -68 -52 -77 -66 -89 -139 -12
-72 -34 -102 -94 -130 -59 -26 -118 -84 -141 -137 -25 -60 -20 -171 11 -243
26 -59 46 -115 67 -185 14 -47 13 -226 -1 -272 -7 -21 -17 -55 -24 -75 -34
-109 -47 -277 -24 -322 9 -16 16 -40 16 -52 0 -23 0 -23 -79 6 -24 8 -78 17
-121 18 -106 3 -126 -12 -161 -119 -35 -106 -83 -208 -115 -247 -65 -78 -199
-154 -370 -211 -123 -41 -167 -79 -188 -165 l-12 -46 -105 -6 c-109 -6 -132
-13 -217 -71 -77 -53 -107 -97 -133 -198 -8 -34 -25 -58 -75 -106 -87 -83 -87
-105 -3 -200 103 -115 136 -165 172 -259 54 -138 60 -171 58 -285 -1 -82 4
-130 24 -215 34 -149 33 -176 -6 -209 -17 -14 -34 -26 -39 -26 -17 0 -62 -70
-92 -142 -32 -81 -64 -120 -120 -149 -65 -33 -72 -53 -59 -171 6 -57 14 -127
17 -156 5 -46 12 -61 54 -107 26 -29 69 -94 95 -144 53 -102 107 -158 201
-208 64 -34 318 -123 350 -123 11 0 29 -7 40 -15 36 -27 95 -18 190 30 87 44
89 45 188 45 148 0 220 14 290 57 70 43 77 40 123 -40 37 -62 85 -107 114
-107 12 0 32 -18 52 -47 80 -115 114 -140 211 -154 34 -4 94 -15 134 -24 88
-19 151 -13 242 23 36 14 79 26 97 26 18 0 77 -23 145 -57 l113 -57 194 0
c107 0 223 5 257 11 51 9 76 8 133 -5 38 -9 103 -16 143 -16 66 0 78 4 128 35
46 30 63 35 113 35 57 0 62 -2 139 -61 45 -33 126 -83 181 -110 88 -45 111
-52 196 -61 53 -6 107 -16 121 -23 34 -17 210 -193 210 -209 0 -13 84 -95 134
-131 21 -15 32 -37 47 -95 11 -41 34 -108 50 -148 16 -41 29 -80 29 -87 0 -7
13 -43 29 -78 24 -53 50 -86 133 -168 126 -124 163 -155 253 -209 92 -55 129
-92 168 -164 37 -69 102 -137 187 -193 64 -43 260 -116 345 -128 28 -3 83 -24
125 -47 49 -26 93 -42 128 -45 55 -6 82 -28 82 -66 0 -45 73 -116 270 -259 43
-32 48 -33 140 -33 87 0 102 4 182 37 71 31 106 39 200 48 265 26 292 30 423
76 166 59 207 65 380 54 158 -10 142 -7 285 -68 86 -38 116 -46 167 -46 73 -1
97 13 161 98 l44 57 31 -21 c70 -47 99 -55 202 -55 55 -1 145 -5 200 -9 90 -7
106 -6 155 13 87 34 173 49 354 61 179 12 224 23 324 80 37 22 63 47 88 85 39
62 67 75 117 54 69 -30 263 -2 369 52 52 27 166 143 218 223 71 110 56 101
130 76 36 -12 94 -25 129 -28 77 -6 117 11 157 70 25 35 26 42 16 72 -7 18
-12 56 -12 84 0 45 5 57 34 89 18 21 38 48 45 60 39 76 -33 139 -137 118 -74
-15 -95 -12 -111 16 -13 24 -13 27 7 47 61 61 97 179 112 367 7 77 16 160 22
185 5 25 14 77 20 115 5 39 23 104 40 145 16 41 44 113 61 158 16 46 36 86 43
89 18 7 109 -52 193 -125 l74 -64 62 4 c50 3 72 11 126 44 35 23 74 44 86 48
30 9 96 86 122 141 11 24 27 74 36 112 20 87 44 127 91 149 20 10 49 35 65 57
40 56 39 100 -6 163 -19 27 -35 55 -35 62 0 7 -10 32 -21 54 -12 23 -26 75
-31 116 -10 82 -39 167 -69 206 -28 35 -181 108 -229 110 -63 1 -116 -61 -129
-153 -5 -37 -10 -47 -28 -49 -29 -4 -41 21 -52 108 -16 121 -61 179 -193 244
l-82 41 -57 111 -56 112 37 11 c43 13 114 84 136 136 8 19 14 54 14 79 0 37
-5 48 -30 69 -31 27 -89 50 -111 45 -16 -3 -16 2 5 132 29 174 16 229 -62 269
-78 40 -78 56 3 152 l47 57 112 -51 c61 -28 154 -81 206 -118 147 -105 187
-123 284 -123 98 -1 146 20 191 83 l30 43 -1 184 c-1 148 -5 193 -19 229 -19
51 -18 76 21 343 8 50 77 118 137 133 59 14 138 74 160 121 9 19 20 78 25 130
8 88 12 99 45 143 21 26 37 55 37 64 0 9 11 51 25 94 26 82 32 132 15 142 -5
3 -14 23 -20 43 -17 62 -87 139 -157 173 -37 17 -64 38 -68 50 -11 35 -65 87
-102 100 -23 7 -60 9 -104 5 -68 -7 -69 -7 -79 19 -17 46 -11 81 21 121 80 99
87 176 20 218 l-38 24 -6 119 c-8 150 -18 183 -73 239 -52 54 -57 89 -23 178
16 43 31 63 65 88 85 60 106 134 60 199 -14 19 -42 60 -63 92 -21 32 -57 82
-80 112 -24 30 -43 58 -43 61 0 3 11 19 25 36 32 37 62 136 75 246 12 94 25
131 76 205 36 52 50 92 65 190 6 33 16 71 23 86 11 22 11 37 0 90 -28 134 -92
216 -192 243 -20 6 -54 25 -77 43 -69 56 -103 69 -182 67 -42 -1 -96 -10 -132
-22 -33 -11 -72 -20 -86 -20 -34 0 -192 80 -283 144 -61 42 -85 67 -138 147
-77 115 -93 130 -164 163 -51 23 -86 34 -285 87 -38 10 -116 21 -172 25 l-103
7 -84 -81 c-64 -62 -95 -83 -128 -92 -135 -35 -213 -70 -301 -136 -33 -24 -64
-44 -70 -44 -19 0 -110 -75 -240 -197 -70 -67 -143 -128 -162 -137 -45 -22
-198 -56 -250 -56 -23 0 -68 -7 -100 -16 -82 -21 -249 -29 -302 -15 -34 9 -47
19 -62 49 -39 77 -105 122 -178 122 -59 0 -210 -46 -262 -80 -51 -32 -119 -46
-174 -36 -21 4 -74 36 -129 76 -162 122 -163 122 -420 129 l-220 6 -22 26
c-13 15 -26 45 -29 67 -8 48 -59 125 -110 166 -34 27 -43 30 -115 29 -64 0
-98 -7 -202 -43 -107 -36 -142 -43 -240 -49 -100 -6 -122 -11 -165 -34 l-49
-28 -45 44 c-25 24 -60 53 -76 65 -50 33 -220 84 -286 85 -51 0 -64 -4 -111
-36 -29 -21 -61 -37 -71 -37 -24 0 -97 69 -113 107 -17 40 -65 69 -148 90 -70
17 -107 13 -183 -18 -28 -12 -37 -10 -82 11 -28 13 -51 25 -51 27 0 2 18 34
40 70 21 36 46 87 55 113 9 27 41 97 71 157 49 94 55 114 51 154 -5 64 -103
235 -164 288 l-46 41 -226 0 -227 0 -74 -75z"/>
</g>
</svg>
