<?xml version="1.0" standalone="no"?>
<!DOCTYPE svg PUBLIC "-//W3C//DTD SVG 20010904//EN"
 "http://www.w3.org/TR/2001/REC-SVG-20010904/DTD/svg10.dtd">
<svg version="1.0" xmlns="http://www.w3.org/2000/svg"
 width="580.000000pt" height="1080.000000pt" viewBox="0 0 580.000000 1080.000000"
 preserveAspectRatio="xMidYMid meet">

<g transform="translate(0.000000,1080.000000) scale(0.100000,-0.100000)"
fill="#000000" stroke="none">
<path d="M951 10787 c-29 -14 -33 -22 -62 -112 -20 -62 -24 -97 -29 -296 -3
-156 -9 -231 -17 -241 -25 -29 16 -129 79 -194 l39 -41 -24 -64 c-38 -100 -72
-161 -111 -198 -20 -19 -36 -40 -36 -46 0 -6 -13 -24 -30 -40 -35 -34 -37 -52
-10 -105 25 -49 25 -51 -4 -124 -13 -34 -38 -135 -56 -225 -28 -150 -30 -165
-15 -185 67 -92 68 -93 51 -118 -8 -13 -34 -35 -57 -48 -22 -14 -57 -38 -76
-55 l-36 -29 7 -76 c13 -146 21 -205 30 -219 5 -8 17 -54 27 -102 10 -53 40
-141 74 -220 31 -72 61 -157 67 -188 5 -31 21 -85 35 -121 34 -87 43 -209 18
-234 -15 -15 -16 -21 -5 -42 12 -21 11 -26 -5 -38 -18 -13 -18 -15 -2 -39 9
-15 17 -41 17 -59 0 -39 30 -100 70 -143 40 -43 47 -61 59 -149 6 -43 14 -82
17 -87 11 -18 32 -8 66 29 l35 39 44 -39 c24 -22 63 -48 86 -59 55 -25 61 -37
26 -50 -36 -14 -43 -25 -43 -79 -1 -95 -39 -192 -97 -245 -35 -32 -35 -33 -15
-44 11 -6 87 -18 169 -27 183 -19 257 -35 351 -76 68 -30 75 -31 115 -19 83
24 86 24 122 -3 20 -15 51 -30 70 -33 31 -5 35 -9 35 -34 0 -24 4 -29 24 -29
27 0 66 42 66 71 0 20 -20 44 -60 72 -13 9 -22 19 -19 21 8 9 156 -22 189 -39
24 -13 46 -15 80 -11 52 7 64 0 100 -54 33 -50 49 -60 91 -60 21 0 41 -4 44
-10 3 -5 27 -10 53 -10 26 0 67 -9 91 -20 60 -28 95 -26 120 6 37 47 26 97
-35 164 -12 14 -27 44 -34 68 -6 23 -20 58 -31 76 -17 29 -19 45 -13 94 4 43
2 66 -9 88 -8 16 -25 72 -38 124 -18 74 -28 100 -51 120 l-29 26 25 27 c14 15
32 27 41 27 9 0 41 -23 71 -52 51 -48 56 -50 80 -38 13 8 34 29 45 47 l20 32
-20 47 -21 46 -62 -3 c-60 -4 -63 -3 -66 20 -5 33 21 52 56 42 15 -5 59 -24
99 -44 123 -63 194 -59 292 16 l53 41 47 -54 c121 -140 188 -233 204 -283 33
-104 91 -172 159 -186 34 -7 51 -31 21 -31 -10 0 -55 9 -101 19 -73 17 -84 17
-97 4 -8 -8 -15 -23 -15 -34 0 -16 7 -19 40 -19 70 0 52 -29 -116 -196 -56
-55 -105 -110 -108 -122 -4 -12 -22 -27 -42 -34 -33 -12 -35 -15 -29 -46 6
-31 2 -38 -44 -81 -28 -25 -51 -54 -51 -63 0 -12 21 -28 60 -48 62 -31 63 -33
72 -120 3 -21 10 -26 48 -32 55 -8 111 -31 165 -68 58 -40 78 -44 107 -21 35
28 48 11 48 -60 0 -107 13 -111 132 -39 84 52 130 61 136 29 2 -11 -14 -22
-58 -38 -66 -24 -76 -39 -105 -148 -15 -58 -5 -120 22 -130 16 -6 34 13 32 37
-1 8 -1 18 0 23 1 11 58 -20 110 -60 24 -18 49 -33 55 -33 6 0 23 14 38 32 46
55 50 33 44 -235 l-5 -237 36 -47 c47 -61 63 -102 63 -160 0 -45 16 -123 35
-166 4 -10 3 -17 -4 -17 -21 0 -41 46 -51 119 -12 84 -32 132 -89 211 -53 73
-82 166 -79 251 2 55 -2 72 -24 110 -35 59 -101 119 -132 119 -13 0 -49 -15
-79 -34 -31 -18 -78 -39 -104 -46 -155 -40 -146 -35 -229 -122 -122 -130 -140
-200 -61 -233 40 -17 58 -36 91 -102 14 -29 46 -68 72 -90 33 -27 56 -59 79
-108 18 -38 63 -107 99 -152 74 -91 83 -115 34 -85 -42 25 -160 52 -264 59
l-80 6 -12 -29 c-14 -35 -51 -210 -59 -276 -4 -32 0 -63 12 -97 18 -47 18 -50
1 -77 -16 -24 -17 -36 -7 -118 6 -50 15 -137 21 -194 13 -117 30 -175 64 -212
13 -14 32 -38 41 -53 11 -17 41 -39 74 -53 68 -31 91 -50 91 -80 0 -32 -16
-39 -90 -39 -62 0 -65 -1 -68 -26 -4 -36 34 -132 73 -183 46 -61 55 -80 55
-118 l0 -33 -21 35 c-31 53 -46 60 -120 60 -72 0 -83 -6 -94 -55 -4 -17 -23
-64 -41 -106 -46 -104 -54 -182 -25 -248 11 -27 28 -80 36 -116 14 -61 14 -69
0 -91 -9 -14 -25 -24 -39 -24 -33 0 -101 -49 -205 -146 -102 -96 -102 -97 -79
-221 11 -61 10 -66 -17 -122 -24 -50 -27 -68 -22 -113 7 -64 58 -189 99 -241
16 -21 43 -70 59 -110 16 -39 37 -82 45 -94 16 -25 54 -31 54 -9 0 25 69 36
100 16 19 -12 2 -31 -43 -46 -27 -9 -32 -16 -32 -45 -1 -55 -18 -73 -127 -130
-133 -70 -158 -91 -158 -134 0 -19 5 -37 12 -41 27 -17 100 -5 161 27 86 44
146 45 206 1 35 -25 54 -32 90 -32 25 0 54 7 65 15 16 12 23 12 45 1 14 -8 35
-23 45 -35 50 -55 267 -82 334 -41 18 11 37 20 42 20 6 0 52 -18 104 -40 142
-61 182 -52 213 46 12 38 39 81 90 144 74 89 108 114 124 89 23 -36 49 -125
49 -167 0 -30 9 -65 25 -97 14 -27 28 -67 31 -87 8 -49 42 -78 106 -92 49 -11
55 -16 80 -62 31 -58 57 -74 121 -74 l47 0 0 -46 c0 -39 5 -51 33 -79 40 -40
77 -51 227 -64 63 -5 123 -13 132 -16 13 -5 21 2 32 29 9 22 26 40 41 46 37
14 105 13 109 -2 53 -178 112 -291 179 -339 62 -45 72 -38 73 52 0 64 5 86 32
142 18 36 32 77 32 90 0 15 9 31 23 40 27 17 47 76 47 136 0 56 -13 77 -60
101 -33 17 -41 28 -57 77 -16 51 -22 59 -48 63 -42 7 -54 38 -43 102 18 97 97
238 134 238 7 0 18 9 24 19 5 11 24 23 42 26 49 11 72 30 102 85 21 38 26 58
21 80 -13 60 -89 110 -167 110 -45 0 -75 20 -91 61 -10 26 -25 42 -44 50 -51
20 -58 25 -87 68 l-29 43 -87 -7 c-49 -4 -90 -3 -93 2 -3 5 3 36 14 68 11 33
17 70 14 82 -8 35 -52 80 -95 97 -27 11 -44 25 -51 44 -15 38 -5 100 20 123
15 14 21 32 21 62 0 54 13 67 67 67 36 0 50 7 93 45 57 50 58 51 86 30 28 -21
61 -18 75 6 12 24 7 94 -12 157 -11 36 -11 51 4 106 9 35 14 73 11 83 -13 35
-55 83 -73 83 -10 0 -30 9 -44 20 -14 12 -51 29 -81 40 -30 10 -64 28 -75 39
-12 12 -27 21 -35 21 -8 0 -24 13 -36 30 -12 16 -30 30 -40 30 -24 0 -40 29
-40 69 0 16 -5 41 -11 55 -13 27 -64 56 -99 56 -53 0 -103 48 -153 145 -13 28
-55 83 -91 124 -68 75 -70 81 -67 141 1 19 -9 72 -24 117 l-26 83 23 47 c17
37 22 66 21 123 0 75 -21 150 -42 150 -19 0 -12 28 8 35 36 11 51 42 66 129
14 92 20 105 79 174 77 93 125 242 97 309 -6 15 -15 61 -20 102 -13 101 -37
126 -121 126 -35 0 -64 5 -72 13 -8 8 -13 45 -13 110 -1 92 -3 100 -38 165
-33 61 -37 75 -37 143 0 73 -21 141 -50 159 -17 11 -11 54 9 65 11 5 44 10 74
10 76 0 115 10 122 29 3 10 14 27 25 39 22 23 39 21 79 -10 13 -10 38 -18 56
-18 26 0 39 -8 62 -36 55 -69 82 -94 101 -94 11 0 41 18 68 40 31 25 65 43 97
50 57 12 70 18 158 76 39 26 69 53 73 66 16 61 -1 228 -23 228 -15 0 -60 77
-81 139 -14 43 -20 86 -20 148 0 48 -7 120 -16 159 -17 71 -17 72 4 99 16 19
22 42 22 74 0 70 -37 199 -74 261 -19 30 -37 66 -41 80 -13 43 -63 130 -95
167 -63 71 -62 110 3 148 18 10 35 23 39 29 9 14 -1 62 -22 111 -14 31 -16 50
-10 85 13 71 -3 184 -34 230 -14 22 -26 43 -26 47 0 4 -18 37 -41 75 l-41 68
23 47 c27 56 38 156 19 178 -22 27 -4 45 46 45 l47 0 -5 49 c-3 31 -21 81 -46
132 -23 45 -42 85 -42 90 0 5 11 9 25 9 18 0 32 10 46 33 18 28 20 42 15 120
-5 67 -2 95 9 117 29 57 19 82 -82 194 -29 33 -53 68 -53 78 0 11 13 23 34 32
40 17 48 44 35 132 -12 86 -23 109 -78 170 -55 60 -82 125 -79 191 2 38 -3 48
-40 86 -23 23 -42 52 -42 63 0 31 43 91 119 164 83 79 126 149 116 187 -3 14
-21 41 -40 60 -61 61 -152 40 -214 -51 -18 -25 -40 -46 -49 -46 -118 -3 -129
-6 -178 -37 -72 -47 -166 -66 -294 -59 -58 2 -122 8 -142 11 -26 5 -51 2 -78
-9 -24 -10 -99 -20 -197 -26 -137 -9 -212 -19 -383 -49 -32 -6 -38 -3 -79 42
-50 55 -86 75 -191 107 -70 20 -80 27 -155 103 -45 45 -106 106 -138 134 -46
43 -59 63 -73 110 -14 50 -28 69 -103 143 -81 80 -127 110 -192 124 -15 3 -54
24 -87 46 -68 46 -64 45 -302 40 -169 -4 -394 17 -443 42 -20 10 -48 36 -62
57 -47 76 -96 88 -208 50 -47 -16 -89 -22 -172 -23 l-110 -1 -28 58 c-34 71
-67 90 -116 64z"/>
<path d="M2661 6804 c-17 -89 -14 -127 12 -152 29 -28 80 -29 114 -2 14 11 38
20 53 20 29 0 80 40 80 64 0 26 -58 64 -142 92 -46 15 -88 29 -94 31 -6 2 -16
-20 -23 -53z"/>
<path d="M933 6553 c-20 -7 -15 -41 7 -53 24 -13 60 -4 60 14 0 23 -43 47 -67
39z"/>
<path d="M784 6375 c-40 -37 -69 -41 -128 -16 -28 11 -56 21 -62 21 -5 0 -26
-17 -45 -37 -95 -100 -94 -134 7 -245 70 -75 70 -117 1 -150 -27 -14 -38 -26
-42 -50 -9 -46 11 -183 35 -246 26 -68 25 -93 -6 -163 -23 -51 -25 -63 -15
-87 16 -37 7 -58 -68 -157 -73 -95 -132 -211 -138 -269 -4 -30 1 -57 18 -97
32 -71 32 -186 2 -279 -26 -81 -37 -233 -24 -324 8 -55 16 -75 40 -100 56 -58
121 -249 121 -357 0 -50 -17 -109 -31 -109 -4 0 -13 -9 -19 -20 -8 -15 -7 -27
5 -49 21 -41 19 -68 -6 -82 -19 -10 -21 -17 -15 -58 15 -106 27 -268 21 -299
-5 -26 -14 -36 -43 -50 -81 -36 -87 -55 -44 -132 30 -56 31 -54 -37 -92 -35
-20 -42 -58 -15 -96 8 -12 13 -30 9 -40 -9 -29 -93 -112 -124 -123 -16 -6 -33
-21 -39 -34 -7 -14 -16 -25 -21 -25 -19 0 -20 -44 0 -68 25 -33 24 -64 -4
-105 -13 -19 -31 -70 -40 -115 -12 -56 -26 -91 -45 -113 -34 -41 -35 -92 -3
-137 25 -36 87 -72 123 -72 15 0 37 -16 63 -46 39 -45 42 -46 110 -51 79 -6
89 -12 116 -65 22 -44 59 -54 59 -15 0 32 14 49 33 41 9 -3 47 -42 83 -86 76
-92 96 -97 104 -27 10 84 49 101 115 49 21 -16 40 -30 42 -30 2 0 19 16 38 35
27 27 41 33 65 30 36 -4 50 -12 50 -29 0 -15 85 -97 118 -115 47 -25 162 37
162 87 0 31 13 34 77 21 107 -21 169 13 180 102 6 44 -8 69 -40 69 -19 0 -18
4 12 34 l33 34 -12 54 c-13 56 -10 251 3 264 11 12 16 1 27 -57 8 -44 18 -61
50 -92 43 -41 74 -46 94 -14 9 14 5 29 -19 73 -29 54 -29 57 -11 68 111 65
142 93 173 156 49 100 41 209 -17 240 -10 6 -22 26 -26 45 -3 19 -14 45 -24
58 -34 43 -73 197 -51 197 6 0 43 -16 82 -35 45 -23 93 -39 137 -44 37 -5 93
-16 124 -25 43 -13 62 -15 78 -6 56 30 2 83 -179 175 -71 36 -141 75 -156 87
l-27 21 30 13 c17 7 38 24 48 39 16 24 16 29 0 77 -9 27 -16 66 -16 85 0 120
-107 236 -236 258 -71 12 -73 14 -90 71 -14 51 -17 54 -47 54 -51 0 -62 12
-42 43 10 16 14 34 10 48 -6 19 -5 20 26 14 59 -13 93 -46 119 -117 6 -19 17
-28 31 -28 62 0 131 69 109 110 -8 15 -21 20 -55 20 -50 0 -71 23 -61 66 8 29
20 30 53 4 31 -24 81 -26 148 -6 49 15 95 50 95 72 0 20 -45 50 -94 64 -25 7
-53 21 -62 31 -16 17 -16 22 0 62 21 55 20 64 -4 72 -46 15 -120 -65 -120
-131 -1 -29 -1 -28 -51 25 l-50 54 -32 -31 c-40 -38 -95 -62 -144 -62 -43 0
-96 -28 -113 -59 -13 -25 -45 -28 -54 -5 -15 38 53 94 114 94 24 0 56 14 104
45 60 39 88 49 156 58 24 3 23 37 -2 64 -12 14 -43 36 -68 51 -74 42 -75 44
-39 59 66 28 176 9 209 -36 37 -49 52 -59 108 -73 l57 -14 5 -62 c5 -64 16
-82 54 -82 11 0 27 -7 37 -16 26 -23 47 -11 55 30 11 59 -4 103 -54 162 -47
56 -130 141 -188 192 -25 22 -32 38 -38 85 -9 68 -25 87 -75 87 -51 0 -74 18
-66 52 13 50 39 63 134 64 52 1 104 9 131 19 28 10 70 16 110 15 36 -1 71 -2
78 -1 8 1 12 23 12 73 0 39 5 87 12 105 11 29 9 43 -18 120 -31 91 -30 91
-106 107 -16 4 -28 13 -28 21 0 11 13 13 58 12 56 -2 57 -1 60 26 7 55 -87
217 -125 217 -8 0 -13 13 -13 39 0 35 -9 49 -85 132 -46 52 -99 120 -117 152
-18 32 -43 71 -55 87 -28 34 -28 40 -4 40 12 0 23 11 29 29 8 22 18 30 45 35
57 11 60 54 6 76 -16 7 -35 22 -41 33 -9 18 -6 25 21 48 45 37 41 77 -11 102
-21 9 -38 24 -38 32 0 41 -106 63 -221 46 -101 -16 -138 -36 -248 -136 -52
-47 -98 -85 -102 -85 -4 0 -13 16 -19 35 -6 19 -14 35 -18 35 -3 0 -31 -27
-62 -60 -80 -86 -116 -81 -65 9 32 55 31 66 -5 108 -19 21 -30 45 -30 63 0 19
-8 34 -22 44 -29 21 -32 20 -64 -9z m806 -3884 c0 -10 -11 -30 -25 -46 -29
-30 -46 -29 -120 5 l-40 18 31 1 c18 1 42 10 55 21 32 26 99 28 99 1z"/>
<path d="M2840 6257 c-52 -27 -51 -60 2 -100 32 -24 65 -15 79 20 19 52 -33
104 -81 80z"/>
<path d="M2278 6224 c-15 -14 -8 -24 31 -44 34 -17 40 -25 43 -57 l3 -38 65 1
c111 3 173 45 125 84 -13 11 -20 10 -41 -1 -20 -10 -29 -11 -42 -1 -53 39
-167 73 -184 56z"/>
<path d="M2359 5128 c-2 -19 -3 -15 46 -128 48 -109 77 -150 105 -150 20 0
111 93 134 138 22 43 20 65 -9 92 -20 19 -41 25 -103 30 -42 4 -90 12 -105 18
-37 16 -67 15 -68 0z"/>
<path d="M2172 5030 c-80 -53 -85 -71 -36 -122 49 -51 114 -82 154 -73 54 12
112 105 92 149 -13 29 -98 86 -128 86 -12 0 -49 -18 -82 -40z"/>
<path d="M2480 4764 c-41 -35 -39 -77 3 -82 53 -6 106 51 85 91 -13 25 -52 21
-88 -9z"/>
<path d="M1819 4754 c-11 -30 -5 -56 16 -74 12 -10 12 -17 -5 -51 -33 -63 -20
-105 28 -92 15 4 22 1 22 -10 0 -21 29 -30 37 -12 3 9 3 29 -1 45 -3 17 0 53
6 80 14 61 3 91 -44 120 -42 26 -47 25 -59 -6z"/>
<path d="M2106 4671 c-50 -51 -51 -54 -31 -118 7 -21 4 -23 -28 -23 -42 0 -57
-20 -57 -74 0 -38 21 -66 51 -66 10 0 42 9 71 20 67 25 75 25 84 -2 9 -33 34
-58 56 -58 25 0 48 56 48 117 0 70 -10 81 -53 59 -27 -15 -38 -16 -55 -7 l-22
12 20 39 c11 22 20 51 20 65 0 33 -27 85 -43 85 -7 0 -35 -22 -61 -49z"/>
<path d="M2300 4231 c-5 -11 -10 -33 -10 -49 0 -39 -6 -43 -45 -26 -77 32
-123 7 -165 -89 -21 -47 -21 -49 -3 -69 48 -53 155 -90 217 -74 16 4 33 20 45
44 10 20 31 47 45 59 30 26 32 53 11 114 -16 45 -60 109 -75 109 -5 0 -14 -9
-20 -19z"/>
<path d="M2684 4158 c-32 -15 -44 -49 -29 -79 17 -31 95 -88 127 -91 22 -3 23
0 23 66 0 62 -2 71 -25 86 -33 24 -70 30 -96 18z"/>
<path d="M2606 3988 c-11 -34 -15 -157 -6 -163 5 -3 9 -28 8 -54 -3 -57 13
-81 52 -81 29 0 48 17 73 65 l16 30 1 -32 c0 -18 7 -38 17 -45 9 -7 49 -46 89
-85 40 -40 76 -73 81 -73 5 0 21 19 37 43 25 38 27 48 22 101 -3 32 -6 69 -6
82 0 14 -10 30 -25 40 -22 14 -27 14 -56 0 l-32 -16 -42 45 c-51 55 -84 59
-117 15 -13 -18 -31 -30 -45 -30 -27 0 -27 -2 -8 43 19 47 19 91 -1 111 -19
19 -53 21 -58 4z"/>
<path d="M1930 3194 c-6 -14 -8 -30 -4 -35 17 -28 82 14 71 46 -11 26 -56 19
-67 -11z"/>
<path d="M1880 2847 c0 -21 59 -79 77 -75 48 9 4 88 -49 88 -16 0 -28 -5 -28
-13z"/>
<path d="M334 1866 c-47 -33 -60 -211 -19 -257 45 -50 95 -44 95 12 0 15 5 40
12 54 9 20 8 36 -5 78 -9 28 -20 68 -24 87 -10 39 -28 47 -59 26z"/>
<path d="M465 1608 c-30 -98 -30 -103 -2 -92 19 7 41 68 33 89 -7 18 -25 20
-31 3z"/>
<path d="M1082 1298 c-19 -19 -14 -76 8 -98 22 -22 60 -26 91 -10 14 8 19 21
19 53 0 54 -13 67 -65 67 -23 0 -46 -5 -53 -12z"/>
<path d="M858 1279 c-25 -14 -24 -80 0 -102 44 -40 95 -5 96 66 l1 42 -40 2
c-22 2 -48 -2 -57 -8z"/>
<path d="M1327 1252 c-22 -24 -22 -66 -1 -87 11 -11 30 -15 58 -13 38 3 42 5
50 41 13 52 0 71 -51 75 -28 2 -44 -2 -56 -16z"/>
<path d="M2870 1214 c-8 -21 -7 -32 5 -50 19 -30 41 -31 48 -2 7 25 -11 69
-30 76 -7 2 -18 -9 -23 -24z"/>
<path d="M1556 1204 c-22 -58 14 -121 62 -109 36 8 50 24 58 61 8 43 -15 64
-71 64 -30 0 -45 -5 -49 -16z"/>
<path d="M1805 1160 c-11 -12 -19 -37 -19 -63 -1 -42 -1 -42 38 -45 47 -4 86
27 86 69 0 52 -70 78 -105 39z"/>
<path d="M2040 1115 c-6 -8 -16 -30 -20 -50 -10 -45 8 -65 59 -65 46 0 61 15
68 68 5 37 3 40 -27 51 -44 15 -65 14 -80 -4z"/>
<path d="M2266 1058 c-32 -46 -13 -90 43 -103 45 -10 71 9 71 50 0 67 -79 103
-114 53z"/>
<path d="M2503 1029 c-20 -20 -16 -83 5 -102 19 -17 87 -24 96 -9 13 22 16 79
4 95 -17 23 -88 34 -105 16z"/>
</g>
</svg>
