<?xml version="1.0" standalone="no"?>
<!DOCTYPE svg PUBLIC "-//W3C//DTD SVG 20010904//EN"
 "http://www.w3.org/TR/2001/REC-SVG-20010904/DTD/svg10.dtd">
<svg version="1.0" xmlns="http://www.w3.org/2000/svg"
 width="612.000000pt" height="1080.000000pt" viewBox="0 0 612.000000 1080.000000"
 preserveAspectRatio="xMidYMid meet">

<g transform="translate(0.000000,1080.000000) scale(0.100000,-0.100000)"
fill="#000000" stroke="none">
<path d="M2239 10792 c-15 -2 -34 -11 -43 -21 -14 -16 -15 -23 -4 -57 12 -37
16 -39 56 -42 54 -4 72 10 72 58 0 50 -26 69 -81 62z"/>
<path d="M3708 10783 c-9 -10 -25 -36 -36 -59 -19 -38 -25 -42 -71 -47 -27 -3
-71 -17 -98 -30 -26 -14 -67 -31 -91 -38 -50 -15 -72 -41 -72 -86 0 -36 21
-53 67 -53 15 0 34 -4 42 -9 21 -13 0 -57 -50 -106 -39 -37 -41 -42 -35 -83
l6 -43 -37 30 c-46 38 -80 39 -148 7 -90 -42 -128 -106 -119 -197 8 -86 13
-99 45 -128 16 -15 33 -41 38 -59 9 -29 7 -32 -27 -49 -49 -24 -62 -70 -39
-141 10 -28 17 -75 17 -106 0 -36 5 -60 16 -70 19 -19 6 -19 100 -1 43 8 79
13 81 11 2 -2 -12 -17 -32 -35 -36 -31 -47 -35 -98 -31 -39 2 -97 -57 -97
-100 0 -55 26 -90 68 -90 27 0 29 -21 2 -45 -29 -27 -35 -78 -15 -131 20 -53
16 -68 -24 -89 l-31 -16 0 30 c0 97 -112 4 -179 -149 -25 -58 -28 -87 -12
-133 7 -21 11 -48 8 -59 -7 -27 6 -61 43 -107 29 -35 31 -42 24 -90 l-7 -53
51 -51 c27 -29 57 -67 66 -85 16 -31 14 -72 -4 -72 -4 0 -21 -13 -38 -28 -24
-23 -31 -40 -37 -88 -9 -72 -22 -107 -35 -99 -5 3 -10 27 -10 53 0 49 -21 92
-45 92 -7 0 -22 -16 -34 -35 -18 -32 -24 -35 -66 -35 -53 0 -68 -19 -39 -51
16 -18 27 -20 68 -15 48 5 48 5 31 -14 -10 -11 -26 -20 -35 -20 -28 0 -70 -39
-70 -65 0 -46 62 -66 123 -40 13 5 17 2 17 -13 0 -32 24 -49 79 -56 88 -12 75
-37 -29 -56 -78 -14 -130 -35 -130 -51 0 -7 -19 -36 -41 -65 -47 -61 -68 -112
-69 -166 0 -48 31 -70 109 -76 50 -4 61 -1 88 22 23 19 42 26 75 26 24 0 54 7
66 16 21 14 22 14 22 -5 0 -12 -33 -50 -86 -98 -121 -110 -131 -133 -143 -321
-5 -67 -11 -125 -14 -128 -3 -3 -11 -3 -18 1 -9 6 -10 41 -6 137 4 72 2 139
-3 153 -11 30 -69 60 -132 69 -56 8 -73 -4 -113 -84 -14 -27 -27 -50 -30 -50
-3 0 -11 16 -20 36 -8 20 -24 38 -35 41 -24 6 -24 6 -6 41 16 32 44 151 48
202 2 28 9 38 35 51 18 9 40 22 48 29 18 15 20 63 3 90 -11 17 -9 27 10 60 28
50 28 75 -4 184 l-26 88 37 38 c36 37 37 39 25 74 -13 41 -43 66 -80 66 -30 0
-50 -17 -50 -41 0 -29 -28 -51 -51 -39 -31 17 -24 57 16 93 32 28 40 46 59
128 4 20 20 34 62 54 30 15 72 44 93 64 37 35 38 39 44 121 4 47 2 114 -4 150
-6 36 -10 96 -10 133 2 53 -3 75 -19 102 l-21 33 21 40 c28 53 46 167 31 198
-8 19 -18 24 -48 24 -57 0 -69 11 -54 48 7 17 23 40 37 53 26 24 42 85 27 100
-9 9 -29 13 -80 18 -17 1 -16 42 2 65 35 46 6 86 -62 86 -53 0 -55 19 -3 36
44 15 60 39 60 91 l0 43 58 -27 c31 -14 70 -32 85 -41 24 -12 33 -12 54 -1 28
15 93 100 93 122 0 28 -67 50 -130 44 l-58 -6 -6 40 c-4 23 -15 57 -26 78 -11
20 -22 48 -25 63 -7 37 -114 148 -143 148 -31 0 -62 -54 -62 -108 0 -53 18
-98 64 -158 29 -37 36 -56 36 -91 0 -37 -6 -50 -39 -86 -21 -23 -42 -56 -45
-74 -4 -17 -14 -37 -22 -44 -10 -8 -14 -26 -12 -53 2 -31 -1 -41 -12 -41 -12
0 -16 19 -21 85 -4 67 -11 96 -33 138 -15 28 -31 52 -35 52 -4 0 -7 21 -7 47
1 45 0 47 -33 55 -53 14 -77 3 -101 -47 -49 -102 -133 -127 -146 -44 -5 31
-17 48 -54 79 -46 39 -50 40 -90 31 -22 -5 -40 -6 -38 -3 33 65 33 64 13 78
-50 37 -146 21 -196 -32 -27 -29 -20 -50 25 -72 15 -8 26 -16 23 -18 -2 -2
-30 -9 -63 -15 -83 -15 -91 -22 -104 -81 -10 -45 -9 -60 5 -98 9 -25 19 -58
22 -73 3 -16 18 -38 34 -49 30 -23 30 -38 -1 -38 -27 0 -90 -58 -90 -82 0 -18
24 -44 90 -96 l24 -19 -59 -29 -60 -29 3 -54 c3 -58 -5 -71 -46 -71 -39 0 -81
-29 -102 -70 -25 -49 -26 -102 -2 -123 38 -34 136 -64 227 -68 38 -2 55 -9 73
-28 12 -13 21 -29 19 -35 -2 -6 -28 -16 -57 -23 -29 -6 -67 -21 -83 -34 -31
-23 -68 -23 -223 -3 -57 7 -72 -2 -106 -64 -26 -49 -45 -33 -50 44 -5 84 -32
114 -106 122 -69 6 -77 -11 -62 -116 21 -136 47 -165 131 -144 33 8 48 7 82
-8 23 -10 65 -21 92 -25 116 -14 121 -16 102 -30 -38 -28 -6 -87 101 -187 69
-64 112 -78 165 -57 45 17 67 38 84 78 13 31 17 33 49 28 19 -3 48 -16 65 -28
l31 -22 -30 -30 c-24 -24 -40 -30 -79 -32 -34 -1 -60 -10 -82 -25 -23 -18 -49
-25 -102 -29 -103 -8 -116 -43 -48 -127 17 -21 36 -51 41 -66 6 -16 16 -28 24
-28 21 0 17 -14 -10 -39 -31 -29 -41 -96 -28 -177 6 -32 13 -107 17 -165 l6
-106 -55 -12 c-31 -7 -58 -17 -61 -22 -10 -16 -41 -10 -61 12 -18 20 -65 49
-80 49 -4 0 -4 -20 -1 -44 5 -35 2 -48 -13 -66 -25 -29 -25 -45 0 -70 29 -29
49 -25 66 16 l15 37 50 -52 c35 -35 81 -66 151 -101 55 -27 108 -50 118 -50
24 0 132 57 148 78 12 16 15 15 33 -8 11 -14 27 -33 35 -43 8 -10 23 -17 32
-15 13 3 18 16 20 66 2 34 7 62 11 62 16 0 71 -70 71 -89 0 -11 -11 -43 -25
-73 -14 -29 -25 -63 -25 -74 0 -12 -11 -29 -26 -38 -25 -17 -26 -16 -57 14
-49 48 -91 65 -222 89 -246 43 -281 24 -309 -165 -13 -84 -14 -86 -64 -132
-82 -76 -129 -206 -102 -286 13 -41 32 -54 93 -64 35 -6 45 -13 58 -41 9 -19
24 -40 34 -48 16 -11 0 -13 -116 -13 -166 -1 -232 -18 -237 -63 -5 -38 -43
-53 -85 -32 -28 14 -32 14 -55 -2 -14 -10 -31 -22 -39 -28 -10 -7 -18 -5 -27
8 -17 22 -74 22 -105 1 -36 -26 -52 -74 -39 -120 16 -59 56 -135 91 -171 l31
-33 -31 0 c-18 0 -39 -7 -47 -16 -30 -29 -16 -107 27 -152 21 -23 26 -23 112
-17 50 4 102 13 116 21 15 7 41 36 58 64 33 54 55 70 74 51 8 -8 8 -20 -2 -48
-8 -20 -13 -56 -13 -80 l1 -43 -52 6 c-66 8 -87 -8 -120 -91 l-23 -60 -79 -3
c-44 -2 -85 -8 -92 -14 -7 -5 -15 -25 -19 -43 -9 -49 -40 -95 -65 -95 -41 0
-59 -18 -59 -60 0 -56 -6 -66 -63 -94 -65 -32 -132 -99 -166 -167 -30 -60 -74
-96 -130 -104 -20 -3 -43 -10 -51 -14 -22 -12 -24 -46 -5 -75 20 -31 18 -32
-74 -40 -75 -7 -91 -17 -91 -61 0 -17 -12 -54 -27 -81 -24 -44 -27 -61 -31
-177 -5 -158 -1 -174 43 -193 32 -13 35 -18 35 -58 0 -49 14 -66 68 -81 27 -8
38 -18 46 -42 19 -55 39 -68 109 -67 133 2 267 100 267 196 0 43 -54 151 -97
194 -28 29 -30 34 -18 51 35 45 9 62 -123 79 -60 8 -59 11 15 49 48 25 54 26
68 11 22 -22 64 -20 100 4 17 11 58 29 92 40 73 22 174 72 192 94 23 28 30 18
24 -34 -5 -43 -1 -59 26 -112 17 -35 42 -75 55 -90 36 -40 95 -78 123 -78 13
0 41 -12 62 -26 27 -17 56 -27 89 -28 57 -3 133 -42 159 -82 30 -46 62 -54
237 -61 121 -4 172 -3 195 6 39 17 48 41 22 62 -26 22 -162 58 -244 66 -75 7
-100 18 -77 33 8 5 33 10 55 10 60 0 105 16 140 50 58 57 141 49 172 -15 9
-19 20 -35 25 -35 21 0 81 -69 137 -159 61 -97 70 -131 37 -131 -37 0 -96
-130 -96 -212 0 -16 -7 -45 -15 -65 -17 -41 -19 -79 -5 -88 15 -9 12 -25 -5
-25 -22 0 -81 -56 -126 -121 -23 -32 -51 -65 -64 -73 -13 -9 -24 -29 -28 -51
-3 -20 -24 -63 -46 -96 -82 -122 -78 -163 22 -254 l60 -55 -65 0 c-49 0 -76
-6 -109 -23 -53 -28 -104 -92 -120 -149 -6 -23 -31 -70 -55 -106 -60 -88 -64
-106 -28 -144 49 -51 110 -82 211 -108 45 -11 56 -24 68 -79 l7 -33 -37 41
c-34 38 -41 41 -87 41 -36 0 -64 8 -99 27 -45 26 -50 27 -65 11 -13 -13 -17
-36 -18 -105 0 -98 8 -122 75 -206 27 -35 40 -61 44 -95 9 -80 24 -131 50
-170 32 -49 44 -108 45 -217 0 -112 10 -146 55 -196 19 -21 35 -44 35 -51 0
-7 12 -29 27 -51 21 -30 24 -40 13 -47 -11 -7 -10 -15 4 -45 17 -35 20 -79 14
-165 -3 -32 0 -36 37 -53 22 -11 50 -28 62 -39 17 -16 35 -20 73 -19 27 0 50
-1 50 -3 0 -2 -16 -23 -35 -46 -41 -49 -42 -57 -15 -133 11 -31 20 -74 20 -95
0 -47 16 -69 57 -81 28 -8 42 -5 88 20 65 34 69 35 102 9 14 -11 39 -20 55
-20 16 0 50 -11 77 -24 91 -47 594 -389 1018 -693 95 -68 179 -126 187 -129
10 -4 34 29 81 113 37 65 75 127 85 138 10 11 26 52 36 90 20 83 49 144 71
152 9 4 36 -4 59 -17 43 -22 44 -22 71 -5 16 10 71 58 123 107 83 76 140 123
227 183 16 11 23 30 28 69 8 65 -9 259 -36 405 -10 58 -19 113 -19 123 0 17 2
17 24 3 16 -11 41 -15 77 -13 49 3 55 6 75 38 13 19 35 50 50 68 23 29 25 36
15 58 -16 35 -13 65 7 90 22 28 54 44 86 44 13 0 38 12 55 26 40 33 41 79 5
133 -34 52 -54 122 -54 191 0 104 -60 239 -115 260 -24 9 -25 14 -25 83 0 86
-9 102 -83 147 -61 37 -61 37 -18 130 15 32 21 65 21 116 l0 72 30 6 c43 8 63
55 45 107 -12 34 -11 40 16 85 16 27 44 70 63 96 55 76 81 221 54 296 -13 33
-12 35 25 67 21 18 57 38 81 44 58 14 106 60 106 99 0 40 23 62 66 62 20 0 44
5 55 10 29 16 59 84 59 134 0 52 22 81 54 72 12 -4 42 -9 68 -13 l46 -6 -5 62
c-4 45 -3 61 7 61 9 0 11 16 8 58 -3 47 -10 66 -37 99 l-33 41 26 44 c14 23
28 62 32 85 6 39 4 44 -29 75 -24 23 -40 52 -51 89 -15 50 -15 59 -1 92 8 20
15 55 15 77 0 58 14 80 52 80 54 0 114 38 219 138 l101 96 -7 85 c-10 136 -32
256 -70 391 -37 132 -42 181 -24 243 14 51 -3 131 -41 191 -24 38 -37 47 -75
57 -28 7 -52 21 -61 34 -27 42 9 80 66 69 29 -6 37 -1 104 67 96 98 151 206
143 279 -8 70 -48 141 -106 190 -44 36 -51 47 -51 77 0 20 -7 72 -16 117 -14
67 -15 93 -6 154 7 40 21 90 32 112 11 21 20 55 20 74 0 47 34 65 143 76 95
10 111 15 155 47 40 30 40 51 1 119 -43 76 -38 89 36 89 l59 0 0 34 c1 29 7
37 40 56 60 34 81 69 80 135 -1 62 -18 101 -75 174 -22 27 -39 55 -39 62 0 8
-16 20 -35 28 -19 8 -38 23 -42 33 -31 89 -117 271 -133 285 -11 9 -46 22 -78
28 -31 7 -94 32 -139 56 -94 51 -132 55 -175 19 -40 -33 -52 -32 -104 14 -25
21 -60 42 -79 45 -40 8 -51 32 -42 99 9 64 23 70 154 62 l112 -7 35 38 35 38
71 -12 c105 -18 128 -15 209 24 84 41 97 40 164 -11 55 -42 115 -66 176 -68
39 -2 46 2 77 38 69 81 94 206 53 259 -13 16 -18 33 -14 46 8 25 62 70 85 70
10 0 30 14 44 31 36 43 36 109 0 156 -14 19 -27 48 -28 65 -4 55 -123 123
-214 121 -46 -1 -57 2 -84 29 -35 34 -6 33 -267 7 -97 -10 -133 -10 -168 0
-39 10 -52 9 -89 -5 -35 -13 -47 -14 -59 -4 -19 16 -19 43 1 82 30 58 23 247
-13 348 -12 34 -15 54 -8 64 49 66 47 58 29 136 -9 40 -23 88 -30 106 -8 18
-14 44 -14 57 0 33 -34 73 -81 97 -46 24 -120 26 -179 5 -54 -19 -69 -14 -109
35 -18 23 -55 51 -86 66 -77 36 -162 142 -193 242 -29 90 -66 136 -110 134
-48 -1 -91 -29 -178 -116 l-81 -81 -58 9 c-37 6 -75 6 -108 -1 -74 -15 -87 -9
-87 41 0 96 -58 186 -119 186 -15 0 -35 -8 -43 -17z m-1861 -1139 c3 -9 -2
-29 -11 -44 -15 -27 -15 -31 1 -64 19 -41 14 -53 -16 -37 -42 23 -64 99 -41
142 13 23 58 25 67 3z m13 -305 c0 -14 -7 -43 -15 -62 -19 -46 -19 -81 0 -97
8 -7 14 -23 13 -35 -1 -13 4 -35 12 -49 7 -14 10 -29 7 -33 -10 -10 -47 28
-69 70 -18 35 -19 51 -12 164 l7 124 28 -27 c18 -17 29 -38 29 -55z m526 -375
c-3 -9 -9 -27 -12 -40 -5 -21 -12 -24 -48 -24 -42 0 -66 13 -66 37 0 8 13 13
33 13 17 1 43 7 57 15 33 19 43 19 36 -1z m1510 -55 c-4 -23 -13 -54 -21 -70
-19 -36 -19 -70 -1 -114 15 -35 15 -35 -16 -51 -17 -9 -76 -61 -131 -115 -94
-93 -160 -139 -202 -139 -15 0 -7 13 34 54 29 29 71 67 93 82 111 81 138 120
149 222 5 48 15 75 43 117 44 67 61 71 52 14z m-1655 -365 c33 -35 34 -36 14
-50 -27 -20 -135 -2 -135 23 0 14 54 63 70 63 9 0 32 -16 51 -36z m-357 -583
c3 -4 -1 -17 -9 -27 -17 -24 -94 -25 -145 -2 l-35 16 65 2 c36 1 74 5 85 10
27 11 33 12 39 1z m551 -1089 c-17 -116 -17 -118 4 -179 12 -34 21 -67 21 -73
0 -19 -76 -11 -95 10 -10 11 -28 20 -39 20 -19 1 -18 2 5 15 34 19 50 81 51
199 1 78 2 86 20 86 10 0 21 7 23 15 26 83 30 44 10 -93z m-413 11 c25 -39 86
-195 95 -246 6 -31 -19 -67 -47 -67 -9 0 -27 11 -40 25 -13 14 -29 25 -35 25
-7 0 -25 10 -40 21 -30 24 -30 39 0 119 12 33 15 60 10 103 -5 52 -4 57 13 57
11 0 30 -16 44 -37z m652 -288 c20 -13 25 -13 42 0 28 21 41 18 48 -10 4 -15
14 -25 25 -25 28 0 31 -10 14 -49 -9 -20 -35 -86 -58 -148 l-41 -112 -16 104
c-18 112 -45 178 -81 196 -32 17 -32 17 -12 39 22 24 47 25 79 5z m36 -692 c0
-10 -16 -94 -35 -188 l-34 -170 19 -27 c11 -15 20 -29 20 -32 0 -3 -18 -26
-40 -51 -51 -59 -64 -84 -96 -187 -41 -133 -90 -227 -121 -234 -22 -6 -32 -1
-61 31 l-35 38 28 24 c26 23 28 23 46 7 30 -27 44 -4 44 74 0 63 3 73 42 132
77 119 113 231 113 352 0 64 4 79 25 108 14 19 30 53 36 75 12 42 26 65 40 65
5 0 9 -8 9 -17z m-351 -997 c9 -10 8 -25 -5 -62 -18 -53 -52 -124 -59 -124 -3
0 -14 18 -25 40 -25 49 -26 111 -2 132 33 29 73 36 91 14z m45 -2551 c26 -27
41 -35 68 -35 39 0 61 18 56 47 -6 33 44 28 94 -10 67 -51 87 -60 125 -54 35
6 93 -9 93 -24 0 -5 -14 -9 -30 -9 -46 0 -60 -37 -31 -85 32 -55 8 -74 -43
-34 -16 12 -31 38 -37 66 -14 53 -29 61 -75 39 -46 -21 -68 -20 -113 6 -38 22
-39 22 -80 3 l-41 -18 -31 29 c-52 49 -56 64 -23 91 16 13 30 23 32 23 2 0 18
-16 36 -35z"/>
<path d="M2436 10782 c-3 -6 -9 -30 -12 -54 -7 -53 8 -70 63 -72 31 -1 39 4
49 24 24 51 25 79 5 89 -29 16 -98 24 -105 13z"/>
<path d="M2659 10709 c-15 -29 -3 -86 22 -100 31 -16 67 -3 84 31 31 60 14 90
-52 90 -33 0 -45 -5 -54 -21z"/>
<path d="M1998 10699 c-41 -21 -47 -42 -22 -77 24 -34 48 -43 83 -31 39 14 47
42 26 90 -20 44 -33 47 -87 18z"/>
<path d="M2905 10665 c-29 -29 -35 -89 -9 -99 28 -11 81 -6 93 8 7 8 15 31 18
52 5 29 2 40 -12 50 -28 21 -63 17 -90 -11z"/>
<path d="M3116 10624 c-3 -9 -6 -28 -6 -44 0 -48 9 -60 47 -60 55 0 73 15 73
60 0 45 -18 60 -73 60 -23 0 -37 -6 -41 -16z"/>
<path d="M1796 10561 c-32 -33 -29 -59 10 -90 31 -25 61 -17 85 23 24 39 24
42 -6 71 -32 33 -55 31 -89 -4z"/>
<path d="M1632 10402 c-23 -20 -42 -42 -42 -49 0 -12 69 -73 82 -73 16 0 78
63 78 79 0 15 -58 82 -70 81 -3 0 -24 -17 -48 -38z"/>
<path d="M2239 10397 c-19 -12 -42 -40 -52 -61 -21 -44 -47 -45 -58 -3 -16 59
-52 74 -90 36 -14 -14 -28 -19 -45 -15 -59 15 -131 -49 -141 -125 -8 -55 12
-73 116 -105 101 -31 173 -66 218 -105 36 -31 77 -42 143 -37 44 3 44 3 61 58
9 30 26 79 38 108 24 61 27 102 7 140 -20 39 -121 132 -144 132 -10 0 -34 -10
-53 -23z"/>
<path d="M1487 10253 c-16 -16 -4 -43 34 -78 39 -35 42 -36 60 -20 13 12 16
22 10 34 -22 39 -88 81 -104 64z"/>
<path d="M2802 9508 c-6 -6 -12 -22 -12 -35 0 -18 6 -23 24 -23 32 0 53 26 39
48 -13 22 -35 26 -51 10z"/>
<path d="M615 8348 c-51 -28 -74 -109 -39 -138 23 -20 37 -51 40 -93 5 -51 19
-67 61 -67 116 0 151 120 65 227 -70 87 -84 95 -127 71z"/>
<path d="M2802 8238 c-6 -6 -12 -22 -12 -35 0 -18 6 -23 24 -23 28 0 49 22 44
47 -4 22 -38 29 -56 11z"/>
<path d="M1267 8113 c-14 -13 -6 -61 14 -87 56 -71 125 -45 78 30 -30 50 -73
76 -92 57z"/>
<path d="M1438 7703 c-52 -57 -64 -116 -28 -148 29 -27 69 -10 97 40 29 51 29
86 0 113 -30 28 -38 28 -69 -5z"/>
<path d="M1031 6811 c-13 -18 -29 -28 -46 -28 -13 0 -36 -8 -51 -17 -23 -16
-24 -19 -11 -39 8 -12 41 -31 73 -42 33 -11 89 -37 126 -58 82 -46 108 -48
108 -9 0 57 -74 183 -122 208 -39 20 -54 17 -77 -15z"/>
<path d="M596 4704 c-39 -38 5 -140 77 -179 45 -24 62 -12 71 49 7 48 -9 101
-37 124 -28 23 -91 27 -111 6z"/>
<path d="M1724 4120 c-32 -16 -76 -47 -97 -68 l-39 -39 27 -53 c22 -44 26 -62
21 -100 -7 -56 -2 -64 34 -45 37 19 195 188 228 244 l26 44 -28 23 c-39 34
-97 32 -172 -6z"/>
<path d="M856 2829 c-17 -4 -46 -26 -66 -48 -41 -45 -87 -61 -173 -61 -79 0
-117 -20 -117 -63 0 -17 9 -47 20 -65 19 -30 23 -32 60 -26 51 8 96 -10 104
-42 4 -14 27 -39 51 -56 48 -34 54 -48 30 -68 -8 -7 -15 -23 -15 -36 0 -13 -9
-33 -21 -45 -30 -30 -38 -69 -33 -147 6 -76 -3 -155 -16 -147 -5 3 -14 23 -19
43 -6 20 -23 53 -39 72 -27 32 -31 34 -56 22 -15 -6 -36 -28 -47 -47 -17 -28
-32 -38 -76 -51 -61 -18 -114 -59 -132 -103 -10 -23 -9 -44 4 -107 9 -43 24
-87 33 -97 9 -11 18 -29 18 -41 1 -11 8 -35 15 -52 11 -27 10 -37 -5 -69 -14
-30 -16 -50 -11 -106 8 -76 2 -84 -43 -49 -22 18 -28 19 -39 7 -9 -9 -12 -23
-7 -41 7 -28 9 -30 55 -40 14 -3 31 -17 37 -32 14 -29 8 -44 -15 -44 -9 0 -35
-20 -59 -44 -49 -51 -61 -97 -51 -202 7 -70 16 -93 58 -141 28 -32 28 -34 14
-74 -18 -50 -19 -90 -4 -160 14 -66 42 -94 102 -103 26 -4 51 -14 55 -23 5 -9
28 -17 54 -20 59 -7 78 12 78 77 0 63 7 80 35 80 15 0 37 -16 62 -46 l39 -45
26 26 c33 33 42 70 27 108 -11 27 -10 32 10 48 32 27 81 25 81 -1 0 -32 27
-90 42 -90 16 0 88 71 88 86 0 5 -11 26 -25 46 -32 47 -32 56 7 102 l31 38 16
-33 c9 -19 29 -40 45 -47 27 -14 30 -13 76 33 47 46 49 47 71 31 34 -23 110
-21 132 4 25 30 73 26 113 -10 18 -16 48 -31 66 -34 130 -19 133 -20 136 -48
4 -36 37 -45 87 -24 l38 16 -6 115 c-8 139 -27 187 -82 205 -41 13 -79 71 -89
135 -4 22 -14 54 -23 71 -15 29 -15 32 7 62 41 56 27 123 -45 218 -23 30 -36
59 -39 91 -20 163 -43 220 -100 247 l-34 16 14 37 c31 89 12 239 -47 349 -21
41 -39 84 -39 96 0 28 -46 105 -70 118 -10 5 -34 10 -54 10 -39 0 -57 18 -32
32 39 22 -2 98 -77 142 -39 23 -153 57 -187 55 -8 0 -28 -5 -44 -10z m252
-241 c14 -14 16 -48 3 -48 -6 0 -13 4 -16 10 -3 5 -15 15 -26 20 -16 9 -21 6
-31 -17 -7 -15 -17 -31 -23 -35 -14 -10 -65 -10 -65 0 0 10 48 56 75 70 27 15
68 15 83 0z"/>
</g>
</svg>
