<?xml version="1.0" standalone="no"?>
<!DOCTYPE svg PUBLIC "-//W3C//DTD SVG 20010904//EN"
 "http://www.w3.org/TR/2001/REC-SVG-20010904/DTD/svg10.dtd">
<svg version="1.0" xmlns="http://www.w3.org/2000/svg"
 width="912.000000pt" height="1080.000000pt" viewBox="0 0 912.000000 1080.000000"
 preserveAspectRatio="xMidYMid meet">

<g transform="translate(0.000000,1080.000000) scale(0.100000,-0.100000)"
fill="#000000" stroke="none">
<path d="M604 10771 c-18 -11 -44 -36 -60 -56 -23 -31 -26 -40 -16 -56 7 -10
17 -27 24 -38 17 -27 5 -46 -44 -69 -36 -16 -53 -19 -103 -12 -71 9 -91 1
-100 -41 -7 -33 -79 -119 -99 -119 -6 0 -17 9 -23 19 -7 11 -29 25 -50 30 -44
13 -103 14 -103 4 0 -5 7 -60 15 -123 15 -119 30 -180 46 -180 23 0 5 -42 -31
-70 -48 -38 -51 -66 -11 -104 24 -23 37 -27 77 -26 27 1 52 1 56 1 4 -1 -4
-25 -17 -53 -26 -56 -32 -126 -15 -159 7 -12 21 -19 41 -19 16 0 47 -12 68
-26 42 -27 60 -71 64 -154 l2 -45 -36 3 c-46 3 -62 -16 -61 -73 0 -55 30 -106
78 -136 50 -30 67 -60 55 -93 -8 -19 -17 -26 -38 -26 -16 0 -43 -9 -60 -20
-42 -25 -43 -60 -3 -120 34 -52 36 -65 14 -109 -19 -39 -12 -93 17 -122 27
-27 47 -24 67 13 9 17 27 42 39 55 l22 23 63 -64 c75 -74 114 -90 190 -76 27
6 54 12 59 16 6 3 31 -10 56 -30 26 -20 52 -36 59 -36 20 0 40 38 58 108 24
96 56 133 85 98 9 -10 6 -24 -9 -57 -35 -79 -17 -226 35 -278 20 -21 35 -26
70 -25 25 0 45 -2 45 -5 0 -27 -85 -91 -121 -91 -6 0 -24 14 -39 30 -15 17
-37 30 -49 30 -15 0 -23 9 -29 32 -11 44 -33 55 -75 40 -51 -18 -167 -16 -182
4 -9 13 -20 15 -55 9 -57 -10 -90 -43 -90 -91 0 -30 7 -44 41 -76 23 -22 40
-41 38 -42 -2 -2 -15 -9 -27 -15 -34 -18 -70 -107 -89 -221 -15 -86 -15 -101
-2 -136 19 -51 50 -57 93 -16 17 16 41 33 54 37 12 3 22 13 22 21 0 8 7 14 15
14 23 0 18 -35 -12 -89 -34 -60 -25 -76 48 -83 30 -3 57 -12 67 -23 16 -16 12
-17 -93 -11 -60 4 -115 3 -121 -1 -23 -18 -44 -59 -44 -89 0 -24 8 -39 31 -58
17 -14 35 -26 40 -26 19 0 8 -16 -19 -28 -16 -6 -36 -27 -45 -45 -9 -17 -22
-40 -29 -49 -10 -14 -9 -21 9 -40 27 -29 43 -70 43 -112 0 -49 29 -69 103 -74
56 -3 64 -1 85 21 29 31 41 81 42 170 0 81 11 105 85 188 32 35 59 77 65 99 6
21 35 89 66 151 31 63 62 131 70 152 7 20 25 48 40 61 26 22 27 25 14 55 -12
30 -11 34 19 65 20 21 31 42 31 61 0 38 8 48 44 66 16 8 38 31 49 51 10 21 23
35 28 32 18 -11 8 -50 -21 -86 -45 -54 -71 -148 -63 -226 7 -69 18 -82 74 -82
33 0 33 0 -21 -32 -60 -37 -90 -83 -90 -141 0 -51 14 -74 55 -91 37 -16 47
-33 65 -104 14 -55 33 -62 71 -26 24 23 33 26 47 18 28 -18 27 -44 0 -44 -24
0 -68 -32 -68 -50 0 -13 18 -28 65 -54 51 -28 59 -56 15 -56 -17 0 -33 6 -36
14 -3 8 -19 20 -35 26 -16 7 -34 21 -40 31 -5 10 -27 23 -48 30 -33 10 -45 8
-86 -10 -26 -11 -49 -21 -51 -21 -2 0 -11 14 -19 31 -16 30 -17 30 -41 14 -14
-9 -48 -23 -75 -31 -41 -12 -52 -21 -69 -54 -31 -62 -27 -109 16 -158 39 -46
88 -76 109 -68 15 5 25 -34 25 -99 0 -36 -7 -50 -50 -99 -28 -31 -50 -61 -50
-67 0 -5 18 -16 39 -25 22 -8 42 -22 45 -31 6 -14 -17 -227 -32 -302 -6 -29
-13 -37 -49 -48 -36 -12 -46 -22 -70 -70 -23 -47 -27 -71 -29 -152 -2 -53 -3
-107 -3 -121 -1 -14 -17 -50 -37 -80 -31 -49 -35 -60 -30 -102 6 -54 30 -106
52 -115 10 -4 24 4 37 20 12 14 33 27 47 29 29 4 73 79 67 115 -3 17 2 23 24
28 19 4 31 16 38 36 13 38 31 37 31 -1 0 -67 85 -45 183 48 86 81 186 162 200
162 21 0 67 50 67 72 0 12 -7 29 -16 39 -28 32 -11 50 40 43 57 -8 68 10 36
61 -25 41 -10 48 33 15 14 -11 31 -20 37 -20 12 0 11 8 -6 91 -7 34 21 89 45
89 14 0 20 -10 25 -41 4 -23 18 -55 32 -72 17 -20 23 -36 18 -51 -11 -38 -47
-83 -86 -107 -57 -36 -60 -71 -7 -100 15 -8 23 -2 45 33 25 39 28 41 38 23 6
-10 28 -38 50 -62 63 -70 146 -70 130 1 -4 17 -13 40 -20 51 -8 11 -14 31 -14
44 0 24 2 23 44 -18 l45 -44 30 34 c17 18 33 30 37 27 3 -4 7 -58 8 -121 1
-99 4 -118 20 -136 12 -13 21 -39 22 -64 1 -23 2 -45 3 -49 1 -4 20 -17 44
-29 46 -23 77 -48 77 -61 0 -16 -47 -8 -73 12 -14 11 -40 20 -60 20 -42 0 -53
12 -67 75 -13 57 -34 85 -65 85 -35 0 -52 -22 -64 -84 -8 -41 -22 -73 -46
-105 -20 -25 -38 -56 -42 -69 -9 -37 9 -75 42 -90 49 -21 58 -28 65 -43 21
-44 30 -56 61 -77 23 -16 41 -21 58 -17 27 7 41 -7 41 -42 0 -16 8 -24 28 -29
56 -12 62 -16 66 -37 3 -12 7 -34 11 -49 3 -16 3 -28 -1 -28 -3 0 -38 26 -78
58 -103 84 -122 95 -151 88 -19 -5 -27 -1 -38 19 -12 25 -31 41 -159 142 -29
23 -71 60 -93 82 -85 86 -141 73 -187 -45 -26 -65 -27 -67 -28 -32 0 20 -4 48
-10 62 -9 24 -13 25 -54 20 -41 -6 -46 -4 -55 17 -12 31 -59 75 -94 88 -25 10
-32 8 -58 -18 -35 -36 -35 -39 -4 -82 13 -19 32 -45 41 -57 15 -20 16 -29 6
-56 -7 -18 -12 -43 -12 -55 0 -36 -27 -8 -40 40 -12 44 -37 62 -83 57 -48 -5
-69 -55 -75 -177 -6 -135 18 -181 70 -134 17 15 18 14 18 -19 0 -20 -11 -56
-25 -81 l-26 -45 31 -48 c16 -26 30 -56 30 -67 0 -33 20 -57 46 -57 14 0 45
-9 70 -21 31 -13 55 -18 75 -14 26 6 29 4 29 -19 0 -20 -6 -27 -27 -32 -61
-13 -61 -13 -68 -69 -7 -63 6 -96 60 -143 42 -37 75 -48 103 -33 22 12 35 2
46 -36 10 -32 40 -37 92 -14 25 12 50 18 55 15 17 -10 9 -61 -16 -98 -14 -20
-25 -43 -25 -51 0 -17 31 -38 83 -56 33 -12 39 -11 55 4 20 21 24 129 4 149
-14 14 -16 58 -2 58 5 0 14 -9 20 -21 8 -14 19 -19 38 -17 22 2 26 7 24 28 -6
44 -35 75 -76 78 -31 3 -38 8 -51 38 -8 19 -18 34 -22 34 -11 0 -118 148 -118
163 0 6 15 14 32 18 18 3 40 12 48 19 13 11 13 16 -2 41 -17 28 -16 29 10 57
15 16 45 39 67 51 36 20 41 21 46 6 12 -30 -5 -86 -35 -121 -50 -57 -54 -114
-8 -114 13 0 32 7 43 15 10 8 27 15 38 15 21 0 19 -14 -11 -93 -18 -47 -18
-49 1 -63 11 -7 41 -17 66 -20 56 -7 62 -11 77 -47 7 -15 19 -27 28 -27 33 0
10 -27 -70 -83 -17 -12 -25 -26 -23 -40 4 -32 32 -32 70 0 18 16 46 34 61 41
38 16 87 16 87 -1 0 -19 30 -43 62 -51 41 -9 47 -48 17 -104 -22 -42 -30 -47
-79 -60 -71 -18 -80 -26 -80 -76 0 -112 54 -193 100 -151 29 26 25 51 -13 88
-18 18 -31 31 -28 30 2 -2 10 2 17 8 31 25 164 -74 164 -122 0 -99 144 -34
209 93 33 64 38 7 15 -153 -6 -41 -4 -48 14 -53 12 -4 41 4 76 21 30 15 59 24
62 20 11 -10 -44 -65 -91 -92 -22 -12 -63 -30 -92 -39 -28 -10 -57 -23 -63
-31 -17 -21 -3 -51 34 -75 43 -26 87 -26 109 1 14 15 27 19 60 17 l42 -3 0
-60 0 -60 43 3 c35 3 47 0 58 -17 16 -23 127 -101 143 -101 20 0 23 -23 6 -54
-26 -48 -13 -80 64 -157 49 -49 89 -78 145 -104 79 -38 134 -91 122 -120 -8
-23 -26 -18 -91 25 -33 22 -64 40 -69 40 -5 0 -27 19 -50 43 -23 23 -57 51
-76 62 -21 12 -36 30 -38 43 -2 13 -10 26 -18 29 -7 3 -23 21 -35 41 -30 50
-58 72 -94 72 -18 0 -51 15 -83 37 -36 25 -63 36 -85 35 -82 -3 -115 8 -162
54 -47 47 -111 81 -161 87 -16 2 -45 13 -64 25 -42 26 -63 27 -95 6 -32 -21
-80 -10 -101 22 -11 16 -26 24 -45 24 -19 0 -29 5 -29 15 0 8 -3 15 -7 15 -5
0 -44 32 -88 71 -77 67 -126 101 -142 98 -5 -1 -16 14 -25 34 -21 43 -50 54
-83 33 -24 -16 -30 -35 -25 -81 3 -36 48 -94 78 -101 60 -13 64 -16 53 -27
-42 -42 30 -158 115 -187 32 -11 45 -33 58 -93 4 -16 19 -35 39 -47 29 -18 33
-25 37 -77 4 -52 8 -59 34 -72 40 -19 75 0 91 49 10 29 17 36 45 38 54 6 78
-6 96 -43 26 -55 45 -60 111 -31 68 32 80 32 89 4 9 -33 34 -58 57 -58 10 0
32 14 47 30 15 17 33 30 38 30 5 0 24 -16 40 -35 59 -66 48 -177 -20 -215 -26
-14 -29 -13 -67 24 -44 43 -95 54 -114 24 -9 -14 -7 -23 11 -47 l21 -29 -34
-31 c-43 -37 -44 -59 -5 -72 31 -11 39 -24 19 -31 -9 -3 -9 -10 0 -26 8 -15
10 -43 5 -81 -5 -45 -2 -67 11 -95 10 -20 22 -36 27 -36 5 0 34 11 65 26 82
37 86 33 78 -81 -7 -85 -6 -95 10 -101 27 -11 70 9 70 31 0 17 8 20 58 23 31
2 57 0 57 -3 0 -4 -14 -18 -30 -32 -17 -14 -35 -34 -41 -46 -11 -20 -10 -20
73 -14 47 4 103 13 125 21 22 8 46 10 53 6 7 -5 16 -42 20 -93 5 -47 16 -101
25 -121 22 -45 15 -63 -27 -74 -47 -12 -48 -41 -4 -90 l36 -39 -48 5 c-45 4
-50 2 -76 -29 -33 -39 -52 -76 -43 -85 3 -4 28 -9 54 -11 39 -4 56 -13 89 -45
39 -37 44 -39 95 -37 46 2 63 -2 109 -30 30 -18 71 -50 91 -72 20 -21 41 -39
46 -39 19 0 63 42 63 60 0 21 -53 68 -92 82 -15 5 -34 21 -44 36 -16 25 -16
26 6 44 32 26 46 23 89 -22 46 -48 84 -53 129 -15 36 31 41 31 94 3 33 -18 64
-24 136 -26 92 -4 110 -12 72 -32 -23 -12 -50 -60 -50 -89 0 -11 10 -30 23
-41 18 -17 32 -21 77 -18 49 3 55 1 58 -18 2 -16 -5 -24 -27 -33 -50 -18 -84
-29 -113 -35 -37 -8 -37 -44 -1 -115 30 -62 74 -87 170 -97 56 -6 87 1 125 28
14 10 27 9 65 -5 45 -17 48 -17 60 0 22 29 15 70 -17 107 -56 63 -130 69 -130
10 0 -30 -15 -38 -34 -18 -18 18 -21 60 -5 70 6 3 17 22 25 40 11 26 20 33 37
31 19 -2 22 3 25 43 5 60 -13 116 -38 123 -11 3 -24 17 -30 32 -9 23 -7 30 12
46 37 30 39 29 101 -73 10 -15 17 -45 17 -66 0 -50 14 -62 72 -62 55 0 62 -14
28 -65 -47 -70 3 -152 75 -125 25 10 34 43 15 55 -23 14 -6 22 73 32 91 13
197 48 197 66 0 7 -14 24 -32 39 -18 14 -30 30 -26 34 14 14 88 -29 107 -62
24 -40 85 -63 119 -45 42 22 122 3 135 -34 5 -12 -4 -15 -56 -15 -75 0 -84 -5
-89 -49 -4 -42 -20 -49 -47 -22 -30 30 -56 41 -99 41 -60 0 -71 -21 -38 -70
16 -25 21 -40 14 -40 -17 1 -73 51 -81 72 -3 9 -17 24 -31 33 -24 16 -28 16
-57 -2 -18 -10 -39 -33 -48 -51 -16 -32 -23 -35 -93 -47 l-37 -6 -3 -62 c-3
-56 -5 -62 -24 -60 -43 4 -84 -73 -84 -157 0 -43 24 -80 51 -80 12 0 30 -17
50 -50 33 -54 35 -55 129 -70 97 -15 97 -15 122 38 30 61 50 64 82 13 50 -79
99 -87 126 -21 7 18 22 33 36 36 19 5 24 13 24 40 0 22 6 37 19 43 10 6 28 26
40 46 23 39 32 42 55 19 11 -10 16 -34 16 -70 0 -82 10 -94 76 -94 55 0 124
21 124 38 0 5 -7 15 -15 22 -8 7 -15 18 -15 24 0 17 63 76 82 76 24 0 28 -47
10 -116 -13 -51 -14 -65 -3 -78 12 -14 17 -14 48 -1 70 30 113 18 113 -32 0
-46 16 -73 43 -73 29 0 47 -18 47 -46 0 -30 7 -33 79 -40 53 -6 59 -9 51 -24
-5 -9 -21 -25 -35 -34 -24 -16 -28 -16 -62 1 -20 9 -54 16 -75 16 -21 -1 -38
2 -38 7 0 5 -12 15 -27 22 -15 7 -34 25 -43 40 -14 25 -13 28 5 42 16 12 18
19 10 42 -14 38 -35 40 -70 8 -26 -24 -33 -25 -74 -18 -55 11 -255 11 -293 1
-66 -17 -91 -104 -48 -160 22 -28 77 -48 109 -40 15 4 26 -5 45 -36 26 -40 37
-46 104 -54 30 -3 37 1 59 35 38 56 45 51 58 -36 6 -35 16 -56 40 -79 39 -39
55 -68 55 -100 0 -38 10 -39 66 -6 66 37 94 35 113 -9 16 -35 54 -53 74 -33
19 19 35 12 45 -19 21 -58 103 -50 190 19 67 53 94 99 90 153 -3 38 -8 46 -48
73 l-45 30 37 3 c45 4 68 31 68 80 0 39 -13 66 -49 105 -33 36 -19 47 64 47
89 0 231 18 286 36 64 21 211 16 234 -7 15 -15 13 -16 -32 -12 -63 6 -190 -21
-227 -48 -26 -19 -37 -21 -108 -16 -85 7 -124 -3 -134 -35 -3 -10 0 -26 7 -34
9 -12 9 -23 -1 -56 l-12 -42 40 -36 c22 -19 42 -43 45 -52 8 -22 47 -23 102
-3 80 28 84 17 19 -56 -59 -66 -58 -95 4 -125 52 -25 62 -38 62 -85 0 -43 18
-61 57 -59 46 3 51 1 65 -27 7 -15 24 -30 37 -33 27 -6 41 -30 19 -30 -24 0
-126 29 -170 48 -24 11 -56 23 -73 28 -28 9 -30 13 -33 61 -3 45 -8 56 -38 82
-48 43 -58 40 -51 -12 7 -46 -4 -67 -34 -67 -21 0 -40 -22 -31 -36 4 -5 19
-17 35 -27 15 -10 27 -24 27 -32 0 -8 16 -33 36 -55 40 -44 67 -49 152 -30 59
14 98 -4 94 -42 -4 -35 24 -51 103 -58 55 -5 61 -8 73 -35 25 -57 28 -60 72
-63 28 -2 54 -12 73 -28 16 -13 35 -24 43 -24 8 0 20 -11 26 -25 15 -33 36
-28 59 13 24 47 23 46 85 43 61 -2 84 9 84 44 0 27 17 35 70 35 32 0 43 -6 60
-30 12 -17 48 -44 80 -60 64 -32 72 -41 76 -80 3 -23 45 -70 63 -70 5 0 20 9
35 21 19 15 26 30 26 55 l0 35 37 -30 c34 -28 63 -40 63 -26 0 3 -11 32 -25
65 -26 62 -32 100 -15 100 5 0 24 -13 41 -28 24 -21 34 -40 38 -73 5 -37 10
-45 30 -47 35 -5 46 11 31 48 -18 43 -3 56 43 41 53 -18 62 -35 62 -117 0 -57
4 -77 18 -91 14 -15 20 -15 35 -5 25 18 42 25 47 20 3 -3 9 -26 14 -53 16 -86
69 -128 113 -88 76 69 91 264 22 295 -26 12 -30 28 -13 45 6 6 9 23 7 38 -2
23 -10 30 -43 39 -35 10 -40 15 -40 41 -1 17 -4 35 -8 41 -10 17 -72 44 -101
44 -14 0 -41 14 -62 32 -33 30 -35 33 -18 45 10 7 24 13 32 13 26 0 82 32 82
47 0 8 -9 26 -20 40 -11 14 -20 30 -20 34 0 16 57 10 101 -11 24 -11 60 -20
79 -20 19 0 44 -7 54 -15 12 -9 29 -12 44 -8 13 3 47 -2 75 -10 117 -36 237
-57 237 -41 0 3 -7 18 -16 32 -13 23 -13 32 -2 66 18 55 40 66 75 40 24 -18
28 -28 28 -72 1 -40 6 -57 25 -78 27 -28 85 -58 137 -69 37 -7 52 6 144 128
73 97 88 146 80 249 l-6 77 24 -16 c14 -9 50 -36 79 -60 69 -56 86 -54 90 13
4 62 -16 90 -92 133 -67 39 -89 39 -117 0 -25 -35 -31 -32 -64 33 -38 76 -132
107 -329 109 -114 0 -145 4 -301 35 -78 15 -105 16 -220 6 -79 -7 -156 -20
-195 -33 -67 -22 -116 -20 -192 10 l-27 10 5 1058 c3 582 2 1365 -4 1740 l-10
682 -43 52 c-99 118 -106 124 -121 111 -8 -6 -20 -30 -27 -51 -14 -48 -40 -65
-170 -115 -99 -38 -145 -44 -175 -21 -24 18 -126 175 -126 195 0 27 -60 121
-85 132 -19 9 -30 6 -60 -12 -42 -26 -60 -22 -69 15 -6 22 0 34 28 65 22 24
42 61 52 97 28 99 37 109 130 154 47 23 105 44 128 46 39 5 44 2 100 -52 82
-80 148 -109 256 -112 61 -1 99 -8 133 -23 26 -12 73 -25 105 -30 46 -8 62
-16 83 -41 22 -27 27 -29 37 -16 20 24 25 80 10 100 -9 13 -34 21 -73 26 -33
4 -82 20 -109 34 -28 16 -65 27 -86 27 -83 0 -144 20 -213 68 -191 133 -238
149 -452 161 -170 9 -166 8 -411 126 l-159 77 -525 -18 c-289 -10 -716 -18
-950 -18 l-425 -1 -3 87 -3 87 -91 102 c-86 96 -131 129 -176 129 -29 0 -59
35 -65 78 -9 54 -40 90 -85 98 -20 4 -41 9 -45 11 -8 5 14 44 44 76 40 44 62
204 37 273 -10 30 -9 37 15 71 17 25 27 52 27 75 0 35 -7 49 -82 153 -20 28
-39 60 -42 72 -10 33 19 88 71 132 33 28 47 48 54 79 13 59 14 189 2 204 -6 7
-14 29 -18 48 -3 19 -23 62 -42 94 -30 49 -34 62 -25 77 17 26 15 95 -3 129
-22 42 -53 60 -107 60 -26 0 -50 5 -53 10 -11 17 -23 11 -80 -40 -61 -55 -88
-66 -129 -51 -46 18 -115 13 -153 -10 -18 -12 -52 -48 -74 -80 -24 -37 -49
-61 -65 -65 -13 -3 -41 -26 -61 -51 -28 -34 -42 -43 -62 -41 -25 3 -26 5 -31
93 -4 50 -9 97 -13 105 -4 8 -27 28 -52 43 -62 39 -82 68 -106 151 -44 151
-62 198 -85 225 l-24 29 39 43 39 44 -38 42 c-22 22 -44 59 -50 82 -7 26 -23
51 -47 70 -25 21 -34 35 -30 48 3 10 15 43 26 73 11 30 20 69 21 86 0 43 -39
98 -73 102 -15 2 -27 9 -27 16 0 11 39 100 73 166 l13 25 236 5 c130 3 239 8
243 11 3 4 7 200 8 435 l2 429 -84 13 c-95 14 -115 25 -107 58 12 46 -60 107
-441 371 -109 75 -292 199 -407 275 l-208 138 -70 0 c-78 0 -142 -25 -151 -60
-3 -12 -13 -20 -27 -20 -58 0 -120 -116 -120 -225 0 -44 4 -55 30 -80 22 -21
30 -38 30 -62 0 -81 -73 -33 -85 54 -3 27 -10 68 -15 93 -7 37 -4 60 20 135
41 132 42 141 23 160 -12 12 -25 15 -52 10 -77 -14 -117 -52 -105 -99 9 -36
-8 -38 -55 -8 -43 28 -55 48 -56 97 0 26 -5 31 -40 43 -65 21 -106 13 -133
-28 -13 -19 -31 -38 -41 -41 -29 -11 -80 17 -87 48 -4 15 -11 34 -17 41 -14
18 -57 15 -93 -7z m-99 -990 l30 -7 -40 -26 c-46 -31 -123 -60 -136 -52 -13 8
-11 68 3 82 13 13 92 14 143 3z m997 -636 c4 -33 11 -113 17 -177 6 -68 16
-129 26 -147 l15 -31 -36 -15 -36 -15 4 -72 3 -73 -35 3 c-25 2 -44 -3 -62
-17 -30 -24 -53 -28 -45 -8 3 7 28 48 55 91 34 51 53 92 58 123 8 53 -2 259
-16 317 -11 48 3 89 28 84 13 -2 19 -17 24 -63z m103 -3280 c52 -102 93 -153
140 -181 18 -10 18 -14 6 -54 -15 -51 -51 -90 -84 -90 -21 0 -25 6 -31 39 -3
23 -20 56 -41 81 -23 27 -35 52 -35 71 0 22 -13 43 -45 78 -25 26 -45 52 -45
58 0 5 11 20 25 33 15 14 25 35 25 50 0 29 10 45 21 33 4 -5 33 -57 64 -118z
m1586 79 c52 -43 78 -54 129 -54 27 0 48 8 69 26 27 22 34 24 47 13 16 -13 74
-108 74 -121 0 -5 -31 -8 -69 -8 -44 0 -72 -5 -79 -13 -9 -11 -41 -161 -42
-201 -1 -6 -9 10 -19 36 -52 131 -106 160 -157 83 -9 -14 -23 -25 -30 -25 -18
0 -18 2 7 60 16 37 18 53 10 68 -12 22 -15 130 -5 156 9 23 17 20 65 -20z
m-842 -30 c17 -14 31 -34 31 -44 0 -25 67 -246 90 -296 10 -23 37 -57 60 -75
97 -79 106 -88 90 -99 -25 -16 -98 -11 -140 10 -39 20 -61 51 -74 102 -3 15
-15 32 -26 38 -11 6 -20 21 -20 34 0 12 -7 44 -16 70 -11 32 -15 64 -11 97 8
64 -4 94 -42 107 -37 13 -38 21 -10 56 25 32 30 32 68 0z m-434 -318 c24 -24
40 -78 33 -112 -5 -27 -121 -48 -158 -29 -25 13 -40 33 -40 55 0 5 16 10 37
12 32 3 38 7 50 43 21 60 41 68 78 31z m4177 -681 c29 -14 65 -25 79 -25 93 0
83 -109 -25 -249 -22 -30 -55 -60 -72 -67 -17 -7 -50 -29 -73 -48 -24 -20 -52
-36 -62 -36 -36 0 -76 29 -113 80 -20 28 -46 54 -59 59 -48 18 -270 -22 -296
-53 -26 -31 -9 -60 47 -82 29 -12 59 -27 65 -33 7 -7 12 -38 12 -69 l0 -57 60
-3 c108 -4 128 -18 100 -71 -19 -37 -81 -91 -105 -91 -22 0 -40 28 -40 63 0
60 -63 56 -119 -8 -35 -40 -39 -66 -50 -312 -12 -268 -3 -302 91 -346 40 -19
58 -35 71 -61 35 -75 98 -70 297 23 137 65 217 86 384 101 159 14 186 4 212
-85 18 -63 13 -76 -34 -108 -20 -13 -77 -51 -126 -83 -49 -33 -105 -69 -124
-82 -18 -13 -60 -28 -93 -33 -75 -12 -152 -46 -205 -91 -23 -19 -69 -45 -103
-57 -45 -16 -65 -30 -76 -51 -31 -60 -15 -167 50 -327 20 -48 39 -113 42 -143
3 -30 13 -63 22 -74 21 -24 65 -46 91 -46 11 0 23 -7 27 -15 7 -19 60 -47 198
-105 55 -23 129 -59 165 -81 36 -21 94 -50 130 -65 63 -26 99 -48 195 -124 28
-22 60 -40 73 -40 31 0 27 -11 -14 -38 l-36 -22 -38 43 c-21 23 -62 56 -91 71
-30 16 -69 42 -86 57 -18 16 -51 33 -72 40 -34 10 -44 9 -66 -5 -25 -17 -28
-16 -83 15 -31 18 -83 46 -115 62 -56 30 -57 30 -78 11 -18 -16 -20 -28 -17
-76 3 -41 1 -58 -8 -58 -14 0 -24 22 -24 53 0 12 -5 38 -10 59 -12 41 -45 58
-113 58 -32 0 -45 -6 -73 -36 -44 -49 -64 -41 -64 26 0 49 -1 51 -45 78 -25
15 -45 30 -45 34 0 5 9 25 20 45 29 55 27 127 -5 158 -13 14 -28 41 -34 61 -5
19 -24 58 -42 86 -22 34 -33 62 -32 85 1 20 -6 51 -14 71 -10 23 -18 95 -24
201 -11 222 -15 240 -46 247 -38 10 -69 -10 -106 -69 -19 -29 -48 -69 -64 -88
-62 -71 -85 -152 -59 -212 17 -42 11 -47 -55 -47 -29 0 -47 -8 -71 -29 -30
-27 -33 -34 -32 -88 1 -86 20 -295 28 -314 7 -16 -36 -79 -54 -79 -4 0 -10 14
-14 31 -3 17 -17 45 -31 61 -15 17 -29 44 -32 59 -3 16 -8 29 -10 29 -3 0 -18
-13 -33 -30 -15 -16 -35 -30 -44 -30 -9 0 -29 20 -44 45 -28 47 -46 58 -193
123 -53 24 -76 29 -113 25 -40 -5 -57 0 -118 32 -70 36 -86 39 -144 20 -17 -5
-22 -1 -30 27 -14 49 -54 65 -108 44 l-41 -16 -25 30 c-14 17 -33 30 -42 30
-28 0 -67 21 -82 45 -15 22 -14 22 27 18 37 -4 46 -1 71 26 17 17 39 31 51 31
12 0 64 -21 116 -46 52 -25 158 -68 236 -94 78 -27 168 -62 200 -79 96 -51
164 -39 257 47 33 32 76 68 94 80 17 13 37 33 44 45 6 13 16 112 22 231 l11
208 73 29 c128 51 185 98 223 183 64 145 10 327 -121 403 -107 62 -109 64
-108 146 1 47 -4 85 -15 110 l-17 39 40 -7 c27 -5 49 -1 75 11 46 21 107 92
103 119 -5 32 -58 32 -113 -1 -25 -14 -48 -24 -50 -22 -3 2 15 33 40 68 25 35
48 73 51 84 15 48 65 75 78 41 10 -27 62 -16 159 35 52 27 119 55 148 60 30 6
64 13 76 16 14 3 28 18 37 39 20 48 152 137 246 166 14 4 26 8 27 8 0 1 25
-10 55 -24z m-2177 -90 c80 -19 127 -19 170 2 33 16 37 16 73 -2 27 -14 60
-19 127 -20 64 -1 99 -6 123 -18 56 -30 41 -58 -55 -102 -81 -38 -139 -41
-225 -14 -55 18 -97 23 -171 24 l-98 0 -42 -45 c-23 -25 -56 -63 -73 -85 -36
-45 -55 -41 -35 8 8 18 16 51 18 74 4 34 1 44 -12 50 -23 8 -45 -21 -45 -58 0
-62 -104 -111 -161 -76 -17 10 -22 9 -38 -12 -33 -43 -63 -12 -77 81 -8 47 3
58 57 58 40 0 99 -18 99 -30 0 -15 30 -20 54 -9 13 6 34 29 47 50 47 78 44 75
69 46 42 -48 87 -26 77 37 -9 58 14 66 118 41z m835 -375 c49 -25 74 -61 66
-94 -3 -13 -31 -57 -61 -96 -30 -40 -62 -95 -71 -122 -22 -67 -72 -114 -178
-167 -48 -24 -95 -54 -106 -68 -11 -14 -33 -26 -54 -30 -44 -7 -86 -47 -86
-82 0 -14 -5 -33 -10 -41 -9 -13 -13 -12 -28 8 -9 12 -24 33 -34 45 -14 19
-25 22 -82 21 -84 -2 -110 -18 -125 -80 l-12 -47 -17 34 c-16 31 -21 34 -69
37 -56 3 -63 12 -38 46 23 30 18 65 -14 97 -21 20 -40 29 -63 29 l-33 1 28 24
c15 14 35 25 44 25 9 0 38 -20 64 -45 54 -51 68 -54 114 -25 38 23 68 61 114
143 18 31 36 57 41 57 5 0 91 61 191 136 198 147 305 209 367 213 7 1 31 -8
52 -19z m2778 -3366 c19 -13 22 -24 22 -82 0 -37 5 -84 11 -106 18 -64 -3 -68
-56 -11 l-45 49 -45 -22 c-26 -12 -51 -20 -56 -17 -13 9 -11 79 3 93 7 7 21
12 33 12 30 0 45 19 45 55 0 18 3 35 7 38 12 12 58 7 81 -9z m-847 -320 c33
-32 38 -34 52 -20 9 9 20 16 26 16 11 0 31 -62 31 -100 0 -16 12 -36 30 -52
25 -22 30 -34 30 -72 0 -24 -4 -48 -10 -51 -16 -10 -70 24 -83 53 -6 15 -26
44 -45 66 -19 21 -47 66 -63 100 -47 100 -34 125 32 60z"/>
<path d="M3244 5818 c-9 -28 20 -52 47 -37 22 11 24 30 7 47 -19 19 -46 14
-54 -10z"/>
<path d="M4161 4057 c-6 -6 -11 -24 -11 -39 0 -23 4 -28 24 -28 30 0 40 14 32
44 -7 28 -29 39 -45 23z"/>
<path d="M1051 7786 c-21 -25 -10 -61 18 -61 31 0 50 28 35 53 -15 23 -38 26
-53 8z"/>
<path d="M916 6841 c-18 -19 -19 -60 -2 -64 5 -1 18 10 29 26 19 24 19 29 6
42 -14 14 -17 14 -33 -4z"/>
<path d="M1641 6234 c-27 -34 -26 -42 4 -50 33 -8 57 12 53 45 -4 35 -31 38
-57 5z"/>
<path d="M1297 6233 c-13 -12 -7 -41 9 -47 22 -9 54 11 54 34 0 15 -7 20 -28
20 -16 0 -32 -3 -35 -7z"/>
<path d="M1447 6173 c-15 -15 -5 -44 18 -55 21 -10 29 -9 43 6 16 16 16 18 -7
37 -24 20 -43 24 -54 12z"/>
<path d="M1696 4719 c-17 -14 -26 -30 -26 -50 0 -25 4 -29 28 -29 33 0 92 34
92 54 0 16 -37 46 -56 46 -6 0 -23 -9 -38 -21z"/>
<path d="M1762 4615 c-14 -30 0 -75 23 -75 20 0 38 47 30 77 -7 31 -39 30 -53
-2z"/>
<path d="M2037 3633 c-40 -28 -38 -28 -109 2 -15 6 -18 2 -18 -21 0 -62 74
-134 122 -118 28 9 96 72 114 105 12 24 12 30 -2 43 -23 23 -64 19 -107 -11z"/>
<path d="M2400 3645 c-26 -32 13 -81 48 -59 34 22 22 74 -18 74 -10 0 -23 -7
-30 -15z"/>
<path d="M3500 2227 c-32 -16 -34 -56 -4 -68 43 -15 83 38 52 69 -15 15 -17
15 -48 -1z"/>
<path d="M3484 2105 c-9 -24 5 -35 46 -35 45 0 61 17 35 37 -25 17 -74 17 -81
-2z"/>
<path d="M8941 836 c-48 -26 -86 -118 -63 -152 23 -37 151 -20 171 22 6 13 17
24 25 24 23 0 39 36 26 59 -28 53 -107 76 -159 47z"/>
<path d="M8589 749 c-44 -26 -73 -72 -65 -104 11 -43 55 -85 90 -85 33 0 176
63 176 78 0 5 -13 24 -30 42 -16 18 -30 37 -30 42 0 4 -9 17 -20 28 -26 26
-75 25 -121 -1z"/>
<path d="M6890 305 c-17 -20 -3 -54 25 -61 45 -11 62 27 27 59 -23 21 -36 21
-52 2z"/>
<path d="M6742 288 c-32 -32 -1 -147 40 -148 10 0 29 75 24 91 -2 8 -7 26 -10
42 -7 29 -33 36 -54 15z"/>
<path d="M6617 273 c-16 -15 -6 -65 17 -88 30 -30 56 -23 56 15 0 46 -50 96
-73 73z"/>
</g>
</svg>
