<?xml version="1.0" standalone="no"?>
<!DOCTYPE svg PUBLIC "-//W3C//DTD SVG 20010904//EN"
 "http://www.w3.org/TR/2001/REC-SVG-20010904/DTD/svg10.dtd">
<svg version="1.0" xmlns="http://www.w3.org/2000/svg"
 width="828.000000pt" height="1028.000000pt" viewBox="0 0 828.000000 1028.000000"
 preserveAspectRatio="xMidYMid meet">

<g transform="translate(0.000000,1028.000000) scale(0.100000,-0.100000)"
fill="#000000" stroke="none">
<path d="M5159 10217 c-42 -28 -102 -74 -135 -100 -251 -203 -488 -397 -534
-435 -30 -26 -81 -69 -114 -95 -33 -27 -114 -98 -179 -158 -107 -98 -122 -109
-156 -109 -20 0 -46 7 -57 15 -10 8 -35 15 -54 15 -20 0 -46 7 -59 16 -19 14
-39 15 -126 10 -93 -7 -108 -5 -144 13 -44 23 -122 28 -167 11 -44 -17 -144
-90 -206 -151 -74 -74 -81 -100 -76 -293 3 -120 7 -158 21 -183 25 -46 55 -72
101 -84 l39 -11 -6 -121 c-4 -71 -15 -155 -27 -201 -13 -52 -20 -111 -20 -173
0 -119 18 -161 160 -371 l103 -153 -5 -133 c-4 -130 -5 -135 -48 -237 -84
-198 -307 -632 -382 -743 -86 -127 -145 -190 -356 -384 -128 -117 -240 -224
-249 -238 -9 -15 -48 -53 -87 -85 l-70 -59 -175 0 c-125 0 -190 -4 -224 -15
-50 -15 -426 -205 -509 -257 -46 -29 -51 -30 -130 -24 -147 12 -281 27 -292
34 -6 3 -63 9 -126 13 -120 7 -161 14 -196 31 -12 6 -39 8 -60 5 -305 -46
-307 -47 -392 -89 -45 -23 -82 -44 -82 -47 0 -4 -14 -12 -31 -20 -38 -17 -86
-82 -95 -128 -10 -53 18 -111 77 -158 27 -22 106 -100 175 -174 104 -110 124
-138 119 -155 -4 -12 -10 -60 -12 -108 -4 -70 -1 -102 16 -157 26 -86 26 -86
-4 -145 -14 -27 -25 -58 -25 -68 0 -10 -7 -21 -15 -24 -8 -4 -22 -32 -31 -63
-23 -77 -68 -164 -110 -211 -67 -74 -52 -160 43 -245 43 -39 44 -41 28 -62 -9
-13 -22 -23 -29 -23 -14 0 -59 -45 -75 -77 -6 -12 -11 -49 -11 -82 0 -48 4
-65 20 -81 11 -11 20 -33 20 -51 0 -19 11 -45 29 -68 59 -75 65 -132 16 -151
-29 -11 -65 -65 -65 -96 0 -12 18 -49 40 -82 22 -33 40 -68 40 -79 0 -10 -18
-36 -40 -58 -43 -42 -53 -66 -70 -166 -11 -61 -10 -73 14 -148 15 -47 26 -106
26 -137 0 -36 9 -75 25 -113 24 -57 24 -61 9 -112 -40 -141 -41 -133 8 -264
25 -66 51 -138 58 -160 22 -69 88 -195 135 -257 25 -33 45 -64 45 -69 0 -5
-11 -32 -25 -59 -41 -80 -35 -106 58 -291 61 -120 88 -186 100 -244 23 -105
57 -185 101 -239 20 -25 36 -48 36 -53 0 -5 -16 -24 -35 -43 -49 -48 -65 -88
-65 -164 0 -65 0 -66 -39 -91 -43 -29 -61 -61 -61 -108 1 -42 33 -113 58 -126
32 -17 89 -13 135 10 23 12 64 32 91 46 27 13 90 50 140 82 50 31 118 72 151
91 77 43 262 163 341 221 34 24 70 49 80 56 11 7 53 34 94 61 135 89 159 102
184 102 14 0 28 5 31 10 3 6 19 10 36 10 16 0 37 4 47 9 9 4 42 16 72 26 127
40 344 161 462 256 23 19 46 24 145 31 132 9 218 20 278 38 22 6 114 13 205
15 91 2 190 9 220 15 30 6 67 14 83 17 15 3 30 9 33 14 3 5 20 9 39 9 19 0 36
4 39 9 3 5 23 11 43 15 21 3 67 10 103 15 36 6 121 15 190 21 69 6 163 16 210
22 47 6 157 13 245 15 128 3 170 1 211 -12 37 -12 118 -18 294 -24 l242 -8 33
-36 c28 -30 39 -36 62 -31 15 3 75 6 133 7 l104 2 7 -42 c9 -51 29 -84 88
-146 60 -62 135 -87 261 -87 81 0 91 -2 120 -26 17 -15 37 -40 45 -58 65 -138
128 -206 191 -206 54 0 94 20 120 61 15 24 34 41 52 45 57 12 341 106 378 124
21 11 48 20 61 20 12 0 24 4 27 9 8 12 68 20 211 30 176 11 212 31 435 246 63
61 140 132 172 158 31 26 63 63 72 82 20 41 51 65 86 65 14 0 46 11 70 24 25
14 65 34 90 46 59 28 87 55 115 110 13 25 37 63 55 85 18 22 43 61 56 87 13
26 54 87 90 135 37 48 71 101 77 116 12 35 4 102 -22 182 -11 33 -32 101 -46
150 -15 50 -32 106 -37 125 -17 56 -54 134 -91 191 -43 67 -120 221 -137 273
-7 22 -23 96 -36 165 -28 156 -74 323 -102 377 -11 22 -44 69 -73 103 -46 56
-50 63 -37 79 27 31 48 101 48 160 1 31 8 84 16 117 10 38 17 130 21 250 6
208 -2 269 -37 278 -14 3 -20 14 -20 32 0 15 -16 55 -35 89 -51 91 -100 242
-124 385 l-22 123 43 128 c36 110 41 134 32 166 -5 20 -16 40 -24 44 -40 20
-67 29 -90 32 -29 4 -70 59 -70 95 0 29 21 76 55 122 22 29 25 45 25 113 0 48
-5 89 -14 106 -18 35 -63 68 -106 77 -61 13 -214 85 -237 111 -16 17 -23 38
-23 65 0 50 -24 99 -50 99 -19 0 -50 35 -50 57 0 7 19 25 43 39 23 15 67 47
97 72 88 71 329 311 347 345 9 18 17 51 17 74 1 35 -5 48 -33 77 -18 19 -31
39 -27 44 7 12 -56 62 -79 62 -9 0 -53 38 -97 85 -78 82 -142 125 -185 125
-11 0 -32 10 -47 21 -22 18 -44 22 -114 25 -63 2 -101 9 -136 24 -43 19 -59
21 -135 16 -47 -4 -102 -9 -121 -12 -34 -5 -36 -3 -62 50 -15 30 -37 62 -50
70 -53 38 -97 64 -116 70 -33 11 -82 75 -118 152 -26 58 -34 91 -40 166 -6 84
-3 105 21 198 22 82 28 129 29 215 l1 110 -57 115 c-32 63 -74 143 -93 177
-21 36 -45 100 -60 158 -21 86 -29 103 -81 168 -32 40 -186 200 -341 358
l-283 285 0 227 c0 297 -16 448 -49 447 -3 0 -40 -24 -82 -53z"/>
</g>
</svg>
