<?xml version="1.0" standalone="no"?>
<!DOCTYPE svg PUBLIC "-//W3C//DTD SVG 20010904//EN"
 "http://www.w3.org/TR/2001/REC-SVG-20010904/DTD/svg10.dtd">
<svg version="1.0" xmlns="http://www.w3.org/2000/svg"
 width="712.000000pt" height="1080.000000pt" viewBox="0 0 712.000000 1080.000000"
 preserveAspectRatio="xMidYMid meet">

<g transform="translate(0.000000,1080.000000) scale(0.100000,-0.100000)"
fill="#000000" stroke="none">
<path d="M4887 10739 c-34 -34 -91 -78 -127 -99 -36 -21 -86 -61 -111 -89 -37
-41 -53 -51 -78 -51 -35 0 -81 -37 -81 -66 0 -27 -45 -97 -78 -121 -22 -16
-54 -24 -125 -32 -53 -6 -116 -20 -139 -30 -24 -11 -63 -25 -88 -31 -25 -7
-55 -16 -68 -21 -13 -5 -32 -9 -43 -9 -10 0 -27 -4 -37 -9 -112 -56 -134 -57
-167 -7 -37 56 -152 106 -243 106 -34 0 -39 4 -50 33 -21 57 -70 125 -103 143
-18 9 -71 20 -118 25 -127 13 -204 25 -224 34 -10 4 -23 2 -31 -5 -19 -15
-189 -8 -266 11 -67 16 -252 16 -380 0 -52 -6 -138 -16 -190 -20 -52 -5 -113
-14 -135 -21 -87 -25 -136 -32 -275 -39 -80 -4 -152 -11 -160 -16 -18 -11
-125 -27 -160 -24 -102 10 -110 8 -215 -75 -104 -81 -159 -111 -260 -140 -33
-9 -74 -21 -91 -27 -17 -5 -37 -9 -46 -9 -16 0 -203 -122 -315 -206 -39 -29
-147 -94 -240 -144 -100 -54 -182 -105 -202 -127 l-33 -35 6 -77 c4 -42 10
-132 14 -201 8 -132 19 -165 66 -209 14 -13 35 -49 46 -78 11 -30 38 -84 59
-119 22 -36 43 -84 46 -107 4 -23 23 -80 43 -127 19 -47 43 -109 53 -139 11
-30 28 -63 39 -73 18 -17 20 -32 20 -180 l0 -160 -35 6 c-31 6 -40 3 -65 -23
-17 -16 -30 -38 -30 -48 0 -24 27 -63 44 -63 6 0 29 -18 49 -39 21 -22 62 -51
92 -66 60 -28 79 -51 89 -106 3 -20 20 -78 37 -130 27 -81 32 -109 32 -199 0
-58 -8 -163 -18 -233 -14 -93 -16 -133 -9 -145 6 -9 32 -28 59 -42 l47 -25 3
-245 c3 -347 -6 -425 -61 -585 -45 -128 -46 -132 -53 -303 -7 -157 -10 -175
-29 -195 -58 -61 -90 -267 -58 -365 10 -28 30 -70 46 -94 26 -39 27 -43 11
-50 -26 -9 -69 -64 -79 -102 -18 -64 12 -150 73 -216 l33 -35 -7 -142 c-6
-134 -8 -144 -32 -170 -57 -61 -59 -69 -59 -203 0 -69 -5 -154 -10 -190 -6
-42 -6 -80 1 -110 8 -34 20 -306 18 -420 0 -8 -3 -89 -5 -180 -7 -194 -2 -210
83 -266 29 -19 57 -43 62 -53 6 -10 15 -56 21 -102 5 -46 14 -100 20 -119 5
-19 10 -61 10 -93 0 -49 -5 -65 -35 -108 -35 -51 -35 -52 -35 -158 0 -150 16
-198 91 -276 l59 -62 0 -71 c0 -65 10 -107 49 -207 5 -11 18 -54 31 -95 12
-41 28 -95 36 -120 8 -26 13 -77 11 -123 l-2 -78 43 -37 c40 -34 43 -41 40
-77 l-3 -39 -46 2 c-42 3 -49 0 -74 -30 -27 -31 -27 -36 -22 -113 6 -87 30
-161 93 -288 54 -110 77 -129 161 -134 117 -8 172 -3 223 17 68 27 199 27 278
1 130 -43 394 -60 475 -31 34 13 42 12 89 -9 72 -31 113 -46 181 -66 62 -18
85 -41 126 -123 12 -23 66 -113 120 -200 54 -86 113 -186 130 -220 60 -120
140 -182 214 -168 47 9 94 52 209 189 56 67 141 163 188 212 47 50 117 126
155 170 38 44 107 121 154 170 253 269 240 257 341 285 25 6 53 16 62 21 10 5
31 9 47 9 17 0 33 5 36 10 3 6 16 10 27 10 12 0 47 8 77 19 31 10 76 24 101
31 52 14 65 19 140 50 30 12 70 25 88 27 18 3 35 9 38 14 3 5 15 9 28 9 12 0
26 3 29 6 7 7 161 62 252 90 28 9 55 19 60 23 6 4 37 16 70 25 33 10 89 26
125 37 36 11 83 24 105 31 123 34 210 72 234 102 8 9 17 16 21 16 10 0 126 70
189 114 25 17 89 56 141 85 52 30 97 58 98 62 2 5 9 9 15 9 12 0 109 59 197
120 97 67 166 109 176 110 6 0 17 7 24 15 6 8 49 33 96 56 127 65 208 130 238
192 27 55 84 258 112 396 27 135 22 146 -99 270 -57 58 -109 116 -116 128 -8
15 -11 96 -10 260 l2 238 51 99 c55 107 105 157 175 176 76 20 148 97 158 166
6 46 -17 81 -78 120 -21 13 -53 40 -70 59 -18 19 -41 35 -51 35 -31 0 -70 26
-128 84 l-54 56 -64 0 c-57 0 -70 4 -111 34 -49 35 -182 86 -229 86 -44 1
-103 39 -240 155 l-130 110 -1 115 c-1 143 6 195 25 179 13 -11 153 -8 209 5
17 4 40 9 52 12 32 6 62 63 69 131 5 47 2 72 -16 121 -27 75 -62 104 -116 100
l-37 -3 -13 60 c-7 33 -19 76 -28 96 -13 32 -13 47 0 140 25 172 27 217 14
249 -12 29 -20 33 -85 44 -16 2 -58 10 -92 17 -70 15 -67 2 -34 124 l16 60
190 6 c105 4 263 10 352 14 l163 8 35 52 c20 28 54 103 76 166 22 63 50 139
63 169 13 30 27 80 30 111 6 51 5 59 -18 86 -33 40 -81 60 -101 43 -8 -6 -19
-9 -25 -5 -30 19 11 125 58 149 43 22 54 41 54 93 0 72 -36 88 -137 61 -43
-12 -67 -9 -165 18 -8 2 -28 29 -44 60 -17 31 -52 81 -79 110 -57 63 -160 134
-193 134 -33 0 -38 16 -17 53 16 27 25 32 51 29 20 -2 62 10 114 33 46 20 93
40 105 45 30 12 88 94 103 145 19 66 56 120 151 221 49 52 116 134 149 182 33
48 81 112 105 142 25 30 68 87 95 126 50 74 105 134 120 134 16 0 80 62 96 91
7 15 14 46 14 68 0 63 -84 159 -348 396 -126 113 -203 165 -243 165 -10 0 -21
5 -24 10 -3 6 -16 10 -29 10 -55 0 -126 51 -225 164 -55 61 -165 176 -246 256
-81 80 -164 170 -185 201 -42 60 -109 125 -156 149 -16 8 -31 17 -34 20 -15
15 -140 66 -181 74 -56 10 -92 58 -163 215 -66 146 -105 205 -193 299 -42 44
-54 52 -86 52 -32 0 -46 -9 -100 -61z"/>
</g>
</svg>
