<?xml version="1.0" standalone="no"?>
<!DOCTYPE svg PUBLIC "-//W3C//DTD SVG 20010904//EN"
 "http://www.w3.org/TR/2001/REC-SVG-20010904/DTD/svg10.dtd">
<svg version="1.0" xmlns="http://www.w3.org/2000/svg"
 width="728.000000pt" height="1080.000000pt" viewBox="0 0 728.000000 1080.000000"
 preserveAspectRatio="xMidYMid meet">

<g transform="translate(0.000000,1080.000000) scale(0.100000,-0.100000)"
fill="#000000" stroke="none">
<path d="M4248 10790 c-10 -6 -18 -20 -18 -30 0 -11 -4 -20 -10 -20 -5 0 -10
-8 -10 -17 0 -16 -9 -49 -37 -130 -13 -38 -25 -49 -146 -125 -73 -46 -139 -87
-147 -90 -8 -3 -53 -31 -98 -62 -46 -31 -87 -56 -92 -56 -4 0 -43 -20 -86 -45
-44 -25 -85 -45 -92 -45 -7 0 -20 -4 -30 -9 -9 -5 -64 -24 -122 -41 -58 -18
-126 -41 -152 -51 -26 -11 -53 -19 -60 -19 -7 0 -24 -6 -38 -13 -14 -7 -47
-19 -75 -26 -27 -7 -59 -16 -70 -21 -11 -4 -40 -13 -65 -20 -92 -25 -110 -32
-115 -41 -4 -5 -14 -9 -23 -9 -24 -1 -65 -39 -167 -155 -115 -130 -259 -285
-265 -285 -3 0 -27 36 -55 80 -130 210 -122 201 -205 230 -42 15 -89 34 -105
42 -51 26 -83 29 -121 13 -48 -20 -103 -19 -145 3 -29 14 -58 17 -192 15 -103
-2 -168 -7 -185 -16 -15 -6 -37 -32 -50 -57 -13 -25 -33 -56 -45 -70 -39 -44
-48 -70 -58 -158 -13 -117 -33 -183 -65 -212 -50 -48 -56 -71 -57 -235 0 -139
1 -155 21 -187 30 -48 28 -60 -14 -83 -51 -27 -66 -64 -75 -185 -12 -146 -25
-236 -44 -295 -21 -66 -37 -161 -36 -207 6 -145 4 -220 -7 -263 -12 -46 -34
-237 -34 -295 0 -14 5 -46 12 -73 11 -43 10 -51 -11 -90 -20 -38 -23 -59 -26
-206 -3 -147 -6 -172 -29 -235 -15 -39 -29 -86 -31 -104 -8 -51 6 -117 33
-157 l25 -37 -35 -62 c-55 -98 -121 -181 -178 -226 -29 -22 -64 -49 -76 -60
-44 -37 -59 -27 -64 40 -3 45 -10 66 -28 85 -13 14 -29 25 -35 25 -44 0 -124
-73 -152 -139 -8 -20 -19 -44 -24 -53 -20 -40 0 -107 47 -158 l23 -25 -37 -60
c-34 -55 -37 -66 -36 -130 0 -38 9 -98 19 -133 16 -54 16 -68 5 -105 -7 -23
-17 -58 -23 -77 -5 -19 -16 -52 -23 -73 -15 -40 -18 -106 -6 -122 8 -12 113
-54 153 -62 41 -8 66 12 84 68 l17 51 36 -7 c41 -8 87 -29 98 -46 3 -6 -12
-30 -34 -52 -81 -84 -104 -261 -49 -381 l24 -52 -34 -40 c-54 -61 -86 -138
-87 -207 -1 -53 2 -61 27 -83 16 -13 35 -24 43 -24 12 0 14 -9 9 -43 -4 -23
-2 -94 4 -158 l11 -116 -29 -54 c-33 -61 -161 -456 -161 -495 0 -35 28 -92 51
-105 28 -14 24 -36 -24 -135 -70 -142 -70 -173 -3 -253 20 -23 36 -51 36 -62
0 -10 -16 -37 -36 -59 l-36 -39 8 -118 c7 -125 16 -179 58 -335 29 -112 40
-136 94 -204 66 -84 66 -85 27 -136 -29 -37 -35 -54 -36 -96 -2 -58 18 -97 93
-180 52 -57 59 -85 29 -123 -46 -60 -64 -111 -59 -174 5 -60 5 -61 -28 -83
-32 -21 -144 -162 -144 -182 0 -5 -4 -10 -9 -10 -16 0 -121 -101 -121 -116 0
-8 -4 -22 -10 -32 -5 -9 -19 -49 -31 -88 -14 -48 -34 -88 -61 -120 -74 -89
-91 -145 -69 -222 8 -27 5 -40 -17 -79 -24 -43 -27 -58 -27 -149 l0 -100 74
-110 73 -109 -7 -121 -6 -121 31 -27 c57 -48 144 -26 190 48 23 39 60 66 89
66 11 0 22 4 25 9 3 5 18 12 32 15 15 4 47 22 72 39 83 60 96 66 148 66 38 1
61 8 95 30 51 34 94 47 103 32 4 -6 27 -11 51 -11 44 0 63 -3 202 -36 40 -9
84 -13 98 -10 14 4 59 29 101 56 99 65 124 65 208 5 90 -64 113 -71 149 -45
42 32 140 42 267 30 58 -6 160 -15 227 -20 66 -4 129 -13 140 -18 10 -5 39
-12 65 -16 41 -6 48 -4 62 16 10 14 16 44 16 82 l0 59 78 -6 c68 -6 84 -4 137
18 33 14 63 25 68 25 4 0 26 9 50 19 23 11 87 25 142 31 117 15 153 27 213 77
63 51 195 206 223 261 34 65 31 123 -9 187 -49 78 -51 105 -9 151 19 22 37 50
41 64 4 14 11 34 15 45 19 46 31 93 31 117 0 23 6 26 58 38 35 7 87 9 132 6
185 -16 214 -7 350 108 54 45 86 64 115 69 66 11 127 49 158 98 27 44 27 46
12 84 -14 31 -14 39 -3 46 7 5 16 9 19 9 17 0 39 73 39 127 0 38 6 67 16 82
17 24 20 24 111 5 82 -16 123 30 123 140 0 60 -4 75 -34 125 -18 31 -43 79
-56 106 -12 28 -26 58 -31 67 -5 10 -9 22 -9 28 0 15 -71 109 -105 140 -15 14
-47 52 -71 84 -24 33 -56 67 -71 77 l-27 18 40 16 c47 18 77 60 106 146 16 49
36 80 82 130 53 58 63 75 79 137 l18 70 42 5 c60 7 125 25 151 42 12 8 33 34
46 56 28 51 76 97 110 105 14 4 30 10 35 14 6 5 62 25 125 45 63 20 122 41
130 46 40 24 148 71 175 76 17 4 78 26 138 50 59 23 113 43 120 43 6 0 32 10
57 23 25 12 72 31 105 41 33 11 69 25 80 32 11 8 29 14 40 14 11 0 29 6 40 13
11 7 56 28 100 46 44 19 104 44 134 57 29 13 58 24 65 24 10 0 47 15 215 85
30 13 61 29 70 37 9 7 28 18 42 25 40 17 73 68 107 163 42 115 102 315 102
339 0 11 5 23 10 26 6 3 10 16 10 28 0 12 7 35 16 52 8 16 26 73 40 125 22 85
74 257 195 641 21 70 39 136 39 147 0 11 4 23 9 26 5 3 11 18 14 33 5 28 23
85 37 113 4 8 13 40 20 70 7 30 27 102 45 160 76 243 89 315 63 364 -15 29
-80 102 -227 257 l-95 99 -80 0 c-59 0 -93 -6 -125 -20 -24 -11 -52 -20 -63
-20 -26 0 -100 -21 -112 -32 -6 -4 -27 -8 -48 -8 -20 0 -47 -4 -60 -9 -13 -5
-48 -16 -78 -24 -155 -44 -157 -45 -365 -36 -223 10 -292 20 -339 48 -17 10
-43 21 -58 25 -34 8 -36 31 -8 85 18 37 19 43 5 130 -8 50 -22 110 -30 133
-15 43 -15 43 14 68 47 41 81 99 81 139 0 48 -32 97 -73 115 l-34 14 -5 88
c-3 70 -10 101 -30 144 -16 32 -29 80 -32 115 -2 33 -8 76 -11 96 -4 23 -3 39
4 43 25 16 13 59 -38 138 -20 32 -22 45 -16 80 3 24 9 57 12 75 6 38 -21 81
-121 191 -106 116 -100 98 -106 326 l-5 201 -40 69 c-22 37 -52 90 -66 117
-15 27 -45 69 -68 94 -23 24 -41 48 -42 52 0 5 -4 161 -8 348 l-7 340 -26 41
c-14 22 -52 90 -83 150 -137 265 -191 347 -309 468 -63 64 -91 85 -125 95 -62
18 -182 24 -203 11z"/>
</g>
</svg>
