<?xml version="1.0" standalone="no"?>
<!DOCTYPE svg PUBLIC "-//W3C//DTD SVG 20010904//EN"
 "http://www.w3.org/TR/2001/REC-SVG-20010904/DTD/svg10.dtd">
<svg version="1.0" xmlns="http://www.w3.org/2000/svg"
 width="728.000000pt" height="1080.000000pt" viewBox="0 0 728.000000 1080.000000"
 preserveAspectRatio="xMidYMid meet">

<g transform="translate(0.000000,1080.000000) scale(0.100000,-0.100000)"
fill="#000000" stroke="none">
<path d="M6413 10784 c-24 -9 -79 -48 -129 -92 -47 -42 -98 -85 -113 -94 -32
-22 -77 -23 -124 -3 -48 20 -167 20 -193 0 -25 -19 -102 -19 -147 0 -47 19
-134 19 -172 -1 -16 -8 -39 -13 -52 -9 -32 8 -72 -14 -80 -43 -6 -25 14 -98
63 -230 13 -34 24 -73 24 -86 0 -26 -35 -76 -53 -76 -7 0 -30 -13 -53 -28 -22
-15 -70 -43 -107 -62 -75 -38 -96 -69 -81 -123 11 -39 61 -67 119 -67 22 0 46
-4 53 -9 9 -5 18 -48 24 -119 l11 -110 -34 -34 c-19 -19 -52 -54 -74 -77 -22
-24 -51 -48 -65 -54 -14 -6 -80 -16 -148 -23 -68 -6 -129 -17 -135 -23 -6 -6
-23 -11 -38 -11 -15 0 -31 -5 -35 -11 -3 -6 -22 -18 -41 -26 -33 -13 -39 -13
-88 11 -63 31 -73 32 -133 5 -26 -12 -74 -25 -107 -28 -33 -4 -70 -12 -81 -19
-33 -18 -102 -100 -106 -125 -3 -21 -9 -22 -111 -25 -87 -2 -120 1 -165 17
-42 14 -97 21 -204 25 -104 4 -157 10 -177 21 -38 19 -65 19 -81 0 -19 -23
-54 -18 -81 11 -13 14 -38 34 -57 46 -31 19 -34 19 -85 3 -28 -10 -64 -24 -79
-31 -14 -8 -35 -14 -45 -14 -11 0 -49 -18 -86 -40 -36 -22 -73 -40 -81 -40 -8
0 -16 -5 -18 -12 -3 -9 -12 -9 -38 0 -18 7 -59 12 -90 12 -81 0 -137 23 -195
80 l-50 49 -107 7 c-76 5 -112 4 -121 -5 -9 -6 -17 -42 -22 -84 -3 -39 -12
-75 -18 -79 -7 -4 -43 -8 -81 -8 -67 0 -70 -1 -117 -42 -90 -82 -102 -88 -171
-89 -29 0 -71 -3 -93 -7 -37 -7 -41 -11 -85 -98 -26 -51 -63 -111 -83 -135
-67 -78 -73 -139 -18 -200 l39 -45 -5 -91 c-4 -70 -2 -104 11 -143 12 -36 14
-56 6 -70 -31 -58 4 -160 55 -160 20 0 13 -10 -44 -67 -69 -69 -81 -95 -81
-167 0 -18 5 -37 12 -44 8 -8 6 -26 -10 -70 -34 -91 -28 -144 23 -204 14 -16
25 -40 25 -52 0 -41 -91 -201 -129 -227 -20 -13 -61 -106 -61 -137 0 -13 -50
-147 -85 -227 -82 -189 -83 -208 -21 -292 72 -97 73 -102 37 -130 -17 -13 -31
-30 -31 -36 0 -26 -134 -287 -148 -287 -8 0 -30 14 -49 31 -28 24 -41 29 -62
24 -50 -12 -67 -32 -94 -113 -36 -105 -35 -148 3 -198 20 -27 30 -51 30 -77 0
-44 18 -82 54 -116 38 -36 34 -66 -14 -96 -71 -45 -80 -117 -25 -189 33 -44
93 -138 141 -222 24 -41 24 -41 5 -80 -24 -51 -72 -207 -80 -263 -5 -38 -10
-46 -34 -52 -15 -4 -43 -21 -63 -38 -28 -25 -39 -29 -54 -21 -10 5 -21 10 -25
10 -3 0 -21 -35 -41 -77 -19 -43 -41 -85 -49 -93 -14 -15 -71 -157 -101 -249
-8 -26 -14 -85 -14 -144 l0 -99 -41 -49 -40 -48 7 -94 c8 -110 -4 -158 -41
-175 -40 -19 -49 -56 -25 -109 15 -34 20 -67 20 -127 0 -84 -27 -213 -50 -241
-21 -25 -25 -127 -5 -168 16 -34 16 -39 -10 -134 -19 -73 -33 -106 -55 -128
-42 -44 -83 -139 -77 -178 3 -18 7 -41 9 -51 2 -16 -6 -22 -40 -30 -48 -12
-82 -46 -82 -80 0 -26 33 -99 60 -133 11 -14 20 -30 20 -35 0 -5 -20 -30 -44
-56 -25 -26 -77 -104 -116 -172 -67 -117 -118 -180 -147 -180 -7 0 -27 -13
-45 -29 -18 -15 -52 -38 -75 -49 -32 -17 -47 -34 -69 -77 -25 -51 -26 -63 -22
-144 5 -79 10 -98 53 -187 26 -54 62 -140 79 -191 l32 -92 -33 -6 c-45 -8 -63
-38 -63 -105 0 -48 6 -66 39 -121 34 -55 43 -65 77 -72 21 -4 43 -12 48 -17 6
-6 36 -10 68 -10 59 0 114 24 147 64 19 23 51 20 95 -10 30 -21 55 -28 108
-32 l68 -5 0 -43 c0 -64 50 -165 98 -196 20 -14 48 -28 62 -32 14 -4 48 -32
75 -61 84 -89 160 -96 257 -22 51 39 121 170 138 257 14 71 68 187 99 211 17
14 40 19 85 19 93 1 145 17 197 60 25 21 63 46 84 55 48 19 71 39 101 86 17
27 31 38 56 42 18 2 47 10 64 18 28 11 35 10 58 -4 14 -10 28 -30 32 -45 7
-36 22 -67 60 -127 19 -30 34 -70 38 -99 3 -27 10 -54 16 -60 15 -19 28 -91
44 -248 9 -80 21 -157 27 -170 24 -51 159 -130 221 -129 29 0 89 33 105 57 8
13 25 24 37 24 38 0 137 -116 189 -222 33 -66 89 -126 125 -133 15 -4 49 -13
76 -21 57 -16 159 -19 187 -3 11 5 46 14 77 20 98 15 146 45 181 111 41 76 41
131 0 261 -24 75 -40 107 -65 133 -19 18 -34 40 -34 49 0 8 32 50 71 92 77 83
88 103 100 181 6 43 16 62 54 105 54 60 79 76 118 77 36 0 75 21 109 57 35 37
45 65 54 154 4 41 15 101 26 134 10 33 25 114 32 180 9 82 20 134 34 162 12
23 26 58 31 80 6 21 19 63 30 93 30 81 27 122 -16 212 l-36 78 66 132 c36 73
70 151 76 173 6 22 11 92 11 155 0 114 0 116 33 162 17 25 78 97 135 159 145
159 200 248 202 322 l0 28 74 -7 c66 -6 78 -4 109 15 58 35 185 200 206 266 7
22 37 90 66 150 54 112 97 165 163 199 39 20 107 102 130 157 29 69 92 310 92
352 0 33 33 117 63 161 25 35 27 47 27 134 0 92 1 97 29 127 70 73 165 193
182 230 22 48 24 91 4 125 -19 33 -18 48 3 54 28 9 132 174 132 210 0 22 27
51 82 91 70 51 81 126 29 196 -23 31 -26 80 -8 120 7 14 39 60 72 102 43 55
70 80 94 88 34 12 35 11 83 -42 81 -90 101 -110 140 -135 57 -36 80 -32 128
25 l41 49 78 -5 77 -6 60 50 c32 28 93 66 134 86 64 32 83 37 144 37 81 0 130
15 145 44 6 12 17 54 26 95 9 46 25 89 42 114 71 100 79 141 38 201 -14 20
-25 39 -25 41 0 2 -22 42 -49 87 -48 82 -79 128 -234 356 -42 62 -77 116 -77
120 0 11 -116 181 -143 210 -11 12 -30 37 -41 56 -12 18 -49 75 -82 126 l-61
93 13 51 c13 47 25 124 42 281 7 57 40 125 62 125 5 0 26 15 46 33 38 33 99
78 192 142 78 54 108 127 92 229 -31 203 -53 327 -75 426 -14 63 -32 156 -40
205 -8 50 -18 110 -23 135 -5 25 -17 83 -26 130 -35 174 -69 297 -96 346 -24
44 -31 70 -39 167 -7 79 -16 128 -29 154 -22 42 -52 137 -52 164 0 9 18 39 40
65 22 27 40 56 40 65 0 9 7 22 15 29 21 18 29 94 15 145 -11 38 -10 50 4 85
19 49 13 83 -21 110 -22 17 -40 20 -127 19 -62 0 -117 -6 -143 -15z"/>
</g>
</svg>
