<?xml version="1.0" standalone="no"?>
<!DOCTYPE svg PUBLIC "-//W3C//DTD SVG 20010904//EN"
 "http://www.w3.org/TR/2001/REC-SVG-20010904/DTD/svg10.dtd">
<svg version="1.0" xmlns="http://www.w3.org/2000/svg"
 width="544.000000pt" height="1080.000000pt" viewBox="0 0 544.000000 1080.000000"
 preserveAspectRatio="xMidYMid meet">

<g transform="translate(0.000000,1080.000000) scale(0.100000,-0.100000)"
fill="#000000" stroke="none">
<path d="M3070 10793 c-14 -3 -30 -9 -35 -13 -23 -19 -104 -40 -156 -40 -101
0 -151 -35 -185 -128 -15 -42 -66 -101 -88 -102 -9 0 -87 -59 -97 -73 -6 -9
-144 -4 -229 8 -44 6 -47 4 -120 -55 -41 -34 -85 -66 -97 -71 -12 -4 -31 -26
-42 -47 -21 -41 -71 -249 -71 -295 0 -15 -13 -51 -30 -80 -16 -30 -30 -66 -30
-81 0 -30 -16 -66 -30 -66 -4 0 -14 16 -20 36 -7 20 -28 54 -47 75 l-35 39
-88 0 c-70 0 -90 3 -103 18 -10 11 -21 60 -31 134 -17 129 -41 192 -78 202
-13 3 -73 6 -135 6 l-111 0 -51 49 c-105 101 -250 92 -306 -19 -28 -56 -52
-67 -118 -55 -23 4 -66 8 -96 9 -51 1 -54 0 -73 -34 -14 -26 -18 -50 -15 -95
3 -56 29 -209 45 -265 10 -34 52 -38 91 -9 51 37 80 20 253 -147 l98 -94 0
-114 0 -114 31 -30 c27 -26 31 -36 25 -63 -3 -18 -16 -43 -28 -56 -28 -30 -47
-123 -36 -182 4 -25 12 -79 18 -120 11 -85 27 -114 77 -144 l36 -21 -23 -15
c-60 -42 -89 -100 -90 -181 0 -25 -7 -72 -15 -105 -8 -33 -14 -75 -15 -92 0
-18 -4 -33 -10 -33 -13 0 -13 -74 -1 -98 12 -20 53 -114 70 -159 7 -18 19 -37
26 -43 11 -9 10 -20 -7 -57 -13 -30 -23 -81 -28 -141 -7 -94 -15 -111 -50
-112 -23 0 -68 -41 -89 -80 -10 -19 -31 -42 -47 -51 -36 -20 -74 -84 -74 -127
0 -48 25 -89 63 -103 l34 -12 7 -181 c7 -184 5 -207 -22 -238 -22 -26 -47 -22
-85 12 -75 66 -97 39 -177 -228 -35 -116 -54 -142 -105 -142 -19 0 -51 -9 -71
-20 -31 -18 -40 -19 -70 -8 -24 8 -35 19 -39 40 -3 15 -8 41 -11 58 -7 38 -41
80 -64 80 -51 0 -142 -200 -174 -384 -17 -96 -42 -340 -56 -555 -6 -84 -15
-176 -21 -204 -24 -127 -3 -276 46 -335 14 -17 25 -33 25 -37 0 -5 -12 -24
-27 -44 -26 -33 -28 -44 -31 -146 -3 -90 1 -133 23 -235 14 -69 33 -161 42
-205 22 -117 72 -271 101 -313 l25 -37 4 -350 c2 -192 8 -375 14 -405 5 -30
14 -73 18 -95 4 -22 14 -69 20 -105 7 -36 20 -90 29 -120 9 -30 16 -93 17
-140 2 -103 18 -167 90 -345 13 -34 29 -92 35 -130 15 -95 28 -132 53 -150
l21 -15 -22 -16 c-30 -21 -52 -66 -52 -108 0 -29 8 -41 50 -78 56 -49 57 -54
79 -253 15 -129 27 -163 77 -211 24 -24 44 -49 44 -56 0 -7 -23 -39 -50 -72
-28 -32 -58 -72 -67 -89 -19 -38 -12 -102 15 -129 17 -17 23 -18 42 -8 18 9
28 9 46 -1 30 -15 30 -15 -1 -81 -18 -39 -25 -70 -25 -116 0 -58 3 -66 32 -95
l31 -32 -31 -95 c-29 -88 -32 -108 -36 -265 -2 -117 -9 -185 -19 -217 -26 -79
-32 -160 -13 -196 41 -79 136 -84 212 -11 25 25 35 29 50 21 11 -6 48 -20 84
-33 36 -12 70 -26 75 -30 15 -10 92 -21 160 -21 118 -2 199 33 285 123 32 32
63 59 71 59 8 0 29 -9 47 -20 44 -27 105 -26 145 2 50 35 51 36 195 170 133
123 212 208 212 226 0 5 11 18 24 31 l23 22 66 -60 c84 -76 98 -80 145 -44 49
37 98 63 119 63 10 0 38 12 63 26 25 14 88 39 140 55 52 16 108 34 125 39 28
9 33 6 86 -48 31 -31 60 -69 64 -82 12 -39 65 -142 90 -176 26 -33 178 -113
255 -133 25 -7 58 -16 74 -21 21 -7 39 -4 72 11 23 12 51 19 61 17 19 -4 19
-10 13 -125 -3 -46 28 -108 58 -117 11 -4 22 -25 30 -58 6 -29 25 -71 40 -93
25 -36 32 -40 77 -43 27 -2 59 2 72 7 13 6 33 15 46 20 121 47 201 121 213
197 5 36 2 54 -21 100 -26 54 -27 58 -20 177 6 112 4 125 -14 155 -19 30 -24
32 -60 26 -50 -8 -61 10 -61 96 0 76 -9 93 -60 114 -45 18 -45 36 0 36 20 0
35 -9 50 -30 29 -40 105 -90 139 -90 52 0 120 62 170 155 12 22 37 62 56 89
32 44 35 54 35 120 l0 72 -107 117 -108 118 -115 -3 c-132 -2 -174 8 -239 58
-29 22 -55 34 -76 34 -50 0 -62 17 -71 100 -9 85 -9 163 1 268 9 91 -1 109
-85 141 -46 18 -65 32 -72 50 -28 74 -77 157 -110 185 -36 30 -36 31 -20 61
14 25 17 56 14 179 -1 111 2 159 13 192 8 25 15 70 15 102 0 38 9 77 26 117
37 88 41 148 14 218 -12 32 -28 61 -36 64 -20 7 -9 38 27 85 44 56 48 74 59
260 9 168 10 173 41 222 18 28 39 63 48 78 19 33 27 35 36 8 4 -12 29 -54 56
-95 l50 -75 47 0 c69 0 95 26 130 130 34 99 80 209 95 228 8 10 26 12 66 7 54
-6 57 -5 74 23 25 44 22 111 -8 152 -13 18 -32 56 -41 84 -9 28 -28 72 -41 97
-24 45 -24 48 -8 72 9 15 21 59 26 99 4 40 15 102 24 138 8 36 22 103 31 150
9 51 31 119 56 170 37 78 41 95 49 210 13 162 25 221 55 265 62 92 97 189 109
302 6 58 10 65 48 95 23 19 54 42 69 51 44 28 68 86 68 165 0 89 -17 127 -70
163 -38 26 -40 29 -18 29 39 0 71 -20 111 -72 77 -97 168 -114 243 -46 21 19
22 19 70 -7 l49 -27 61 66 c60 64 63 66 111 66 27 0 57 6 67 13 28 21 32 87 6
136 l-21 43 25 51 c13 29 28 66 31 82 13 59 26 81 62 100 45 25 76 71 107 160
13 39 31 87 40 107 21 49 20 83 -4 136 -20 45 -41 52 -94 32 -36 -13 -47 -6
-79 46 l-28 46 -57 -4 c-48 -3 -66 -10 -107 -42 l-49 -37 -12 33 c-20 55 -17
65 35 96 41 26 52 40 70 87 12 31 21 74 21 96 0 23 11 60 26 89 21 41 28 71
34 163 5 61 13 130 19 152 15 58 13 150 -4 192 -23 55 -19 141 10 207 30 67
33 153 9 212 -15 37 -98 122 -119 124 -19 1 -45 74 -43 122 1 25 6 44 10 42 4
-3 8 32 8 78 0 60 -6 99 -21 138 -11 30 -27 84 -35 119 -7 36 -25 82 -39 103
-23 35 -29 38 -73 38 -27 0 -66 -8 -88 -19 -109 -52 -162 -62 -271 -55 -146
10 -147 11 -318 261 -70 102 -136 170 -191 197 -21 10 -48 23 -58 28 -25 13
-157 13 -182 0 -10 -6 -35 -17 -55 -26 -20 -9 -42 -22 -49 -31 -7 -8 -21 -15
-32 -15 -17 0 -19 4 -13 28 4 15 9 53 12 85 4 53 2 64 -26 109 -23 36 -31 62
-31 96 -1 53 -7 86 -43 223 -33 125 -46 155 -106 244 -47 71 -49 75 -39 117
10 48 3 119 -17 158 -24 46 -46 57 -125 63 -41 3 -88 12 -105 21 -30 16 -40
17 -85 9z"/>
</g>
</svg>
