<?xml version="1.0" standalone="no"?>
<!DOCTYPE svg PUBLIC "-//W3C//DTD SVG 20010904//EN"
 "http://www.w3.org/TR/2001/REC-SVG-20010904/DTD/svg10.dtd">
<svg version="1.0" xmlns="http://www.w3.org/2000/svg"
 width="836.000000pt" height="1080.000000pt" viewBox="0 0 836.000000 1080.000000"
 preserveAspectRatio="xMidYMid meet">

<g transform="translate(0.000000,1080.000000) scale(0.100000,-0.100000)"
fill="#000000" stroke="none">
<path d="M4794 10776 c-22 -7 -54 -20 -70 -28 -43 -23 -76 -36 -104 -41 -93
-18 -199 -55 -328 -117 -139 -66 -241 -97 -267 -82 -5 3 -35 24 -65 47 -30 23
-73 47 -95 53 -65 18 -234 34 -315 30 l-75 -3 -37 -55 c-48 -72 -60 -118 -47
-188 14 -74 6 -89 -83 -155 -58 -43 -143 -125 -196 -190 -22 -26 -170 -137
-183 -137 -9 0 -37 27 -63 59 -48 59 -95 91 -135 91 -12 0 -21 -4 -21 -10 0
-5 -9 -10 -20 -10 -29 0 -75 -45 -109 -105 -17 -29 -44 -65 -62 -81 -18 -16
-60 -56 -93 -90 -36 -35 -80 -68 -106 -78 -25 -10 -53 -22 -62 -27 -33 -17
-165 -10 -236 12 -77 25 -198 74 -292 118 -46 22 -80 31 -115 31 -55 0 -72 -9
-151 -79 -39 -35 -71 -52 -129 -71 -49 -15 -84 -33 -96 -48 -24 -31 -24 -87
-1 -144 10 -24 24 -69 31 -101 20 -90 39 -106 140 -114 122 -9 121 -7 121
-285 0 -242 0 -243 69 -254 32 -5 56 -24 140 -109 55 -56 101 -109 101 -117 0
-7 -14 -18 -32 -23 -64 -19 -86 -103 -97 -375 -5 -120 -8 -141 -18 -124 -7 12
-26 27 -43 34 -38 16 -71 3 -96 -36 -16 -23 -16 -34 -6 -95 7 -39 23 -92 37
-119 21 -41 25 -64 25 -130 0 -85 14 -128 66 -197 21 -27 24 -43 24 -112 0
-148 -64 -415 -110 -456 -17 -15 -21 -15 -49 -1 -40 21 -63 20 -94 -4 -39 -31
-51 -80 -37 -141 14 -57 62 -119 91 -119 28 0 34 -26 20 -79 -19 -71 -26 -72
-84 -7 -49 54 -54 58 -92 54 -61 -5 -67 -23 -62 -213 5 -171 11 -199 57 -251
33 -38 54 -100 76 -226 17 -98 10 -128 -29 -128 -29 0 -107 -49 -135 -85 -13
-17 -22 -42 -22 -64 0 -33 7 -48 62 -129 18 -28 33 -96 24 -111 -3 -5 -32 -1
-68 11 -132 42 -285 7 -380 -85 -51 -49 -75 -105 -88 -201 -11 -73 -10 -86 17
-253 6 -40 -27 -78 -60 -68 -12 4 -42 11 -66 16 -23 5 -61 22 -84 39 -53 39
-88 39 -121 0 -46 -55 -49 -101 -17 -217 14 -49 61 -111 159 -209 75 -74 86
-94 51 -94 -11 0 -29 -4 -39 -10 -33 -17 -67 -110 -41 -110 5 0 12 -11 15 -25
4 -16 22 -32 54 -48 54 -27 62 -46 33 -86 -12 -16 -21 -36 -21 -45 0 -9 -4
-16 -10 -16 -5 0 -10 -13 -10 -30 0 -16 5 -30 10 -30 6 0 10 -6 10 -14 0 -17
50 -81 137 -175 l63 -68 0 -110 0 -111 -32 -20 c-18 -11 -49 -22 -69 -26 -20
-4 -48 -19 -64 -35 -23 -25 -29 -42 -35 -105 -6 -59 -14 -84 -39 -122 -24 -36
-31 -58 -31 -95 0 -26 3 -54 6 -63 3 -9 48 -47 99 -86 88 -66 144 -127 159
-176 14 -45 69 -106 157 -176 50 -39 95 -82 99 -94 15 -38 -83 -305 -141 -384
-19 -25 -30 -89 -49 -275 -5 -55 -14 -101 -20 -103 -5 -2 -10 -10 -10 -18 0
-8 -18 -49 -40 -90 -34 -64 -52 -85 -115 -133 -96 -73 -173 -121 -194 -121 -9
0 -34 -9 -56 -20 -22 -11 -45 -20 -53 -20 -25 0 -90 -39 -134 -83 -36 -35 -53
-64 -86 -148 -76 -193 -94 -271 -100 -414 l-4 -130 -39 -34 c-49 -41 -69 -79
-69 -127 0 -31 7 -44 42 -76 74 -69 111 -78 208 -53 19 5 36 -3 75 -32 52 -39
109 -67 157 -77 15 -4 43 -20 61 -36 71 -62 126 -62 203 2 27 22 69 54 94 71
25 17 131 95 237 174 l192 143 90 0 c101 0 113 7 131 68 6 20 16 126 22 235
l12 197 29 0 c16 0 42 8 58 17 28 17 31 16 81 -9 37 -18 77 -28 131 -32 45 -3
99 -15 124 -26 57 -25 88 -25 122 -1 15 11 63 29 107 40 63 17 84 27 106 54
49 57 71 115 76 196 5 95 -11 139 -67 179 -22 16 -71 60 -108 98 l-68 68 53
105 c60 120 69 132 171 213 86 68 116 107 145 192 12 34 25 67 30 75 5 7 4 29
-2 50 -6 20 -15 80 -21 133 -7 71 -18 115 -42 169 -42 97 -46 135 -20 184 18
34 21 57 21 157 l0 118 36 0 c66 0 134 32 200 92 34 32 67 58 74 58 26 0 133
65 160 98 38 46 129 318 133 394 1 42 -4 69 -25 114 -35 80 -75 175 -82 199
-12 43 2 46 190 52 134 3 189 8 217 21 32 13 46 14 83 4 84 -23 141 -13 195
32 16 13 50 32 76 40 26 9 86 40 133 69 67 42 87 60 96 85 5 18 13 29 17 26 4
-4 7 2 7 14 0 11 5 24 10 27 6 3 10 39 10 80 0 41 -4 77 -10 80 -5 3 -10 15
-10 26 0 10 -4 19 -9 19 -5 0 -16 17 -25 38 -9 20 -20 44 -24 52 -5 8 -14 25
-20 37 -13 25 -17 344 -5 357 27 27 43 156 24 194 -5 9 -13 28 -18 42 -53 134
-56 142 -43 150 6 4 69 11 138 14 70 4 143 11 162 16 43 11 84 52 119 118 22
39 33 49 71 61 25 8 60 21 78 28 43 19 133 33 207 33 33 0 66 4 74 9 10 6 32
3 65 -10 53 -20 131 -25 155 -10 22 14 39 2 46 -31 10 -43 84 -114 135 -129
33 -10 51 -10 86 -1 24 7 61 12 82 12 45 1 149 34 174 57 26 23 98 7 114 -25
16 -33 83 -101 116 -118 37 -19 49 -44 59 -125 10 -79 32 -129 87 -192 22 -25
49 -65 61 -89 30 -64 124 -172 160 -188 44 -18 93 -2 170 56 71 53 100 88 108
126 3 16 9 28 14 28 5 0 9 5 9 11 0 22 43 108 51 103 5 -3 9 -29 9 -57 0 -44
8 -64 45 -127 113 -187 199 -256 291 -232 69 19 106 15 155 -16 54 -35 118
-107 125 -142 3 -14 9 -34 14 -45 5 -11 11 -38 14 -59 7 -49 54 -127 86 -143
30 -15 144 -17 171 -3 23 13 44 53 53 100 3 19 24 64 46 100 22 36 40 69 40
73 0 5 20 40 45 78 41 63 51 73 112 100 78 35 163 95 163 115 0 8 3 14 8 14 4
0 20 22 36 48 16 26 47 61 69 77 77 59 105 91 117 136 15 55 22 63 86 105 136
86 173 144 174 267 0 69 4 86 39 160 67 139 94 265 72 338 -17 55 -92 134
-149 155 -26 10 -53 22 -59 27 -7 5 -35 55 -62 111 -29 61 -62 114 -82 131
-18 17 -51 50 -73 74 -23 25 -50 55 -61 67 -30 32 -40 50 -90 154 -26 52 -52
107 -60 123 -17 32 -30 105 -44 237 -14 133 -19 156 -48 232 -25 64 -64 119
-94 131 -17 7 19 43 94 94 33 23 49 42 53 63 4 16 10 27 15 24 5 -3 9 6 9 20
0 14 4 35 9 48 5 13 14 50 20 83 11 62 10 67 -30 205 -6 19 -14 56 -19 81 -8
42 -27 93 -69 178 -22 45 -129 130 -221 175 -95 47 -190 114 -209 148 -14 24
-13 34 3 100 40 160 28 378 -25 464 -23 37 -182 170 -236 198 -22 11 -58 16
-113 16 -44 0 -80 2 -80 4 0 2 16 33 35 70 19 37 35 82 35 100 0 110 -178 148
-220 46 -17 -41 -75 -90 -107 -90 -14 0 -41 -9 -60 -21 -18 -12 -39 -19 -47
-16 -7 3 -16 29 -19 59 -10 85 -35 146 -73 176 l-34 27 0 119 c0 110 -2 122
-27 168 -29 54 -86 98 -126 98 -13 0 -27 4 -32 9 -6 5 -48 25 -95 46 -47 20
-87 40 -90 44 -11 15 -63 31 -99 31 -43 0 -83 -26 -106 -70 -14 -27 -16 -28
-57 -19 -76 17 -198 65 -198 79 0 4 -18 30 -40 58 -22 27 -40 54 -40 60 0 5 9
29 20 53 21 46 27 134 10 144 -5 3 -10 13 -10 21 0 8 -4 20 -10 27 -5 7 -21
27 -36 45 -14 17 -30 32 -36 32 -5 0 -16 6 -24 14 -8 8 -36 18 -62 21 -70 10
-74 12 -112 60 -58 74 -85 89 -165 92 -38 2 -88 -3 -111 -11z"/>
</g>
</svg>
