<?xml version="1.0" standalone="no"?>
<!DOCTYPE svg PUBLIC "-//W3C//DTD SVG 20010904//EN"
 "http://www.w3.org/TR/2001/REC-SVG-20010904/DTD/svg10.dtd">
<svg version="1.0" xmlns="http://www.w3.org/2000/svg"
 width="1224.000000pt" height="1036.000000pt" viewBox="0 0 1224.000000 1036.000000"
 preserveAspectRatio="xMidYMid meet">

<g transform="translate(0.000000,1036.000000) scale(0.100000,-0.100000)"
fill="#000000" stroke="none">
<path d="M5640 10344 c-19 -2 -107 -11 -195 -20 -190 -18 -267 -30 -318 -49
-20 -8 -51 -15 -67 -15 -35 0 -103 -25 -148 -56 -19 -12 -61 -57 -94 -100 -67
-89 -67 -89 -125 -98 -23 -3 -63 -16 -90 -27 -38 -17 -78 -23 -194 -29 -117
-6 -153 -12 -185 -28 -45 -23 -104 -84 -104 -108 0 -8 -10 -34 -22 -57 -15
-30 -22 -67 -26 -132 l-4 -90 40 -49 c41 -50 112 -204 112 -243 0 -12 -22 -55
-50 -96 -27 -41 -50 -82 -50 -90 0 -9 -4 -19 -10 -22 -24 -15 -1 -118 40 -175
17 -24 18 -33 9 -53 -9 -19 -9 -34 0 -58 6 -17 11 -53 11 -78 1 -25 7 -64 15
-86 8 -22 15 -53 15 -70 0 -35 34 -111 85 -190 24 -39 33 -61 26 -68 -5 -5
-50 -13 -100 -18 -112 -10 -147 -25 -215 -89 l-53 -50 -80 0 c-114 0 -182 -15
-215 -47 l-28 -27 -178 2 c-197 3 -363 -10 -416 -32 -22 -9 -43 -29 -56 -53
-11 -21 -39 -67 -61 -103 -42 -69 -42 -70 -21 -185 6 -27 15 -66 21 -85 6 -19
11 -52 11 -73 0 -21 9 -55 19 -75 11 -21 23 -56 27 -77 3 -22 15 -57 25 -77
11 -21 19 -53 19 -72 0 -57 -27 -182 -49 -225 -12 -22 -21 -47 -21 -55 0 -22
-41 -50 -111 -76 -51 -18 -79 -38 -155 -112 l-93 -90 -39 15 c-123 49 -193 30
-287 -80 -80 -94 -96 -148 -70 -241 12 -43 16 -88 13 -163 -3 -92 -7 -112 -35
-169 -42 -87 -48 -134 -29 -210 9 -34 16 -88 16 -120 0 -75 8 -94 69 -168 l51
-61 0 -118 c-1 -120 -13 -177 -44 -212 -14 -15 -81 -39 -160 -56 -35 -8 -80
-53 -111 -114 -33 -64 -86 -123 -149 -165 -63 -42 -111 -94 -133 -145 -9 -20
-21 -47 -27 -60 -6 -13 -10 -56 -10 -95 1 -71 2 -74 70 -187 42 -71 92 -137
130 -174 33 -33 80 -84 103 -113 24 -29 63 -64 87 -78 73 -43 59 -60 -61 -76
-89 -11 -90 -11 -211 -1 -85 8 -112 15 -178 46 -65 32 -93 39 -181 47 -62 6
-121 18 -147 30 -105 48 -209 13 -284 -96 l-38 -55 -7 -182 c-5 -100 -13 -198
-18 -217 -6 -19 -11 -62 -11 -96 0 -33 -6 -67 -12 -76 -7 -9 -47 -37 -88 -63
-41 -26 -124 -87 -185 -135 -60 -48 -123 -95 -140 -106 -16 -10 -70 -48 -120
-85 -49 -36 -134 -96 -187 -133 -153 -105 -177 -167 -135 -350 18 -82 58 -129
154 -178 50 -27 68 -42 88 -80 35 -64 64 -84 132 -92 32 -4 112 -26 177 -49
118 -42 120 -43 165 -101 73 -93 108 -117 183 -123 82 -7 131 13 212 87 50 47
66 55 110 61 28 3 89 14 136 24 l86 19 74 -23 c231 -71 265 -93 320 -202 29
-56 140 -171 205 -210 42 -26 133 -25 186 2 34 17 56 20 132 18 110 -3 135 7
197 81 46 55 85 80 124 80 38 0 53 -23 61 -95 9 -87 47 -143 143 -209 70 -48
75 -54 95 -116 27 -79 64 -127 169 -217 149 -127 229 -176 318 -193 25 -5 68
-13 95 -19 28 -5 98 -15 158 -20 111 -11 145 -23 209 -73 43 -34 109 -64 160
-73 41 -8 103 17 211 83 l57 35 164 -18 c96 -10 187 -15 218 -11 63 8 66 10
310 178 26 18 65 44 86 57 50 30 92 94 92 141 0 28 -12 50 -61 110 -67 82 -89
125 -89 168 0 44 19 61 75 68 81 9 89 12 138 49 55 42 87 106 87 174 0 67 9
90 40 106 39 20 107 30 122 17 21 -17 74 -24 124 -16 35 5 60 18 105 56 66 55
84 83 100 160 6 29 20 70 31 92 16 31 19 52 14 110 -7 102 -22 211 -30 224 -5
9 6 12 38 12 68 0 143 33 216 96 36 30 91 71 123 91 l59 36 76 -76 c93 -91
123 -107 199 -107 108 0 202 65 350 243 l65 77 53 0 c55 0 94 11 186 53 50 24
61 25 118 17 70 -10 153 0 199 24 32 17 78 59 129 119 26 31 38 37 70 37 21 0
63 7 93 15 103 28 122 23 200 -50 38 -36 75 -65 83 -65 8 0 21 -8 29 -17 28
-32 31 -63 13 -118 -17 -48 -17 -54 -2 -85 10 -18 17 -37 17 -43 0 -14 100
-187 133 -228 15 -20 32 -52 38 -73 5 -20 37 -68 70 -107 71 -86 74 -106 23
-196 -34 -61 -36 -69 -36 -158 0 -190 40 -239 252 -311 70 -23 100 -28 166
-26 49 1 101 -4 130 -13 27 -8 67 -15 89 -15 104 1 246 120 263 222 6 34 14
46 37 57 44 21 78 -1 88 -59 4 -25 16 -90 27 -145 10 -55 22 -122 25 -150 4
-27 15 -70 26 -94 24 -56 24 -91 -2 -141 -26 -50 -37 -180 -20 -233 7 -21 34
-61 60 -90 26 -28 57 -68 69 -88 44 -72 255 -225 342 -249 19 -5 61 -12 93
-15 63 -7 111 -38 129 -84 5 -14 14 -78 19 -141 10 -136 36 -200 120 -293 64
-72 99 -91 151 -83 76 12 115 41 149 108 35 70 122 158 186 189 l43 21 34 -29
c18 -15 77 -77 131 -136 163 -181 210 -187 378 -44 56 47 179 91 297 107 47 6
104 20 128 32 69 33 145 110 188 190 l39 73 0 130 0 130 -42 70 c-53 90 -159
213 -218 256 -65 47 -100 118 -96 196 1 13 33 58 75 104 148 162 172 284 71
359 -25 18 -45 41 -45 50 0 10 34 64 75 121 100 138 105 165 40 264 -18 28
-47 78 -64 112 -34 68 -127 155 -206 193 -50 24 -67 25 -106 4 -17 -8 -34 -13
-37 -9 -4 3 2 27 12 53 9 26 22 67 27 92 12 59 35 102 124 227 70 98 75 109
75 157 0 47 -6 61 -69 156 -38 58 -87 120 -110 138 l-42 34 5 106 c3 59 8 139
11 178 6 61 3 80 -16 125 -34 78 -30 119 18 188 48 67 82 133 124 238 38 95
35 128 -18 251 -48 112 -55 154 -37 222 10 38 14 113 14 250 0 166 3 211 22
291 24 105 24 110 13 265 -10 141 -2 164 85 259 84 90 107 134 126 239 8 44
28 119 44 166 16 47 34 130 40 185 6 55 18 109 26 120 65 90 68 97 65 139 -8
96 -7 98 50 156 81 81 113 153 117 263 6 142 -3 189 -49 249 -46 61 -93 157
-103 212 -11 58 -82 121 -208 185 -126 64 -156 67 -274 26 -98 -34 -183 -38
-214 -10 -11 10 -37 50 -57 88 -70 132 -147 139 -205 18 -30 -62 -92 -128
-155 -163 -60 -34 -94 -82 -119 -168 -20 -68 -28 -78 -79 -101 -62 -28 -68
-26 -60 24 13 87 16 173 6 199 -11 30 -58 48 -123 48 -53 0 -72 23 -64 77 3
24 13 58 23 76 25 46 24 148 -1 176 -11 12 -29 21 -41 21 -12 0 -25 3 -29 7
-4 5 -26 12 -49 18 -70 17 -73 34 -52 290 5 61 3 76 -18 117 l-23 46 43 52
c70 85 68 106 -19 196 -45 46 -48 53 -38 78 13 34 13 187 1 218 -6 13 -12 39
-16 59 -3 20 -25 67 -49 105 -55 86 -64 118 -41 144 24 27 16 102 -15 135 -48
51 -167 69 -251 40 -87 -31 -283 -205 -327 -290 -25 -50 -57 -79 -101 -94 -53
-17 -171 -94 -240 -156 -35 -31 -80 -67 -102 -82 -35 -23 -41 -24 -61 -11 -13
8 -41 18 -63 22 -55 11 -91 34 -119 77 -26 39 -114 89 -294 168 -114 50 -150
52 -193 10 -31 -30 -32 -30 -50 -12 -10 10 -34 44 -53 76 -30 51 -33 62 -24
88 17 48 5 187 -20 235 -39 76 -133 143 -251 178 -86 25 -140 21 -194 -14 -46
-31 -137 -127 -137 -145 0 -3 -17 -29 -39 -58 -21 -29 -48 -70 -60 -92 -11
-22 -29 -51 -40 -64 l-19 -25 -22 45 c-13 24 -50 72 -83 106 l-60 63 11 38
c20 67 -9 132 -123 272 -43 52 -97 116 -120 141 -24 26 -48 62 -53 82 -15 54
-80 146 -125 175 -38 25 -49 27 -172 30 l-131 3 -107 -40 c-118 -45 -236 -68
-267 -51 -11 6 -25 29 -32 52 -13 44 -65 102 -130 145 -35 24 -41 25 -150 19
-169 -10 -207 -10 -273 -4 -33 3 -76 4 -95 2z"/>
</g>
</svg>
