<?xml version="1.0" standalone="no"?>
<!DOCTYPE svg PUBLIC "-//W3C//DTD SVG 20010904//EN"
 "http://www.w3.org/TR/2001/REC-SVG-20010904/DTD/svg10.dtd">
<svg version="1.0" xmlns="http://www.w3.org/2000/svg"
 width="1224.000000pt" height="852.000000pt" viewBox="0 0 1224.000000 852.000000"
 preserveAspectRatio="xMidYMid meet">

<g transform="translate(0.000000,852.000000) scale(0.100000,-0.100000)"
fill="#000000" stroke="none">
<path d="M9535 8492 c-43 -20 -99 -35 -205 -53 -86 -14 -143 -40 -197 -89 -54
-50 -79 -60 -154 -60 -45 0 -81 -8 -137 -31 -43 -17 -108 -40 -147 -51 -122
-34 -212 -85 -304 -173 l-83 -80 -16 25 c-52 82 -148 140 -233 140 -52 0 -83
-13 -159 -70 -36 -27 -88 -59 -116 -70 -27 -12 -65 -37 -85 -56 l-36 -35 -75
22 c-50 15 -86 20 -109 15 -52 -9 -125 -60 -161 -111 -19 -27 -54 -58 -85 -75
-29 -16 -57 -39 -64 -51 -24 -45 16 -147 85 -219 80 -82 92 -119 61 -180 -19
-36 -36 -45 -100 -55 -58 -8 -206 -63 -268 -99 -23 -14 -58 -41 -77 -61 -31
-32 -36 -44 -40 -101 l-5 -66 -70 -29 c-38 -17 -81 -40 -94 -52 -43 -40 -111
-139 -111 -163 0 -12 -4 -26 -10 -29 -12 -8 -13 -152 -1 -159 4 -3 11 -23 15
-44 3 -22 15 -51 27 -66 29 -36 21 -56 -34 -93 -87 -58 -158 -66 -292 -33 -44
11 -92 20 -106 20 -40 0 -102 -25 -161 -64 -29 -20 -60 -36 -68 -36 -8 0 -44
18 -79 39 -69 43 -103 50 -307 70 -155 16 -195 31 -269 106 -33 34 -72 69 -88
79 -28 19 -77 104 -77 135 0 27 -43 78 -106 127 -80 62 -77 58 -85 116 -9 72
-35 137 -66 170 -14 15 -57 44 -96 64 -81 43 -167 54 -257 35 -71 -15 -234
-76 -288 -108 -26 -14 -66 -27 -100 -30 l-57 -6 51 54 c60 65 77 93 69 118 -8
26 -33 31 -178 31 l-128 0 -82 86 -81 86 -54 -7 c-30 -4 -146 -4 -257 0 l-203
8 -29 41 c-34 48 -120 98 -207 120 -51 14 -61 14 -87 1 -34 -18 -44 -36 -53
-92 -3 -23 -10 -53 -16 -67 l-9 -25 -72 20 c-100 28 -140 51 -189 109 -33 40
-62 60 -134 94 -67 32 -100 55 -124 85 -24 30 -57 53 -118 82 -55 26 -106 60
-147 98 -105 98 -177 121 -267 85 l-41 -17 -87 60 c-125 86 -161 103 -227 103
-100 0 -157 -41 -243 -174 -43 -65 -46 -76 -47 -136 -1 -76 -5 -84 -100 -210
-82 -107 -93 -133 -104 -242 -8 -70 -13 -83 -52 -135 -23 -32 -92 -108 -151
-169 l-108 -111 0 -68 c0 -110 -14 -140 -105 -230 -107 -105 -106 -104 -115
-185 -4 -39 -14 -78 -21 -87 -8 -9 -42 -29 -76 -44 -56 -25 -63 -31 -69 -63
-8 -46 13 -80 64 -104 20 -9 40 -21 44 -27 16 -21 7 -84 -17 -129 -26 -48 -32
-93 -16 -124 20 -39 41 -119 41 -155 0 -21 11 -64 25 -97 14 -33 25 -71 25
-85 0 -15 5 -36 11 -47 21 -39 49 -374 49 -591 0 -185 -2 -212 -19 -245 -24
-47 -66 -86 -113 -105 -79 -33 -178 -170 -178 -246 0 -20 -12 -44 -40 -76 -76
-88 -76 -101 2 -192 31 -35 60 -82 70 -110 9 -26 23 -66 31 -88 32 -81 20
-138 -68 -319 -51 -104 -76 -220 -58 -258 6 -13 14 -48 16 -79 3 -31 15 -75
26 -97 23 -44 30 -175 11 -187 -5 -3 -10 -19 -10 -35 0 -16 -5 -41 -11 -57
-24 -60 -47 -429 -29 -464 9 -15 9 -24 1 -32 -12 -12 -14 -47 -5 -72 4 -9 47
-50 97 -90 63 -52 111 -83 159 -101 62 -23 70 -30 88 -69 11 -24 20 -53 20
-65 0 -62 70 -132 177 -177 65 -27 92 -51 104 -96 6 -23 15 -51 19 -62 5 -11
11 -31 14 -45 7 -36 130 -158 199 -199 73 -43 121 -59 215 -72 43 -6 91 -12
107 -15 17 -2 61 -26 99 -54 37 -27 82 -52 100 -56 18 -3 92 -4 164 -2 144 3
142 4 142 -56 0 -41 10 -55 159 -216 163 -177 195 -218 217 -281 22 -61 62
-104 119 -130 52 -24 88 -24 167 1 87 27 152 72 204 143 71 96 91 196 57 289
-15 44 -15 48 1 73 20 31 35 29 56 -10 9 -16 33 -42 54 -59 l38 -31 301 0 302
0 102 -48 c124 -58 203 -75 279 -58 48 11 61 10 112 -8 32 -11 87 -22 122 -26
36 -4 94 -16 130 -28 123 -40 246 -22 272 41 6 15 17 41 24 59 18 40 18 117 0
151 -8 15 -31 43 -51 62 -57 54 -59 68 -24 159 l30 79 67 21 c75 23 171 76
219 123 l32 31 44 -41 c58 -52 93 -70 175 -87 37 -8 94 -21 127 -29 33 -9 88
-16 123 -17 58 -1 68 2 119 37 51 35 153 139 153 156 0 12 53 36 105 48 l48
11 71 -69 c93 -91 142 -115 216 -110 57 4 178 54 241 99 17 12 31 20 32 18 34
-52 67 -82 124 -112 96 -50 144 -91 173 -146 42 -79 89 -140 123 -157 17 -9
59 -19 93 -22 55 -4 72 0 175 41 219 89 303 96 436 40 81 -34 96 -37 183 -37
52 0 111 3 131 8 33 8 45 3 145 -59 158 -96 230 -151 255 -193 32 -53 108
-130 151 -153 49 -25 74 -59 93 -127 13 -45 27 -67 70 -108 29 -28 78 -63 108
-78 30 -16 81 -51 114 -80 l59 -52 84 7 84 6 43 47 c24 27 43 57 43 67 0 29
45 69 77 69 15 0 55 11 87 25 l59 24 53 -48 c33 -30 74 -56 112 -70 34 -12 84
-41 113 -64 28 -23 61 -50 73 -60 13 -10 40 -22 62 -27 56 -13 293 -12 353 2
47 11 52 10 89 -15 57 -37 98 -45 280 -53 148 -6 164 -5 182 11 11 10 20 23
20 29 0 6 22 40 50 76 27 36 49 72 50 81 0 8 5 20 11 26 6 6 13 72 17 158 5
135 7 149 28 175 13 15 41 68 61 116 20 49 53 116 73 149 41 68 60 116 60 154
0 14 9 41 20 59 11 18 24 62 29 97 6 41 28 106 60 178 28 61 51 119 51 127 0
9 7 26 16 39 12 16 15 37 12 72 -7 71 -47 108 -183 173 -60 29 -117 61 -126
72 -44 51 -30 101 38 143 82 51 128 87 140 112 6 13 28 62 49 109 31 71 50 97
113 160 42 41 85 93 95 114 21 44 24 125 6 170 -14 38 -14 193 0 248 22 82
107 231 167 294 32 33 66 80 77 104 30 75 45 103 80 152 19 26 48 81 65 122
17 42 44 109 61 149 44 106 63 132 127 173 69 44 297 270 336 334 18 28 60 69
113 108 98 73 114 100 114 195 0 48 -7 79 -27 123 -25 56 -27 70 -34 294 -5
129 -11 250 -15 268 -5 24 0 48 20 91 14 32 26 65 26 73 0 7 -22 49 -50 92
l-49 79 4 121 c5 132 8 119 -62 221 -18 25 -33 55 -33 66 0 30 -75 104 -131
128 -27 12 -86 26 -130 31 -59 7 -99 19 -154 46 -68 34 -77 41 -119 110 -25
41 -46 80 -46 88 0 7 11 23 25 36 40 37 85 114 85 144 0 28 -24 78 -65 135
-14 19 -25 43 -25 54 0 11 -16 49 -35 86 -31 61 -35 75 -40 181 l-7 116 -51
64 c-32 40 -69 74 -97 88 -44 22 -52 23 -265 20 -215 -3 -221 -4 -277 -30
l-58 -27 0 -65 c0 -47 -4 -66 -12 -65 -29 1 -159 27 -164 32 -4 3 -1 21 6 39
6 18 14 76 17 128 4 75 2 103 -11 134 -9 21 -16 53 -16 70 -1 46 -34 111 -68
131 -16 10 -37 33 -46 52 -9 19 -38 58 -65 86 -26 29 -53 62 -60 74 -16 31
-14 95 4 119 8 10 15 27 15 37 0 19 -36 138 -51 169 -5 10 -9 28 -9 40 0 37
-77 100 -160 130 -66 24 -82 36 -134 94 -33 37 -74 73 -93 80 -18 8 -72 17
-120 20 -73 4 -95 2 -128 -14z"/>
</g>
</svg>
