<?xml version="1.0" standalone="no"?>
<!DOCTYPE svg PUBLIC "-//W3C//DTD SVG 20010904//EN"
 "http://www.w3.org/TR/2001/REC-SVG-20010904/DTD/svg10.dtd">
<svg version="1.0" xmlns="http://www.w3.org/2000/svg"
 width="1168.000000pt" height="1080.000000pt" viewBox="0 0 1168.000000 1080.000000"
 preserveAspectRatio="xMidYMid meet">

<g transform="translate(0.000000,1080.000000) scale(0.100000,-0.100000)"
fill="#000000" stroke="none">
<path d="M3293 10786 c-40 -18 -120 -91 -138 -126 -7 -14 -19 -64 -25 -109
-12 -92 -43 -185 -70 -216 -10 -11 -39 -58 -65 -105 -25 -47 -67 -114 -91
-150 -63 -90 -103 -172 -110 -224 -4 -23 -1 -82 5 -130 l12 -87 -81 -87 -80
-87 5 -140 c13 -344 -2 -840 -30 -940 -9 -33 -20 -77 -25 -98 -4 -21 -12 -43
-16 -47 -5 -5 -52 -32 -104 -61 -250 -135 -490 -334 -535 -443 -17 -40 -20
-157 -5 -172 6 -6 11 -33 12 -60 l1 -49 -101 -95 c-55 -52 -107 -109 -116
-127 -9 -17 -48 -71 -87 -120 -39 -48 -84 -114 -101 -146 -17 -36 -59 -88
-106 -135 -42 -42 -89 -99 -104 -127 -32 -61 -63 -179 -52 -203 9 -20 23 -122
30 -212 6 -73 8 -69 -100 -198 -47 -56 -76 -80 -140 -114 -64 -34 -89 -55
-125 -103 -49 -63 -81 -97 -180 -184 -34 -29 -64 -65 -68 -79 -3 -14 -12 -37
-19 -51 -8 -14 -14 -32 -14 -40 0 -8 -16 -43 -36 -79 l-37 -65 23 -46 c12 -25
39 -71 59 -101 115 -171 213 -372 236 -485 9 -44 20 -84 26 -90 5 -5 9 -17 9
-26 0 -32 43 -114 81 -156 44 -48 47 -64 19 -100 -11 -14 -24 -42 -30 -63 -9
-33 -18 -41 -74 -68 -36 -17 -82 -46 -103 -65 -21 -18 -64 -54 -96 -80 -53
-42 -107 -105 -107 -125 0 -4 -16 -27 -36 -52 -47 -59 -108 -164 -134 -231
-24 -62 -121 -167 -210 -229 -57 -39 -151 -145 -184 -206 -23 -43 -33 -119
-17 -128 17 -11 13 -44 -8 -85 -45 -84 -54 -111 -48 -158 6 -54 28 -77 90 -94
51 -13 99 -5 147 27 51 34 97 40 145 19 22 -9 72 -20 111 -24 62 -7 78 -14
133 -54 62 -46 112 -67 162 -67 36 0 98 -36 166 -95 l58 -50 158 0 c155 0 159
-1 178 -24 14 -17 19 -39 19 -87 0 -34 -5 -66 -10 -69 -16 -10 -11 -66 9 -111
39 -85 146 -144 289 -158 65 -6 109 -23 132 -51 11 -14 11 -24 -5 -66 -26 -75
-16 -147 31 -216 76 -110 259 -263 315 -263 8 0 44 24 80 54 103 84 101 84
157 33 91 -83 98 -87 173 -87 65 0 71 2 109 37 25 22 54 64 74 107 18 39 42
82 53 95 38 47 101 28 217 -64 68 -54 70 -55 135 -55 92 1 138 23 181 90 36
56 57 119 71 215 16 104 59 205 88 205 13 0 108 -101 148 -156 19 -27 57 -95
84 -152 39 -84 62 -118 119 -176 l70 -73 123 -7 c85 -4 138 -12 175 -26 69
-26 92 -25 155 7 65 33 139 53 196 53 39 0 48 -5 87 -47 24 -27 44 -53 44 -59
0 -13 170 -200 201 -222 11 -8 57 -34 102 -59 45 -25 121 -71 169 -103 82 -55
219 -120 252 -120 32 0 171 -62 269 -120 55 -33 114 -62 131 -64 122 -17 176
-31 248 -62 93 -42 145 -51 177 -34 28 14 53 -4 71 -53 7 -18 16 -41 21 -52 5
-11 17 -42 28 -70 56 -144 84 -190 156 -261 71 -70 74 -72 136 -79 70 -8 89
-18 89 -46 0 -26 66 -96 111 -120 74 -37 161 -19 219 48 40 46 94 155 109 223
6 30 29 87 49 125 l37 70 105 -3 105 -3 90 75 c96 80 135 127 135 162 0 31 34
70 88 101 68 38 99 70 139 141 38 67 57 76 89 41 17 -19 20 -42 24 -198 5
-170 6 -178 33 -223 51 -87 178 -165 285 -175 44 -5 86 -21 181 -70 120 -63
127 -65 185 -61 67 4 122 34 194 107 20 20 67 52 105 70 53 25 71 40 86 70 23
44 41 135 41 204 l0 49 34 -6 c51 -10 104 16 158 77 33 36 48 46 48 34 0 -30
37 -92 75 -125 43 -38 91 -42 141 -11 34 20 41 35 46 94 2 24 8 31 29 33 25 3
27 0 33 -47 8 -60 32 -81 91 -81 104 0 212 100 246 230 14 51 16 76 9 95 -6
15 -10 40 -10 56 0 40 -14 64 -71 126 -27 28 -49 56 -49 62 0 5 11 22 24 38
41 49 96 170 96 210 0 41 -27 109 -53 135 -16 15 -14 19 21 46 20 16 70 48
111 72 83 48 151 111 151 139 0 12 26 42 62 73 142 120 188 187 196 284 2 29
-1 67 -7 85 -6 17 -8 35 -5 40 11 19 84 -33 152 -109 40 -44 86 -85 102 -92
21 -9 57 -11 110 -7 99 6 188 45 249 108 69 72 79 103 95 299 9 96 20 189 26
207 6 17 28 43 48 57 20 14 59 48 86 75 42 43 49 56 54 99 2 27 -3 80 -12 120
-9 39 -16 102 -16 140 0 85 -14 106 -99 146 -60 29 -77 46 -46 46 67 0 215
155 215 224 0 28 -44 57 -126 82 -128 39 -157 72 -116 137 31 51 167 137 265
167 53 17 135 85 154 128 9 20 20 47 26 59 29 63 -35 153 -123 172 -28 6 -61
11 -73 11 -38 0 -97 20 -97 33 0 7 23 35 51 62 l51 50 -7 90 c-4 50 -15 114
-26 142 -10 29 -28 79 -40 110 -11 32 -37 79 -56 106 -19 26 -42 73 -50 104
-8 32 -21 70 -29 85 -8 15 -14 37 -14 50 0 23 3 30 59 130 20 36 31 70 31 96
0 44 -17 102 -31 102 -5 0 -9 13 -9 30 0 29 -10 58 -55 155 -46 101 -42 116
40 140 61 17 135 79 135 111 -1 32 -21 56 -118 148 -78 74 -110 96 -198 138
-58 28 -108 57 -111 66 -4 8 -1 50 6 91 7 42 16 114 20 161 6 77 10 89 43 132
20 26 46 73 58 105 24 65 22 108 -10 181 -11 25 -20 57 -20 73 0 34 -39 82
-80 99 -45 19 -216 9 -256 -15 -31 -18 -32 -18 -84 3 -29 12 -61 22 -72 22
-47 0 -168 82 -194 131 -14 27 -13 33 12 87 14 31 34 89 44 127 10 39 21 78
25 88 12 28 53 44 150 56 144 19 232 40 340 81 55 20 125 43 155 50 73 16 129
49 181 108 53 59 76 128 82 252 3 47 10 97 17 112 14 30 6 85 -25 168 -29 77
-10 201 46 312 24 47 4 131 -50 215 -32 50 -50 66 -102 92 -34 17 -69 31 -76
31 -8 0 -49 12 -91 26 -74 26 -78 26 -178 14 -88 -11 -106 -11 -132 3 -42 20
-183 138 -257 214 -67 69 -90 83 -133 83 -51 0 -187 -58 -235 -101 -40 -35
-172 -99 -205 -99 -7 0 -23 24 -36 54 -26 60 -94 139 -137 162 -15 7 -47 39
-71 71 -23 31 -66 73 -95 93 -28 19 -80 63 -115 96 -78 75 -127 106 -198 128
-30 9 -91 41 -135 71 -44 30 -90 55 -101 55 -32 0 -65 -31 -73 -70 -8 -38 -9
-38 -81 -20 -60 16 -180 5 -237 -20 -25 -11 -52 -20 -60 -20 -9 0 -38 -8 -65
-17 l-49 -18 -22 30 c-46 63 -82 97 -147 139 -44 29 -85 67 -120 113 -77 99
-91 108 -175 108 -89 0 -129 -22 -169 -93 -17 -29 -33 -52 -36 -52 -4 0 -32
29 -63 64 -104 118 -180 125 -368 33 -64 -31 -135 -72 -158 -91 -48 -41 -86
-47 -96 -16 -10 32 -222 254 -256 268 -22 9 -35 10 -50 1 -22 -11 -69 -101
-69 -131 0 -10 -12 -24 -27 -32 -30 -16 -90 -76 -115 -116 -15 -24 -47 -37
-168 -67 -44 -11 -120 -103 -147 -176 -18 -52 -18 -52 -70 -58 -37 -5 -64 -16
-98 -42 -25 -20 -66 -43 -90 -52 -41 -16 -45 -16 -91 5 -129 59 -141 61 -339
70 -177 7 -196 10 -280 40 -169 60 -245 50 -313 -41 -18 -24 -50 -66 -72 -93
-22 -26 -40 -54 -40 -61 0 -7 -7 -18 -15 -25 -11 -9 -23 -3 -64 35 -29 27 -55
62 -62 83 -36 111 -124 213 -215 248 -39 15 -53 16 -90 6 -68 -18 -87 -15
-169 28 -55 29 -88 40 -119 40 -24 0 -63 7 -86 15 -23 8 -58 15 -77 15 -43 0
-93 46 -93 85 0 14 -7 42 -15 62 -17 39 -148 173 -170 173 -8 0 -20 9 -29 21
-12 18 -12 25 0 54 37 89 -41 164 -266 256 -68 28 -144 34 -187 15z"/>
</g>
</svg>
