<?xml version="1.0" standalone="no"?>
<!DOCTYPE svg PUBLIC "-//W3C//DTD SVG 20010904//EN"
 "http://www.w3.org/TR/2001/REC-SVG-20010904/DTD/svg10.dtd">
<svg version="1.0" xmlns="http://www.w3.org/2000/svg"
 width="110.000000pt" height="540.000000pt" viewBox="0 0 110.000000 540.000000"
 preserveAspectRatio="xMidYMid meet">

<g transform="translate(0.000000,540.000000) scale(0.100000,-0.100000)"
fill="#000000" stroke="none">
<path d="M741 5381 c-8 -5 -11 -16 -8 -25 7 -18 -25 -56 -46 -56 -17 0 -18
-19 -5 -95 23 -137 11 -431 -19 -442 -17 -7 -17 -50 -1 -55 10 -4 10 -10 2
-29 -6 -13 -10 -62 -9 -109 2 -52 -2 -95 -10 -110 -7 -14 -10 -42 -8 -62 3
-21 -2 -58 -11 -84 -9 -26 -16 -60 -16 -75 0 -15 -4 -31 -10 -34 -5 -3 -10
-21 -10 -38 0 -18 -9 -50 -20 -72 -22 -43 -26 -80 -10 -90 22 -13 7 -115 -16
-115 -18 0 -18 -76 0 -190 15 -91 12 -143 -9 -160 -8 -7 -11 -26 -7 -55 3 -27
1 -45 -6 -45 -13 0 -23 -26 -28 -70 -6 -46 -15 -71 -74 -200 -4 -8 -13 -39
-19 -67 -7 -29 -17 -53 -21 -53 -5 0 -10 -15 -12 -32 -2 -28 -7 -33 -28 -33
-21 0 -25 -5 -26 -30 0 -17 5 -42 12 -57 8 -15 11 -39 8 -56 -4 -18 1 -52 11
-82 21 -62 14 -136 -14 -145 -12 -4 -22 -25 -31 -68 -17 -80 -16 -135 4 -172
12 -22 12 -31 3 -37 -18 -12 -29 -9 -21 5 4 6 3 9 -1 4 -10 -9 -13 -20 -24
-112 -5 -38 -12 -80 -16 -92 -5 -16 -3 -23 6 -23 8 0 25 -3 38 -7 21 -5 23 -3
19 15 -4 15 -2 22 7 22 18 0 16 40 -3 62 -17 20 -7 42 15 33 13 -4 14 -3 3 10
-10 12 -9 15 5 15 12 0 15 4 8 13 -18 23 -10 62 15 65 14 2 22 10 22 23 0 23
13 25 29 5 9 -11 9 -20 2 -35 -12 -21 0 -37 19 -26 5 3 10 -3 10 -14 0 -12 -3
-20 -7 -20 -27 4 -33 -2 -23 -21 8 -15 8 -20 -1 -20 -8 0 -10 -12 -6 -36 4
-25 1 -44 -12 -65 -18 -29 -18 -79 1 -79 5 0 3 -6 -4 -14 -7 -8 -16 -12 -20
-9 -5 2 -8 -9 -8 -25 0 -22 7 -32 27 -42 16 -7 31 -13 36 -12 4 1 7 -3 7 -8 0
-13 -17 -13 -25 0 -10 16 -45 12 -45 -5 0 -8 -4 -15 -9 -15 -5 0 -8 -24 -7
-54 0 -30 4 -52 8 -49 5 2 18 -3 30 -11 12 -9 18 -16 12 -16 -5 0 -15 5 -22
12 -9 9 -16 7 -33 -8 -12 -10 -24 -18 -28 -16 -3 2 -7 -4 -9 -13 -2 -8 3 -18
12 -21 8 -3 12 -12 9 -21 -4 -11 -8 -12 -13 -3 -4 7 -13 9 -20 5 -9 -5 -9 -9
-1 -14 8 -5 7 -13 -2 -26 -13 -17 -14 -16 -12 11 1 16 9 53 18 82 18 60 13
112 -12 113 -9 0 -11 3 -5 5 14 6 6 44 -8 44 -5 0 -6 -6 -3 -12 4 -7 -1 -4 -9
6 -13 16 -19 17 -28 8 -9 -9 -9 -12 0 -12 7 0 12 -4 12 -10 0 -5 -7 -10 -16
-10 -13 0 -14 -3 -4 -14 6 -8 18 -12 26 -9 16 6 19 -8 3 -24 -7 -7 -5 -15 6
-27 9 -9 13 -16 9 -16 -5 0 -4 -4 2 -10 15 -15 5 -80 -12 -80 -10 0 -13 7 -8
24 3 13 1 27 -5 30 -7 5 -11 -4 -11 -22 0 -26 -4 -31 -35 -36 -33 -7 -43 -26
-18 -36 7 -3 -8 -22 -37 -45 -50 -41 -60 -64 -37 -84 15 -12 27 -5 27 17 0 9
-6 12 -16 8 -8 -3 -12 -2 -9 4 3 6 14 10 24 10 9 0 23 6 30 12 10 11 11 10 6
-4 -5 -12 2 -21 24 -32 33 -17 55 -21 31 -6 -13 8 -12 10 2 10 10 0 27 -9 37
-19 18 -18 18 -20 3 -26 -14 -5 -14 -7 -2 -15 13 -8 12 -10 -2 -10 -28 0 -39
-32 -20 -55 16 -19 16 -19 -1 -5 -16 12 -20 12 -27 0 -12 -20 -2 -32 21 -25
18 6 19 5 7 -14 -7 -12 -16 -21 -20 -21 -6 0 -4 -51 2 -57 1 -2 3 -9 4 -15 1
-7 7 -12 13 -11 8 2 9 -7 3 -29 -13 -45 -17 -44 -25 8 -10 66 -13 72 -47 79
-21 5 -27 10 -18 15 7 5 20 6 27 3 11 -4 14 1 11 18 -2 16 -11 25 -27 27 -14
2 -21 0 -17 -7 4 -5 13 -8 21 -4 8 3 15 0 15 -5 0 -6 -16 -16 -35 -23 -29 -11
-35 -18 -37 -44 0 -16 -2 -43 -3 -58 -2 -25 1 -28 22 -22 16 4 22 2 18 -5 -3
-5 -15 -10 -26 -10 -21 0 -26 -25 -6 -33 9 -4 8 -8 -3 -17 -11 -9 -12 -13 -2
-17 6 -2 12 -11 12 -19 0 -8 5 -14 10 -14 6 0 10 -7 10 -15 0 -8 -7 -15 -15
-15 -20 0 -19 -26 1 -34 33 -13 44 -6 46 27 1 26 2 24 7 -13 5 -36 10 -45 26
-45 17 0 20 6 19 45 0 25 1 39 4 32 6 -18 32 5 32 29 0 10 4 20 9 23 4 3 6 -6
3 -19 -3 -17 0 -25 9 -26 8 -1 3 -4 -11 -8 -22 -6 -25 -13 -25 -49 1 -33 -3
-42 -16 -42 -29 0 -31 -17 -4 -38 14 -11 25 -25 25 -31 0 -7 -10 -3 -22 9 -12
11 -24 17 -27 14 -3 -3 1 -11 10 -17 12 -9 14 -18 7 -37 -5 -14 -12 -20 -16
-14 -12 19 -42 25 -42 9 0 -8 5 -15 11 -15 6 0 9 -7 6 -15 -8 -18 40 -52 71
-49 12 1 22 -3 22 -7 0 -5 -4 -9 -10 -9 -5 0 -10 -7 -10 -15 0 -22 21 -18 27
4 3 11 12 22 20 26 13 4 14 3 3 -10 -7 -8 -10 -29 -8 -45 3 -21 1 -29 -7 -26
-7 2 -18 0 -26 -4 -11 -7 -10 -10 4 -16 9 -3 17 -11 17 -16 0 -6 -11 -3 -25 6
-39 26 -29 3 14 -32 40 -32 67 -33 28 -1 -12 10 -16 18 -10 19 7 0 12 5 10 12
-1 6 6 14 16 16 14 3 17 -1 12 -20 -4 -16 -1 -29 10 -38 15 -12 19 -12 30 4 7
9 17 17 22 18 12 0 4 21 -13 34 -28 22 -13 25 17 4 35 -26 50 -19 24 10 -19
21 -7 28 13 8 20 -20 15 -58 -8 -58 -11 0 -20 -4 -20 -10 0 -5 -7 -10 -15 -10
-9 0 -18 -6 -21 -14 -3 -8 -13 -12 -25 -9 -15 4 -20 1 -17 -11 2 -10 -7 -22
-22 -29 -29 -14 -34 -43 -7 -41 9 1 17 -3 17 -9 0 -5 8 -2 19 7 17 15 19 15
25 1 9 -23 8 -25 -9 -25 -8 0 -15 -4 -15 -10 0 -5 4 -10 10 -10 5 0 9 -6 7
-12 -1 -8 8 -13 23 -13 14 0 30 -7 37 -15 18 -22 16 -35 -3 -19 -19 15 -44 21
-44 9 0 -8 75 -60 87 -60 4 0 16 -9 27 -19 12 -11 43 -26 69 -33 57 -15 67 -6
66 57 -1 22 2 61 6 86 7 44 10 47 59 68 28 11 57 21 63 21 7 0 18 10 24 23 17
31 30 37 52 25 10 -5 21 -8 23 -5 5 4 -19 14 -87 36 -19 6 -80 11 -135 11
l-100 0 -31 41 c-26 34 -30 45 -23 70 5 17 5 31 -1 34 -5 4 -5 14 1 25 6 11 8
31 4 45 -5 19 -12 24 -33 23 -14 -1 -31 -6 -38 -11 -18 -13 -33 1 -33 31 0 15
-7 37 -15 49 -8 12 -14 39 -14 60 1 21 0 43 -1 48 -6 27 2 45 20 45 13 0 20 7
20 19 0 11 13 29 30 41 21 15 30 30 30 49 0 16 7 34 15 41 18 15 20 51 4 67
-15 15 9 82 38 106 17 14 21 25 16 48 -4 22 -1 33 12 43 16 11 17 19 8 52 -8
31 -7 45 5 62 9 14 10 22 3 22 -22 0 -11 45 17 66 l27 22 -21 29 c-12 15 -31
29 -43 31 -11 2 -21 8 -21 13 0 8 34 13 71 10 16 -2 33 35 23 51 -3 4 -20 8
-39 8 -32 0 -33 1 -26 33 10 46 7 83 -10 103 -11 13 -11 18 -2 21 20 7 15 30
-8 36 -18 5 -20 12 -17 68 2 51 6 63 21 67 15 4 18 11 13 36 -9 51 -9 193 0
207 5 8 9 23 10 34 3 82 5 96 13 91 11 -7 21 27 21 70 0 26 6 34 30 44 29 12
39 33 21 44 -12 8 -21 74 -23 169 l-1 79 41 39 c37 34 42 44 42 83 0 25 -4 48
-10 51 -6 4 -6 12 0 23 5 9 19 41 31 70 12 28 24 52 28 52 3 0 6 29 7 65 0 48
-3 65 -13 65 -15 0 -17 18 -4 39 6 9 1 30 -14 60 -13 25 -21 49 -19 53 3 4 -2
18 -10 30 -20 29 -21 84 -1 92 8 3 15 17 15 30 0 14 11 37 25 52 14 15 24 33
21 40 -16 42 -17 104 -2 126 9 12 16 32 16 43 0 12 13 39 29 61 17 22 38 62
49 89 11 28 26 50 33 51 34 2 39 5 39 19 0 9 -7 26 -16 40 -12 19 -13 27 -3
43 10 16 10 29 1 60 -12 40 -8 72 9 72 6 0 5 9 -1 20 -18 35 -2 58 60 87 56
26 59 28 74 83 22 79 22 80 -29 80 -44 0 -45 0 -45 34 0 18 -7 50 -15 69 -8
20 -15 47 -15 60 0 13 -9 33 -20 45 -11 12 -20 30 -20 42 0 11 -4 20 -9 20
-17 0 -19 50 -3 59 13 7 14 12 4 24 -10 11 -9 17 3 27 14 12 13 17 -13 44 -25
27 -40 68 -44 124 -1 6 -5 12 -10 12 -5 0 -14 11 -20 25 -12 27 -16 29 -37 16z
m-340 -3484 l-23 -22 17 28 c10 15 20 25 23 22 3 -3 -5 -16 -17 -28z m-124
-33 c-3 -3 -12 -4 -19 -1 -8 3 -5 6 6 6 11 1 17 -2 13 -5z m40 -181 c-7 -39
-18 -63 -28 -63 -12 0 -12 17 0 25 5 3 12 19 16 35 8 38 18 40 12 3z m6 -283
c9 -16 12 -32 7 -35 -4 -3 -10 2 -14 10 -3 8 -16 15 -28 15 -21 1 -21 2 -5 11
9 6 15 14 12 20 -4 5 -2 9 4 9 5 0 16 -13 24 -30z m-158 -73 c8 -20 11 -37 6
-37 -5 0 -11 10 -14 23 -2 12 -8 31 -12 42 -14 35 4 10 20 -28z m5 -87 c0 -5
-5 -10 -11 -10 -5 0 -7 5 -4 10 3 6 8 10 11 10 2 0 4 -4 4 -10z m-10 -52 c0
-5 -8 -5 -39 1 -2 1 2 8 9 16 11 13 15 13 21 3 5 -7 9 -16 9 -20z m153 -218
c-3 -12 -8 -19 -11 -16 -5 6 5 36 12 36 2 0 2 -9 -1 -20z m-13 -41 c0 -9 -53
-19 -64 -11 -11 6 17 18 45 18 10 0 19 -3 19 -7z m110 -239 c0 -5 -5 -10 -11
-10 -5 0 -7 5 -4 10 3 6 8 10 11 10 2 0 4 -4 4 -10z m25 -29 c-3 -6 -11 -11
-16 -11 -5 0 -4 6 3 14 14 16 24 13 13 -3z m5 -41 c0 -6 7 -6 18 1 23 14 96 3
86 -13 -4 -5 -20 -7 -37 -4 -21 4 -33 1 -42 -10 -12 -18 -60 -11 -50 7 4 5 1
9 -5 9 -6 0 -8 5 -5 10 8 13 35 13 35 0z m150 -50 c0 -10 -28 -40 -62 -65 -7
-6 -26 -10 -41 -8 -17 1 -30 -4 -34 -13 -3 -8 -10 -14 -15 -14 -7 0 -6 5 1 13
6 8 8 17 4 20 -3 4 2 7 12 7 14 0 15 3 5 15 -8 9 -9 15 -2 15 6 0 14 -5 17
-10 4 -6 21 2 41 20 34 29 74 40 74 20z"/>
<path d="M260 2040 c0 -13 11 -13 30 0 12 8 11 10 -7 10 -13 0 -23 -4 -23 -10z"/>
<path d="M277 1993 c-14 -13 -7 -32 9 -26 11 4 12 8 4 13 -9 6 -9 9 1 13 8 3
9 6 3 6 -6 1 -14 -2 -17 -6z"/>
<path d="M300 1928 c0 -7 5 -20 10 -28 8 -12 10 -11 10 7 0 12 -4 25 -10 28
-5 3 -10 0 -10 -7z"/>
<path d="M155 1890 c3 -5 8 -10 11 -10 2 0 4 5 4 10 0 6 -5 10 -11 10 -5 0 -7
-4 -4 -10z"/>
<path d="M226 1824 c-4 -10 -1 -14 6 -12 15 5 23 28 10 28 -5 0 -13 -7 -16
-16z"/>
<path d="M206 1771 c-4 -7 -5 -15 -2 -18 9 -9 19 4 14 18 -4 11 -6 11 -12 0z"/>
<path d="M130 1061 c0 -5 5 -13 10 -16 6 -3 10 -12 10 -18 0 -8 -3 -8 -9 2 -7
10 -10 10 -16 1 -4 -7 -1 -16 6 -21 9 -6 10 -12 4 -16 -12 -9 -13 -48 -2 -59
4 -4 7 2 7 14 0 12 6 22 13 22 9 0 9 2 -1 8 -10 7 -7 15 12 33 l25 25 -29 18
c-17 9 -30 13 -30 7z"/>
<path d="M189 853 c-1 -5 -1 -11 0 -15 2 -12 -13 -10 -26 3 -7 7 -12 3 -17
-16 -4 -15 -4 -30 -1 -33 3 -3 8 3 11 15 4 12 12 19 19 17 7 -3 16 0 20 5 3 6
11 9 16 6 5 -4 9 1 9 9 0 16 -29 23 -31 9z"/>
<path d="M180 781 c0 -6 4 -13 10 -16 6 -3 7 1 4 9 -7 18 -14 21 -14 7z"/>
<path d="M163 748 c2 -15 11 -35 20 -46 9 -10 14 -22 10 -25 -3 -4 -1 -7 5 -7
6 0 10 8 10 18 0 9 0 22 2 27 6 23 -1 35 -19 35 -11 0 -22 6 -25 13 -3 6 -4 0
-3 -15z"/>
<path d="M240 700 c0 -5 5 -10 11 -10 5 0 7 5 4 10 -3 6 -8 10 -11 10 -2 0 -4
-4 -4 -10z"/>
<path d="M260 686 c-15 -19 -3 -41 14 -27 7 6 16 8 19 4 4 -3 7 -2 7 4 0 6 -6
16 -14 22 -10 9 -16 8 -26 -3z"/>
<path d="M750 615 c-12 -31 -35 -41 -55 -25 -12 10 -15 10 -15 -3 0 -8 5 -17
12 -19 6 -2 8 -10 4 -17 -5 -7 -14 -10 -22 -7 -10 4 -14 -4 -14 -28 0 -46 19
-60 56 -41 40 21 64 19 64 -4 0 -12 -15 -26 -45 -40 -25 -12 -45 -25 -45 -30
0 -34 24 -61 74 -86 44 -22 53 -29 43 -40 -9 -10 -13 -10 -15 -1 -1 6 -16 17
-33 23 -29 11 -31 10 -26 -7 7 -29 -2 -24 -13 6 -6 14 -15 22 -20 19 -6 -4 -8
-11 -5 -16 9 -13 -9 -11 -23 3 -6 6 -14 9 -17 6 -4 -3 4 -16 17 -29 l23 -23
-25 17 c-39 27 -51 31 -59 19 -4 -7 -21 -10 -39 -7 -19 2 -30 0 -27 -6 10 -15
-24 -22 -41 -8 -14 12 -16 11 -12 -6 4 -21 42 -28 64 -12 7 4 14 1 18 -9 5
-14 9 -14 23 -3 12 10 14 10 9 2 -8 -14 23 -18 40 -5 5 4 1 -1 -9 -10 -17 -16
-17 -19 -3 -24 9 -3 13 -11 10 -16 -4 -6 -1 -8 7 -6 8 3 13 10 12 15 -1 5 14
10 34 11 20 1 40 7 43 13 5 7 9 5 13 -5 4 -11 1 -16 -12 -16 -28 0 -34 -47 -8
-71 11 -10 24 -19 29 -19 4 0 8 -7 8 -15 0 -8 7 -15 15 -15 13 0 14 4 5 20
-14 26 -6 40 19 33 21 -5 37 -33 20 -33 -6 0 -7 -5 -4 -10 4 -6 10 -8 15 -5
17 10 59 -7 65 -26 4 -11 11 -17 16 -14 15 10 10 24 -16 50 -13 14 -20 25 -15
25 6 0 10 5 10 10 0 6 -13 10 -29 10 -16 0 -35 8 -42 18 -13 15 -12 16 3 4 18
-14 58 -8 58 9 0 5 5 9 10 9 6 0 10 -10 10 -23 0 -21 4 -23 38 -22 20 1 40 -3
44 -9 8 -13 38 11 38 31 0 8 5 11 12 7 7 -5 8 -3 4 5 -5 7 -11 10 -14 7 -3 -3
-10 -2 -16 3 -13 11 -88 15 -166 8 -30 -2 -45 -2 -32 0 12 2 22 9 22 14 0 6 5
7 10 4 7 -4 10 65 10 199 0 123 -4 207 -10 211 -5 3 -19 1 -30 -5 -16 -8 -22
-7 -32 10 -17 27 -26 25 -38 -5z"/>
<path d="M211 573 c28 -36 38 -43 62 -43 13 0 34 -11 47 -25 29 -31 63 -36 35
-5 -22 25 -86 58 -102 53 -6 -2 -17 5 -23 16 -6 12 -16 21 -22 21 -6 0 -5 -7
3 -17z"/>
<path d="M313 462 c-13 -2 -23 -8 -23 -13 0 -6 9 -7 20 -4 11 4 20 3 19 -2 -4
-23 2 -35 16 -29 9 3 15 1 14 -7 -4 -32 1 -37 21 -25 25 16 38 3 22 -23 -12
-18 -10 -19 15 -13 39 9 43 13 36 29 -3 8 0 15 6 15 31 0 -5 50 -38 53 -11 0
-19 6 -18 12 2 10 -44 13 -90 7z"/>
<path d="M643 429 c-6 -6 -9 -18 -6 -25 3 -8 -1 -14 -11 -14 -19 0 -20 -13 -5
-42 8 -16 8 -19 -1 -13 -8 5 -11 3 -8 -6 3 -8 18 -14 36 -14 34 -1 33 -4 15
88 -6 29 -11 35 -20 26z m15 -84 c-3 -3 -9 2 -12 12 -6 14 -5 15 5 6 7 -7 10
-15 7 -18z"/>
<path d="M490 379 c0 -5 -4 -7 -10 -4 -5 3 -10 0 -10 -8 0 -8 -7 -17 -15 -21
-8 -3 -15 -10 -15 -16 0 -15 30 -12 30 3 1 6 9 2 20 -11 21 -26 39 -11 19 16
-10 12 -7 11 9 -3 18 -15 25 -16 31 -6 6 9 10 7 14 -8 8 -30 37 -27 37 4 0 16
-6 25 -15 25 -8 0 -15 5 -15 10 0 6 -9 10 -19 10 -11 0 -23 5 -26 10 -8 13
-35 13 -35 -1z"/>
<path d="M345 350 c3 -5 11 -10 16 -10 6 0 7 5 4 10 -3 6 -11 10 -16 10 -6 0
-7 -4 -4 -10z"/>
<path d="M440 300 c0 -5 5 -10 11 -10 5 0 7 5 4 10 -3 6 -8 10 -11 10 -2 0 -4
-4 -4 -10z"/>
<path d="M560 201 c0 -6 7 -11 15 -11 8 0 24 -9 35 -20 12 -12 25 -18 30 -15
4 3 10 0 12 -7 2 -6 10 -8 16 -4 17 10 15 26 -3 26 -9 0 -26 6 -38 14 -33 21
-67 29 -67 17z"/>
<path d="M1075 140 c-3 -5 -1 -10 4 -10 6 0 11 5 11 10 0 6 -2 10 -4 10 -3 0
-8 -4 -11 -10z"/>
<path d="M1036 131 c-4 -7 -5 -15 -2 -18 9 -9 19 4 14 18 -4 11 -6 11 -12 0z"/>
<path d="M985 57 c-8 -19 -2 -31 13 -26 5 2 6 13 2 24 -7 19 -8 19 -15 2z"/>
<path d="M948 13 c6 -2 18 -2 25 0 6 3 1 5 -13 5 -14 0 -19 -2 -12 -5z"/>
</g>
</svg>
